<svg width="148" height="98" viewBox="0 0 148 98" fill="none" xmlns="http://www.w3.org/2000/svg">
<g filter="url(#filter0_d_49_133)">
<path fill-rule="evenodd" clip-rule="evenodd" d="M5.74115 0.524668C5.33322 0.800292 4.77453 1.3608 4.49979 1.77005L4 2.51402V45.0052V87.4964L4.49979 88.2404C6.07566 90.5865 8.95749 90.5865 10.5334 88.2404L11.0332 87.4964V64.3243V41.152L22.8467 52.9842C35.7457 65.9038 35.3575 65.5801 37.2996 65.0421C38.4618 64.7201 39.7449 63.4084 39.9451 62.3374C40.3163 60.3525 40.7392 60.8433 25.3014 45.3338L11.0332 30.9989V16.7565V2.51402L10.5334 1.77005C9.36695 0.0333944 7.27261 -0.5108 5.74115 0.524668ZM63.5598 0.519376C63.1602 0.792134 62.6264 1.29554 62.3734 1.63797C61.9147 2.25912 61.9134 2.32042 61.8037 27.5467L61.6938 52.833L49.8254 41.0065C36.8837 28.1103 37.4543 28.5822 35.4564 29.122C34.3718 29.415 33.0911 30.7958 32.8858 31.8936C32.5219 33.8396 32.1377 33.3941 47.5365 48.868L61.8037 63.2042V75.3504V87.4964L62.3035 88.2404C63.8794 90.5865 66.7612 90.5865 68.3371 88.2404L68.8369 87.4964V45.0052V2.51402L68.3371 1.77005C67.174 0.0382454 65.0706 -0.512343 63.5598 0.519376ZM107.299 0.262714C99.7153 1.44195 94.0747 4.27912 88.7062 9.61522C84.0109 14.2823 81.1475 19.5448 79.8279 25.932C79.2154 28.8964 79.0765 30.7164 79.387 31.7005C79.6022 32.3816 82.5568 35.4662 94.5209 47.4993C103.758 56.7901 109.668 62.5718 110.129 62.7689C112.216 63.6626 114.558 62.438 115.112 60.1631C115.528 58.4557 115.939 58.9307 100.712 43.5446L86.4668 29.1504L86.7519 27.6514C88.1695 20.195 93.4417 13.3018 100.357 9.86372C102.405 8.84545 105.079 7.96963 107.551 7.50746C109.344 7.1723 114.027 7.17627 115.871 7.51473C118.223 7.94647 121.804 9.2106 123.615 10.2481C131.424 14.7218 136.05 21.9339 136.782 30.7753C137.046 33.9595 137.256 34.554 138.437 35.4571C139.108 35.97 139.458 36.0737 140.497 36.0677C141.52 36.0618 141.895 35.9486 142.547 35.4499C143.746 34.5324 144.004 33.8517 144 31.6209C143.992 27.5209 142.628 21.9231 140.709 18.108C137.631 11.9904 132.125 6.43384 126.15 3.41498C123.349 2.00003 119.415 0.785079 115.939 0.261391C114.115 -0.0135719 109.071 -0.0126907 107.299 0.262714ZM110.024 27.2393C108.727 27.8058 107.845 29.5555 108.07 31.1137C108.209 32.0789 108.604 32.4985 122.473 46.4385L136.733 60.771L136.322 62.6452C135.47 66.5295 134.129 69.4637 131.726 72.696C126.982 79.0797 119.638 82.7482 111.585 82.7568C110.014 82.7586 108.085 82.6415 107.299 82.4966C95.8284 80.3827 87.389 71.0392 86.3949 59.3529C86.1206 56.1279 85.8837 55.4331 84.7663 54.5782C84.0902 54.0607 83.7245 53.9487 82.6935 53.9428C81.6546 53.9368 81.3042 54.0404 80.6337 54.5533C79.4242 55.4779 79.1662 56.1546 79.1706 58.3896C79.1789 62.6016 80.4875 67.9791 82.4564 71.8921C86.1624 79.2575 92.9292 85.3558 100.331 88.0012C104.245 89.4 107.569 89.989 111.518 89.9832C120.303 89.9705 128.071 86.7675 134.236 80.616C137.092 77.7662 138.958 75.2382 140.583 72.0138C142.882 67.4545 144.493 60.5569 143.783 58.31C143.569 57.6291 140.609 54.5381 128.65 42.5021C120.048 33.8462 113.485 27.4109 113.076 27.2325C112.192 26.8473 110.915 26.8502 110.024 27.2393Z" fill="white"/>
<path d="M122.473 46.4385L136.733 60.771L136.322 62.6452C135.47 66.5295 134.129 69.4637 131.726 72.696C126.982 79.0797 119.638 82.7482 111.585 82.7568C110.014 82.7586 108.085 82.6415 107.299 82.4966C95.8284 80.3827 87.389 71.0392 86.3949 59.3529C86.1206 56.1279 85.8837 55.4331 84.7663 54.5782C84.0902 54.0607 83.7245 53.9487 82.6935 53.9428C81.6546 53.9368 81.3042 54.0404 80.6337 54.5533C79.4242 55.4779 79.1662 56.1546 79.1706 58.3896C79.1789 62.6016 80.4875 67.9791 82.4564 71.8921C86.1624 79.2575 92.9292 85.3558 100.331 88.0012C104.245 89.4 107.569 89.989 111.518 89.9832C120.303 89.9705 128.071 86.7675 134.236 80.616C137.092 77.7662 138.958 75.2382 140.583 72.0138C142.882 67.4545 144.493 60.5569 143.783 58.31C143.569 57.6291 140.609 54.5381 128.65 42.5021C120.048 33.8462 113.485 27.4109 113.076 27.2325C112.192 26.8473 110.915 26.8502 110.024 27.2393M122.473 46.4385L122.828 46.0858L137.087 60.4183L137.28 60.6116L137.221 60.878L136.811 62.7523L136.333 62.6477L136.811 62.7523C135.943 66.7067 134.572 69.7059 132.128 72.9943C127.288 79.5066 119.795 83.248 111.586 83.2568C110.007 83.2586 108.041 83.1418 107.209 82.9883C95.5144 80.8332 86.9098 71.3043 85.8967 59.3953C85.7587 57.7726 85.6337 56.8543 85.4235 56.2382C85.2304 55.6719 84.9653 55.3601 84.4625 54.9753L84.4624 54.9753C84.1443 54.7318 83.9389 54.6149 83.7165 54.5467C83.4848 54.4757 83.1965 54.4457 82.6906 54.4427C82.1788 54.4398 81.894 54.4658 81.6675 54.5329C81.4517 54.5968 81.2533 54.7089 80.9374 54.9505L80.9373 54.9506C80.3676 55.3861 80.0822 55.7174 79.9141 56.1582C79.735 56.6279 79.6684 57.2728 79.6706 58.3886C79.6787 62.5197 80.9677 67.8209 82.903 71.6674C86.5544 78.9242 93.2248 84.9305 100.499 87.5303C104.362 88.9108 107.629 89.4889 111.517 89.4832C120.172 89.4706 127.813 86.3193 133.883 80.262C136.706 77.4456 138.538 74.9602 140.137 71.7887L140.549 71.9966L140.137 71.7887C141.265 69.551 142.23 66.7254 142.825 64.181C143.121 62.9099 143.323 61.7193 143.408 60.716C143.494 59.6972 143.453 58.926 143.307 58.4611C143.306 58.4585 143.298 58.4403 143.277 58.4027C143.251 58.3587 143.213 58.2992 143.156 58.2213C143.044 58.065 142.874 57.8538 142.631 57.5718C142.146 57.0086 141.389 56.19 140.26 55.01C138.002 52.6516 134.275 48.8732 128.295 42.8545C123.995 38.5275 120.206 34.7563 117.441 32.0452C116.058 30.6894 114.933 29.6002 114.129 28.8396C113.726 28.4589 113.407 28.163 113.177 27.958C113.062 27.8551 112.972 27.7783 112.908 27.7263C112.881 27.7039 112.861 27.6885 112.847 27.6786M122.473 46.4385C108.604 32.4985 108.209 32.0789 108.07 31.1137C107.845 29.5555 108.727 27.8058 110.024 27.2393M122.473 46.4385L122.828 46.0858C115.889 39.1124 112.331 35.5295 110.487 33.5681C109.561 32.5832 109.089 32.0288 108.839 31.6696C108.717 31.4944 108.658 31.3794 108.626 31.2956C108.594 31.2155 108.58 31.1459 108.565 31.0423L108.565 31.0422C108.469 30.3768 108.608 29.6528 108.923 29.0298C109.238 28.4041 109.707 27.9235 110.224 27.6975M112.847 27.6786C112.857 27.6826 112.867 27.6867 112.876 27.6908C112.856 27.682 112.841 27.6735 112.835 27.6697C112.836 27.6707 112.838 27.6721 112.841 27.674C112.843 27.6754 112.845 27.6769 112.847 27.6786ZM112.847 27.6786C112.093 27.3619 110.98 27.3677 110.224 27.6975M110.224 27.6975L110.024 27.2393M110.224 27.6975C110.224 27.6975 110.224 27.6976 110.224 27.6976L110.024 27.2393M6.02107 0.938961L6.0212 0.938875C7.27657 0.0900871 9.07265 0.491985 10.1183 2.04883L10.1183 2.04887L10.5332 2.66637V16.7565V30.9989V31.2053L10.6788 31.3516L24.9471 45.6865C25.3584 46.0997 25.7583 46.5015 26.1473 46.8922C33.0683 53.8447 36.5043 57.2962 38.1728 59.2336C39.0614 60.2654 39.3921 60.8064 39.5076 61.1741C39.6011 61.4718 39.5642 61.6655 39.4826 62.0929C39.4734 62.1407 39.4638 62.1914 39.4536 62.2455L39.9139 62.3316L39.4536 62.2455C39.3786 62.6471 39.0793 63.1573 38.6257 63.621C38.1758 64.0809 37.6379 64.4295 37.1661 64.5602L37.2996 65.0421L37.1661 64.5602C37.1222 64.5724 37.0805 64.584 37.0408 64.5951C36.6004 64.7181 36.4088 64.7716 36.1428 64.7134C35.8328 64.6456 35.3767 64.4053 34.5023 63.6758C32.8522 62.2991 29.9647 59.4067 24.1282 53.5603C23.8269 53.2584 23.5178 52.9487 23.2005 52.631L11.387 40.7987L10.5332 39.9435V41.152V64.3243V87.3441L10.1183 87.9616L10.5319 88.2394L10.1183 87.9616C9.41166 89.0136 8.44469 89.5 7.51658 89.5C6.58846 89.5 5.62149 89.0136 4.91485 87.9616L4.91483 87.9616L4.5 87.3441V45.0052V2.66637L4.91483 2.04887L4.91493 2.04874C5.15379 1.69291 5.6666 1.17847 6.02107 0.938961ZM63.8417 0.932334L63.8418 0.932283C65.0735 0.0911586 66.8778 0.494051 67.922 2.04882L67.922 2.04887L68.3369 2.66637V45.0052V87.3441L67.922 87.9616L68.3252 88.2324L67.922 87.9616C67.2154 89.0136 66.2484 89.5 65.3203 89.5C64.3922 89.5 63.4252 89.0136 62.7186 87.9616L62.3154 88.2324L62.7186 87.9616L62.3037 87.3441V75.3504V63.2042V62.9978L62.1581 62.8515L47.8909 48.5153C47.5149 48.1374 47.1484 47.7691 46.7911 47.4101C39.8216 40.4074 36.3606 36.9298 34.6786 34.9811C33.787 33.9481 33.4509 33.4048 33.3317 33.0368C33.2346 32.7371 33.2711 32.5451 33.3526 32.1164C33.3604 32.0751 33.3687 32.0316 33.3773 31.9856L33.3773 31.9855C33.4562 31.5637 33.762 31.0268 34.208 30.546C34.6537 30.0655 35.168 29.7178 35.5868 29.6047C35.6719 29.5817 35.7485 29.5604 35.8183 29.541C36.2109 29.432 36.388 29.3828 36.6315 29.4289C36.9257 29.4846 37.361 29.7019 38.2183 30.411C39.7971 31.7169 42.5526 34.4634 48.1234 40.0161C48.5558 40.4471 49.0053 40.8951 49.4725 41.3606L61.3409 53.1872L62.1886 54.0319L62.1938 52.8352L62.3037 27.5489C62.3586 14.9324 62.3863 8.61694 62.4576 5.3764C62.4933 3.74928 62.5398 2.92299 62.6017 2.46827C62.6323 2.24394 62.6633 2.13723 62.686 2.08057C62.7048 2.03353 62.7218 2.00795 62.7756 1.93507C62.9911 1.64338 63.4822 1.17771 63.8417 0.932334ZM80.3176 26.0332L79.8279 25.932L80.3176 26.0332C81.617 19.7436 84.4319 14.5688 89.0587 9.96984C94.3512 4.70927 99.8948 1.92004 107.376 0.756777C108.22 0.625582 109.89 0.55594 111.599 0.555665C113.308 0.555389 114.992 0.624406 115.864 0.755807L115.939 0.261415L115.864 0.755813C119.294 1.27252 123.176 2.47298 125.924 3.86125C131.801 6.83067 137.231 12.3084 140.262 18.3327C142.148 22.0814 143.492 27.6029 143.5 31.6219C143.502 32.7353 143.436 33.3807 143.257 33.8505C143.09 34.2912 142.807 34.6215 142.243 35.0528L142.547 35.4499L142.243 35.0528C141.94 35.2849 141.738 35.3982 141.517 35.4649C141.285 35.5346 140.995 35.5648 140.494 35.5677C139.983 35.5707 139.698 35.5447 139.471 35.4776C139.255 35.4136 139.057 35.3016 138.741 35.06L138.437 35.4571L138.741 35.06C138.194 34.6414 137.926 34.3397 137.737 33.805C137.529 33.2173 137.414 32.3396 137.28 30.734C136.534 21.7258 131.813 14.3683 123.864 9.81421C121.997 8.74485 118.361 7.46344 115.961 7.02295L115.871 7.51383L115.961 7.02295C114.992 6.84506 113.322 6.7599 111.692 6.75849C110.063 6.75708 108.405 6.83925 107.459 7.01597L107.459 7.01598C104.946 7.4858 102.228 8.37525 100.134 9.416C93.082 12.9222 87.7081 19.9449 86.2607 27.558L85.9756 29.057L85.9265 29.3153L86.1114 29.5021L100.357 43.8964C100.761 44.3044 101.153 44.7012 101.535 45.0872C108.365 51.9875 111.758 55.4153 113.4 57.3108C114.278 58.3234 114.597 58.8358 114.703 59.1636C114.783 59.4109 114.749 59.5476 114.658 59.9157C114.648 59.9558 114.638 59.9987 114.626 60.0448C114.143 62.0291 112.129 63.0652 110.348 62.319C110.341 62.3136 110.321 62.3 110.287 62.2733C110.226 62.2257 110.142 62.1555 110.033 62.0605C109.816 61.8711 109.516 61.5975 109.136 61.2415C108.377 60.5303 107.31 59.5017 105.966 58.1868C103.278 55.5577 99.4934 51.7914 94.8754 47.1468C88.8927 41.1296 85.1665 37.3535 82.9092 34.997C81.7798 33.818 81.0239 33.0003 80.5387 32.4377C80.2957 32.156 80.1265 31.9451 80.014 31.7889C79.9578 31.7111 79.9193 31.6517 79.8939 31.6078C79.8703 31.5669 79.8636 31.5489 79.8635 31.5489C79.7374 31.1485 79.6891 30.5239 79.7599 29.5969C79.83 28.6785 80.0133 27.5056 80.3176 26.0332Z" stroke="#191111"/>
</g>
<defs>
<filter id="filter0_d_49_133" x="0" y="0" width="148" height="98" filterUnits="userSpaceOnUse" color-interpolation-filters="sRGB">
<feFlood flood-opacity="0" result="BackgroundImageFix"/>
<feColorMatrix in="SourceAlpha" type="matrix" values="0 0 0 0 0 0 0 0 0 0 0 0 0 0 0 0 0 0 127 0" result="hardAlpha"/>
<feOffset dy="4"/>
<feGaussianBlur stdDeviation="2"/>
<feComposite in2="hardAlpha" operator="out"/>
<feColorMatrix type="matrix" values="0 0 0 0 0 0 0 0 0 0 0 0 0 0 0 0 0 0 0.25 0"/>
<feBlend mode="normal" in2="BackgroundImageFix" result="effect1_dropShadow_49_133"/>
<feBlend mode="normal" in="SourceGraphic" in2="effect1_dropShadow_49_133" result="shape"/>
</filter>
</defs>
</svg>
