<svg width="342" height="397" viewBox="0 0 342 397" fill="none" xmlns="http://www.w3.org/2000/svg">
<g filter="url(#filter0_d_92_535)">
<rect x="27.7838" y="55" width="287" height="306" rx="20" fill="white"/>
</g>
<path d="M69.424 249.8C69.5733 249.8 69.6907 249.848 69.776 249.944C69.8613 250.029 69.904 250.141 69.904 250.28L69.904 256.904C69.904 257.693 69.7173 258.408 69.344 259.048C68.9707 259.688 68.4693 260.2 67.84 260.584C67.2107 260.957 66.5013 261.144 65.712 261.144C64.9227 261.144 64.208 260.957 63.568 260.584C62.9387 260.2 62.4373 259.688 62.064 259.048C61.6907 258.408 61.504 257.693 61.504 256.904L61.504 250.28C61.504 250.141 61.5467 250.029 61.632 249.944C61.728 249.848 61.856 249.8 62.016 249.8C62.144 249.8 62.256 249.848 62.352 249.944C62.448 250.029 62.496 250.141 62.496 250.28L62.496 256.904C62.496 257.523 62.64 258.077 62.928 258.568C63.2267 259.059 63.6213 259.453 64.112 259.752C64.6027 260.04 65.136 260.184 65.712 260.184C66.3093 260.184 66.8533 260.04 67.344 259.752C67.8347 259.453 68.224 259.059 68.512 258.568C68.8107 258.077 68.96 257.523 68.96 256.904L68.96 250.28C68.96 250.141 69.0027 250.029 69.088 249.944C69.1733 249.848 69.2853 249.8 69.424 249.8ZM71.8223 252.856L75.5503 252.856C75.6783 252.856 75.7849 252.904 75.8703 253C75.9556 253.085 75.9983 253.192 75.9983 253.32C75.9983 253.437 75.9556 253.539 75.8703 253.624C75.7849 253.709 75.6783 253.752 75.5503 253.752L71.8223 253.752C71.6943 253.752 71.5823 253.709 71.4863 253.624C71.4009 253.528 71.3583 253.421 71.3583 253.304C71.3583 253.176 71.4009 253.069 71.4863 252.984C71.5823 252.899 71.6943 252.856 71.8223 252.856ZM73.4703 250.6C73.6089 250.6 73.7209 250.648 73.8063 250.744C73.9023 250.84 73.9503 250.952 73.9503 251.08L73.9503 259.112C73.9503 259.411 73.9876 259.635 74.0623 259.784C74.1476 259.933 74.2543 260.035 74.3823 260.088C74.5103 260.131 74.6383 260.152 74.7663 260.152C74.8516 260.152 74.9263 260.141 74.9903 260.12C75.0649 260.088 75.1449 260.072 75.2303 260.072C75.3263 260.072 75.4063 260.109 75.4703 260.184C75.5449 260.259 75.5823 260.355 75.5823 260.472C75.5823 260.621 75.4969 260.749 75.3263 260.856C75.1556 260.952 74.9529 261 74.7183 261C74.6223 261 74.4783 260.995 74.2863 260.984C74.0943 260.963 73.8969 260.904 73.6943 260.808C73.4916 260.701 73.3209 260.52 73.1823 260.264C73.0543 260.008 72.9903 259.64 72.9903 259.16L72.9903 251.08C72.9903 250.952 73.0329 250.84 73.1183 250.744C73.2143 250.648 73.3316 250.6 73.4703 250.6ZM78.3801 260.52C78.3801 260.648 78.3321 260.76 78.2361 260.856C78.1401 260.952 78.0281 261 77.9001 261C77.7615 261 77.6441 260.952 77.5481 260.856C77.4628 260.76 77.4201 260.648 77.4201 260.52L77.4201 253.16C77.4201 253.032 77.4628 252.92 77.5481 252.824C77.6441 252.728 77.7615 252.68 77.9001 252.68C78.0388 252.68 78.1508 252.728 78.2361 252.824C78.3321 252.92 78.3801 253.032 78.3801 253.16L78.3801 260.52ZM77.9001 251.608C77.6761 251.608 77.5055 251.56 77.3881 251.464C77.2815 251.357 77.2281 251.208 77.2281 251.016L77.2281 250.856C77.2281 250.664 77.2868 250.52 77.4041 250.424C77.5321 250.317 77.7028 250.264 77.9161 250.264C78.1188 250.264 78.2735 250.317 78.3801 250.424C78.4975 250.52 78.5561 250.664 78.5561 250.856L78.5561 251.016C78.5561 251.208 78.4975 251.357 78.3801 251.464C78.2735 251.56 78.1135 251.608 77.9001 251.608ZM81.61 260.52C81.61 260.648 81.562 260.76 81.466 260.856C81.37 260.952 81.258 261 81.13 261C80.9913 261 80.874 260.952 80.778 260.856C80.6927 260.76 80.65 260.648 80.65 260.52L80.65 249.64C80.65 249.512 80.698 249.4 80.794 249.304C80.89 249.208 81.002 249.16 81.13 249.16C81.2687 249.16 81.3807 249.208 81.466 249.304C81.562 249.4 81.61 249.512 81.61 249.64L81.61 260.52ZM84.8495 260.52C84.8495 260.648 84.8015 260.76 84.7055 260.856C84.6095 260.952 84.4975 261 84.3695 261C84.2308 261 84.1135 260.952 84.0175 260.856C83.9322 260.76 83.8895 260.648 83.8895 260.52L83.8895 253.16C83.8895 253.032 83.9322 252.92 84.0175 252.824C84.1135 252.728 84.2308 252.68 84.3695 252.68C84.5082 252.68 84.6202 252.728 84.7055 252.824C84.8015 252.92 84.8495 253.032 84.8495 253.16L84.8495 260.52ZM84.3695 251.608C84.1455 251.608 83.9748 251.56 83.8575 251.464C83.7508 251.357 83.6975 251.208 83.6975 251.016L83.6975 250.856C83.6975 250.664 83.7562 250.52 83.8735 250.424C84.0015 250.317 84.1722 250.264 84.3855 250.264C84.5882 250.264 84.7428 250.317 84.8495 250.424C84.9668 250.52 85.0255 250.664 85.0255 250.856L85.0255 251.016C85.0255 251.208 84.9668 251.357 84.8495 251.464C84.7428 251.56 84.5828 251.608 84.3695 251.608ZM92.1434 260.104C92.2714 260.104 92.378 260.152 92.4634 260.248C92.5594 260.333 92.6074 260.435 92.6074 260.552C92.6074 260.68 92.5594 260.787 92.4634 260.872C92.378 260.957 92.2714 261 92.1434 261L86.9434 261C86.8047 261 86.6927 260.947 86.6074 260.84C86.522 260.733 86.4794 260.632 86.4794 260.536C86.4794 260.472 86.49 260.413 86.5114 260.36C86.5327 260.296 86.57 260.232 86.6234 260.168L91.4714 253.464L91.5354 253.608L87.3434 253.608C87.2154 253.608 87.1034 253.565 87.0074 253.48C86.922 253.384 86.8794 253.277 86.8794 253.16C86.8794 253.032 86.922 252.925 87.0074 252.84C87.1034 252.755 87.2154 252.712 87.3434 252.712L92.2554 252.712C92.3727 252.712 92.474 252.76 92.5594 252.856C92.6554 252.952 92.7034 253.064 92.7034 253.192C92.7034 253.256 92.6927 253.315 92.6714 253.368C92.65 253.421 92.618 253.48 92.5754 253.544L87.7594 260.184L87.5674 260.104L92.1434 260.104ZM101.064 252.824C101.202 252.824 101.314 252.872 101.4 252.968C101.496 253.064 101.544 253.181 101.544 253.32L101.544 260.52C101.544 260.648 101.496 260.76 101.4 260.856C101.304 260.952 101.192 261 101.064 261C100.925 261 100.808 260.952 100.712 260.856C100.626 260.76 100.584 260.648 100.584 260.52L100.584 258.616L100.856 258.488C100.856 258.787 100.77 259.091 100.6 259.4C100.44 259.709 100.216 259.997 99.9276 260.264C99.6396 260.531 99.2983 260.749 98.9036 260.92C98.5196 261.08 98.1036 261.16 97.6556 261.16C96.9303 261.16 96.2796 260.973 95.7036 260.6C95.1383 260.227 94.6903 259.715 94.3596 259.064C94.0396 258.413 93.8796 257.683 93.8796 256.872C93.8796 256.04 94.045 255.309 94.3756 254.68C94.7063 254.04 95.1543 253.539 95.7196 253.176C96.285 252.813 96.925 252.632 97.6396 252.632C98.0983 252.632 98.525 252.712 98.9196 252.872C99.325 253.032 99.677 253.251 99.9756 253.528C100.274 253.805 100.504 254.125 100.664 254.488C100.834 254.84 100.92 255.208 100.92 255.592L100.584 255.352L100.584 253.32C100.584 253.181 100.626 253.064 100.712 252.968C100.808 252.872 100.925 252.824 101.064 252.824ZM97.7356 260.264C98.301 260.264 98.8023 260.12 99.2396 259.832C99.677 259.533 100.018 259.128 100.264 258.616C100.52 258.093 100.648 257.512 100.648 256.872C100.648 256.243 100.52 255.677 100.264 255.176C100.018 254.675 99.677 254.275 99.2396 253.976C98.8023 253.677 98.301 253.528 97.7356 253.528C97.181 253.528 96.6796 253.672 96.2316 253.96C95.7943 254.248 95.4476 254.643 95.1916 255.144C94.9463 255.645 94.8236 256.221 94.8236 256.872C94.8236 257.512 94.9463 258.093 95.1916 258.616C95.4476 259.128 95.7943 259.533 96.2316 259.832C96.669 260.12 97.1703 260.264 97.7356 260.264ZM107.343 252.632C107.855 252.632 108.324 252.691 108.751 252.808C109.177 252.915 109.519 253.064 109.775 253.256C110.041 253.448 110.175 253.656 110.175 253.88C110.175 253.987 110.137 254.093 110.063 254.2C109.988 254.296 109.887 254.344 109.759 254.344C109.631 254.344 109.524 254.312 109.439 254.248C109.364 254.184 109.284 254.109 109.199 254.024C109.124 253.939 109.012 253.859 108.863 253.784C108.724 253.72 108.527 253.661 108.271 253.608C108.015 253.555 107.721 253.528 107.391 253.528C106.793 253.528 106.255 253.677 105.775 253.976C105.295 254.275 104.916 254.68 104.639 255.192C104.361 255.693 104.223 256.259 104.223 256.888C104.223 257.528 104.356 258.104 104.623 258.616C104.889 259.128 105.257 259.533 105.727 259.832C106.196 260.12 106.745 260.264 107.375 260.264C107.801 260.264 108.132 260.227 108.367 260.152C108.601 260.077 108.804 259.992 108.975 259.896C109.177 259.779 109.321 259.667 109.407 259.56C109.503 259.443 109.625 259.384 109.775 259.384C109.913 259.384 110.015 259.427 110.079 259.512C110.153 259.587 110.191 259.688 110.191 259.816C110.191 259.987 110.063 260.179 109.807 260.392C109.561 260.595 109.22 260.776 108.783 260.936C108.345 261.085 107.844 261.16 107.279 261.16C106.479 261.16 105.775 260.973 105.167 260.6C104.569 260.227 104.1 259.72 103.759 259.08C103.428 258.429 103.263 257.699 103.263 256.888C103.263 256.109 103.433 255.4 103.775 254.76C104.116 254.12 104.591 253.608 105.199 253.224C105.817 252.829 106.532 252.632 107.343 252.632ZM106.303 263.288C106.228 263.288 106.137 263.267 106.031 263.224C105.924 263.181 105.828 263.123 105.743 263.048C105.657 262.973 105.615 262.888 105.615 262.792C105.615 262.675 105.652 262.579 105.727 262.504L107.119 260.76L107.743 260.76L106.719 262.984C106.623 263.187 106.484 263.288 106.303 263.288ZM118.408 252.824C118.547 252.824 118.659 252.872 118.744 252.968C118.84 253.064 118.888 253.181 118.888 253.32L118.888 260.52C118.888 260.648 118.84 260.76 118.744 260.856C118.648 260.952 118.536 261 118.408 261C118.269 261 118.152 260.952 118.056 260.856C117.971 260.76 117.928 260.648 117.928 260.52L117.928 258.616L118.2 258.488C118.2 258.787 118.115 259.091 117.944 259.4C117.784 259.709 117.56 259.997 117.272 260.264C116.984 260.531 116.643 260.749 116.248 260.92C115.864 261.08 115.448 261.16 115 261.16C114.275 261.16 113.624 260.973 113.048 260.6C112.483 260.227 112.035 259.715 111.704 259.064C111.384 258.413 111.224 257.683 111.224 256.872C111.224 256.04 111.389 255.309 111.72 254.68C112.051 254.04 112.499 253.539 113.064 253.176C113.629 252.813 114.269 252.632 114.984 252.632C115.443 252.632 115.869 252.712 116.264 252.872C116.669 253.032 117.021 253.251 117.32 253.528C117.619 253.805 117.848 254.125 118.008 254.488C118.179 254.84 118.264 255.208 118.264 255.592L117.928 255.352L117.928 253.32C117.928 253.181 117.971 253.064 118.056 252.968C118.152 252.872 118.269 252.824 118.408 252.824ZM115.08 260.264C115.645 260.264 116.147 260.12 116.584 259.832C117.021 259.533 117.363 259.128 117.608 258.616C117.864 258.093 117.992 257.512 117.992 256.872C117.992 256.243 117.864 255.677 117.608 255.176C117.363 254.675 117.021 254.275 116.584 253.976C116.147 253.677 115.645 253.528 115.08 253.528C114.525 253.528 114.024 253.672 113.576 253.96C113.139 254.248 112.792 254.643 112.536 255.144C112.291 255.645 112.168 256.221 112.168 256.872C112.168 257.512 112.291 258.093 112.536 258.616C112.792 259.128 113.139 259.533 113.576 259.832C114.013 260.12 114.515 260.264 115.08 260.264ZM113.112 251.688C112.941 251.688 112.829 251.629 112.776 251.512C112.733 251.395 112.728 251.224 112.76 251C112.824 250.648 112.989 250.381 113.256 250.2C113.523 250.008 113.837 249.912 114.2 249.912C114.392 249.912 114.584 249.96 114.776 250.056C114.979 250.152 115.176 250.259 115.368 250.376C115.56 250.493 115.736 250.6 115.896 250.696C116.067 250.792 116.221 250.84 116.36 250.84C116.509 250.84 116.627 250.787 116.712 250.68C116.808 250.573 116.861 250.424 116.872 250.232C116.861 250.115 116.893 250.019 116.968 249.944C117.043 249.869 117.133 249.832 117.24 249.832C117.421 249.832 117.539 249.896 117.592 250.024C117.645 250.141 117.661 250.301 117.64 250.504C117.597 250.739 117.512 250.941 117.384 251.112C117.267 251.283 117.112 251.416 116.92 251.512C116.728 251.597 116.504 251.64 116.248 251.64C116.088 251.64 115.907 251.597 115.704 251.512C115.512 251.416 115.32 251.309 115.128 251.192C114.936 251.075 114.749 250.973 114.568 250.888C114.397 250.792 114.237 250.744 114.088 250.744C113.949 250.744 113.827 250.792 113.72 250.888C113.613 250.973 113.533 251.123 113.48 251.336C113.491 251.443 113.453 251.528 113.368 251.592C113.293 251.656 113.208 251.688 113.112 251.688ZM128.703 256.904C128.703 257.715 128.527 258.445 128.175 259.096C127.823 259.736 127.343 260.243 126.735 260.616C126.127 260.979 125.434 261.16 124.655 261.16C123.898 261.16 123.21 260.979 122.591 260.616C121.983 260.243 121.498 259.736 121.135 259.096C120.783 258.445 120.607 257.715 120.607 256.904C120.607 256.083 120.783 255.352 121.135 254.712C121.498 254.072 121.983 253.565 122.591 253.192C123.21 252.819 123.898 252.632 124.655 252.632C125.434 252.632 126.127 252.819 126.735 253.192C127.343 253.565 127.823 254.072 128.175 254.712C128.527 255.352 128.703 256.083 128.703 256.904ZM127.743 256.904C127.743 256.253 127.61 255.677 127.343 255.176C127.076 254.664 126.708 254.264 126.239 253.976C125.78 253.677 125.252 253.528 124.655 253.528C124.079 253.528 123.556 253.677 123.087 253.976C122.618 254.264 122.244 254.664 121.967 255.176C121.7 255.677 121.567 256.253 121.567 256.904C121.567 257.555 121.7 258.131 121.967 258.632C122.244 259.133 122.618 259.533 123.087 259.832C123.556 260.12 124.079 260.264 124.655 260.264C125.252 260.264 125.78 260.12 126.239 259.832C126.708 259.533 127.076 259.133 127.343 258.632C127.61 258.131 127.743 257.555 127.743 256.904ZM141.182 249.16C141.321 249.16 141.433 249.208 141.518 249.304C141.614 249.389 141.662 249.501 141.662 249.64L141.662 260.52C141.662 260.648 141.614 260.76 141.518 260.856C141.422 260.952 141.31 261 141.182 261C141.044 261 140.926 260.952 140.83 260.856C140.745 260.76 140.702 260.648 140.702 260.52L140.702 258.616L140.974 258.392C140.974 258.691 140.894 259.005 140.734 259.336C140.574 259.656 140.345 259.955 140.046 260.232C139.758 260.509 139.417 260.733 139.022 260.904C138.638 261.075 138.222 261.16 137.774 261.16C137.06 261.16 136.414 260.973 135.838 260.6C135.273 260.227 134.825 259.72 134.494 259.08C134.164 258.44 133.998 257.709 133.998 256.888C133.998 256.077 134.164 255.352 134.494 254.712C134.825 254.061 135.273 253.555 135.838 253.192C136.404 252.819 137.044 252.632 137.758 252.632C138.196 252.632 138.612 252.712 139.006 252.872C139.401 253.032 139.748 253.251 140.046 253.528C140.356 253.805 140.596 254.125 140.766 254.488C140.948 254.84 141.038 255.208 141.038 255.592L140.702 255.352L140.702 249.64C140.702 249.512 140.745 249.4 140.83 249.304C140.926 249.208 141.044 249.16 141.182 249.16ZM137.854 260.264C138.43 260.264 138.932 260.12 139.358 259.832C139.796 259.533 140.137 259.133 140.382 258.632C140.638 258.12 140.766 257.539 140.766 256.888C140.766 256.248 140.638 255.677 140.382 255.176C140.137 254.664 139.796 254.264 139.358 253.976C138.921 253.677 138.42 253.528 137.854 253.528C137.3 253.528 136.798 253.677 136.35 253.976C135.913 254.264 135.566 254.664 135.31 255.176C135.065 255.677 134.942 256.248 134.942 256.888C134.942 257.528 135.065 258.104 135.31 258.616C135.566 259.128 135.913 259.533 136.35 259.832C136.798 260.12 137.3 260.264 137.854 260.264ZM151.478 256.904C151.478 257.715 151.302 258.445 150.95 259.096C150.598 259.736 150.118 260.243 149.51 260.616C148.902 260.979 148.208 261.16 147.43 261.16C146.672 261.16 145.984 260.979 145.366 260.616C144.758 260.243 144.272 259.736 143.91 259.096C143.558 258.445 143.382 257.715 143.382 256.904C143.382 256.083 143.558 255.352 143.91 254.712C144.272 254.072 144.758 253.565 145.366 253.192C145.984 252.819 146.672 252.632 147.43 252.632C148.208 252.632 148.902 252.819 149.51 253.192C150.118 253.565 150.598 254.072 150.95 254.712C151.302 255.352 151.478 256.083 151.478 256.904ZM150.518 256.904C150.518 256.253 150.384 255.677 150.118 255.176C149.851 254.664 149.483 254.264 149.014 253.976C148.555 253.677 148.027 253.528 147.43 253.528C146.854 253.528 146.331 253.677 145.862 253.976C145.392 254.264 145.019 254.664 144.742 255.176C144.475 255.677 144.342 256.253 144.342 256.904C144.342 257.555 144.475 258.131 144.742 258.632C145.019 259.133 145.392 259.533 145.862 259.832C146.331 260.12 146.854 260.264 147.43 260.264C148.027 260.264 148.555 260.12 149.014 259.832C149.483 259.533 149.851 259.133 150.118 258.632C150.384 258.131 150.518 257.555 150.518 256.904ZM160.213 249.224C160.373 249.224 160.543 249.24 160.725 249.272C160.917 249.304 161.082 249.363 161.221 249.448C161.359 249.523 161.429 249.64 161.429 249.8C161.429 249.917 161.386 250.024 161.301 250.12C161.215 250.205 161.119 250.248 161.013 250.248C160.906 250.248 160.773 250.221 160.613 250.168C160.453 250.104 160.282 250.072 160.101 250.072C159.877 250.072 159.685 250.125 159.525 250.232C159.365 250.328 159.242 250.472 159.157 250.664C159.071 250.845 159.029 251.069 159.029 251.336L159.029 260.52C159.029 260.648 158.981 260.76 158.885 260.856C158.799 260.952 158.687 261 158.549 261C158.41 261 158.293 260.952 158.197 260.856C158.111 260.76 158.069 260.648 158.069 260.52L158.069 251.336C158.069 250.653 158.266 250.131 158.661 249.768C159.066 249.405 159.583 249.224 160.213 249.224ZM160.821 252.984C160.949 252.984 161.055 253.027 161.141 253.112C161.226 253.197 161.269 253.304 161.269 253.432C161.269 253.56 161.226 253.667 161.141 253.752C161.055 253.837 160.949 253.88 160.821 253.88L156.901 253.88C156.783 253.88 156.677 253.837 156.581 253.752C156.495 253.656 156.453 253.549 156.453 253.432C156.453 253.293 156.495 253.187 156.581 253.112C156.677 253.027 156.783 252.984 156.901 252.984L160.821 252.984ZM163.178 261C163.029 261 162.912 260.952 162.826 260.856C162.741 260.76 162.698 260.648 162.698 260.52L162.698 253.352C162.698 253.224 162.741 253.112 162.826 253.016C162.922 252.92 163.04 252.872 163.178 252.872C163.317 252.872 163.429 252.92 163.514 253.016C163.61 253.112 163.658 253.224 163.658 253.352L163.658 255.752L163.418 255.8C163.45 255.427 163.541 255.059 163.69 254.696C163.85 254.323 164.064 253.981 164.33 253.672C164.597 253.363 164.912 253.112 165.274 252.92C165.648 252.728 166.064 252.632 166.522 252.632C166.714 252.632 166.901 252.675 167.082 252.76C167.264 252.835 167.354 252.963 167.354 253.144C167.354 253.304 167.312 253.427 167.226 253.512C167.141 253.597 167.04 253.64 166.922 253.64C166.826 253.64 166.72 253.613 166.602 253.56C166.496 253.507 166.352 253.48 166.17 253.48C165.872 253.48 165.573 253.571 165.274 253.752C164.976 253.923 164.704 254.157 164.458 254.456C164.213 254.755 164.016 255.091 163.866 255.464C163.728 255.827 163.658 256.195 163.658 256.568L163.658 260.52C163.658 260.648 163.61 260.76 163.514 260.856C163.418 260.952 163.306 261 163.178 261ZM175.051 252.824C175.19 252.824 175.302 252.872 175.387 252.968C175.483 253.064 175.531 253.181 175.531 253.32L175.531 260.52C175.531 260.648 175.483 260.76 175.387 260.856C175.291 260.952 175.179 261 175.051 261C174.912 261 174.795 260.952 174.699 260.856C174.614 260.76 174.571 260.648 174.571 260.52L174.571 258.616L174.843 258.488C174.843 258.787 174.758 259.091 174.587 259.4C174.427 259.709 174.203 259.997 173.915 260.264C173.627 260.531 173.286 260.749 172.891 260.92C172.507 261.08 172.091 261.16 171.643 261.16C170.918 261.16 170.267 260.973 169.691 260.6C169.126 260.227 168.678 259.715 168.347 259.064C168.027 258.413 167.867 257.683 167.867 256.872C167.867 256.04 168.032 255.309 168.363 254.68C168.694 254.04 169.142 253.539 169.707 253.176C170.272 252.813 170.912 252.632 171.627 252.632C172.086 252.632 172.512 252.712 172.907 252.872C173.312 253.032 173.664 253.251 173.963 253.528C174.262 253.805 174.491 254.125 174.651 254.488C174.822 254.84 174.907 255.208 174.907 255.592L174.571 255.352L174.571 253.32C174.571 253.181 174.614 253.064 174.699 252.968C174.795 252.872 174.912 252.824 175.051 252.824ZM171.723 260.264C172.288 260.264 172.79 260.12 173.227 259.832C173.664 259.533 174.006 259.128 174.251 258.616C174.507 258.093 174.635 257.512 174.635 256.872C174.635 256.243 174.507 255.677 174.251 255.176C174.006 254.675 173.664 254.275 173.227 253.976C172.79 253.677 172.288 253.528 171.723 253.528C171.168 253.528 170.667 253.672 170.219 253.96C169.782 254.248 169.435 254.643 169.179 255.144C168.934 255.645 168.811 256.221 168.811 256.872C168.811 257.512 168.934 258.093 169.179 258.616C169.435 259.128 169.782 259.533 170.219 259.832C170.656 260.12 171.158 260.264 171.723 260.264ZM181.41 252.76C182.072 252.76 182.637 252.936 183.106 253.288C183.576 253.629 183.896 254.141 184.066 254.824L183.842 254.888L183.938 254.6C184.077 254.28 184.306 253.981 184.626 253.704C184.957 253.416 185.33 253.187 185.746 253.016C186.162 252.845 186.584 252.76 187.01 252.76C187.682 252.76 188.221 252.904 188.626 253.192C189.042 253.48 189.341 253.869 189.522 254.36C189.714 254.84 189.81 255.384 189.81 255.992L189.81 260.52C189.81 260.648 189.762 260.76 189.666 260.856C189.581 260.952 189.469 261 189.33 261C189.192 261 189.074 260.952 188.978 260.856C188.893 260.76 188.85 260.648 188.85 260.52L188.85 256.04C188.85 255.603 188.781 255.203 188.642 254.84C188.504 254.477 188.285 254.189 187.986 253.976C187.688 253.763 187.288 253.656 186.786 253.656C186.349 253.656 185.928 253.763 185.522 253.976C185.128 254.189 184.802 254.477 184.546 254.84C184.301 255.203 184.178 255.603 184.178 256.04L184.178 260.52C184.178 260.648 184.13 260.76 184.034 260.856C183.949 260.952 183.837 261 183.698 261C183.56 261 183.442 260.952 183.346 260.856C183.261 260.76 183.218 260.648 183.218 260.52L183.218 255.992C183.218 255.555 183.154 255.16 183.026 254.808C182.898 254.456 182.69 254.179 182.402 253.976C182.114 253.763 181.725 253.656 181.234 253.656C180.797 253.656 180.381 253.763 179.986 253.976C179.602 254.179 179.288 254.456 179.042 254.808C178.808 255.16 178.69 255.555 178.69 255.992L178.69 260.52C178.69 260.648 178.642 260.76 178.546 260.856C178.45 260.952 178.338 261 178.21 261C178.061 261 177.944 260.952 177.858 260.856C177.773 260.76 177.73 260.648 177.73 260.52L177.73 253.352C177.73 253.224 177.773 253.112 177.858 253.016C177.954 252.92 178.072 252.872 178.21 252.872C178.349 252.872 178.461 252.92 178.546 253.016C178.642 253.112 178.69 253.224 178.69 253.352L178.69 254.84L178.258 255.432C178.29 255.112 178.392 254.792 178.562 254.472C178.744 254.152 178.978 253.864 179.266 253.608C179.554 253.352 179.88 253.149 180.242 253C180.616 252.84 181.005 252.76 181.41 252.76ZM195.7 261.16C194.879 261.16 194.153 260.984 193.524 260.632C192.895 260.28 192.404 259.789 192.052 259.16C191.7 258.531 191.524 257.795 191.524 256.952C191.524 256.045 191.7 255.272 192.052 254.632C192.415 253.992 192.879 253.501 193.444 253.16C194.02 252.808 194.628 252.632 195.268 252.632C195.737 252.632 196.191 252.717 196.628 252.888C197.076 253.048 197.471 253.293 197.812 253.624C198.164 253.944 198.441 254.339 198.644 254.808C198.857 255.277 198.975 255.821 198.996 256.44C198.985 256.568 198.932 256.68 198.836 256.776C198.74 256.861 198.628 256.904 198.5 256.904L192.084 256.904L191.892 256.04L198.196 256.04L197.988 256.232L197.988 255.912C197.945 255.411 197.785 254.984 197.508 254.632C197.231 254.28 196.895 254.013 196.5 253.832C196.105 253.651 195.695 253.56 195.268 253.56C194.948 253.56 194.617 253.624 194.276 253.752C193.945 253.88 193.641 254.083 193.364 254.36C193.097 254.627 192.879 254.973 192.708 255.4C192.537 255.816 192.452 256.312 192.452 256.888C192.452 257.517 192.58 258.088 192.836 258.6C193.092 259.112 193.46 259.517 193.94 259.816C194.431 260.115 195.012 260.264 195.684 260.264C196.057 260.264 196.393 260.211 196.692 260.104C196.991 259.997 197.252 259.859 197.476 259.688C197.7 259.507 197.887 259.32 198.036 259.128C198.153 259.032 198.271 258.984 198.388 258.984C198.495 258.984 198.585 259.027 198.66 259.112C198.745 259.197 198.788 259.293 198.788 259.4C198.788 259.528 198.735 259.64 198.628 259.736C198.308 260.12 197.892 260.456 197.38 260.744C196.868 261.021 196.308 261.16 195.7 261.16ZM210.443 252.648C210.56 252.648 210.667 252.691 210.763 252.776C210.87 252.861 210.923 252.979 210.923 253.128C210.923 253.16 210.918 253.197 210.907 253.24C210.896 253.283 210.886 253.315 210.875 253.336L208.411 260.696C208.368 260.792 208.299 260.872 208.203 260.936C208.118 260.989 208.027 261.011 207.931 261C207.739 260.989 207.595 260.888 207.499 260.696L205.243 255.384L205.531 255.448L203.531 260.696C203.446 260.888 203.302 260.989 203.099 261C203.003 261.011 202.907 260.989 202.811 260.936C202.715 260.872 202.651 260.792 202.619 260.696L200.091 253.336C200.059 253.261 200.043 253.192 200.043 253.128C200.043 252.989 200.086 252.877 200.171 252.792C200.267 252.696 200.39 252.648 200.539 252.648C200.635 252.648 200.72 252.675 200.795 252.728C200.88 252.781 200.939 252.861 200.971 252.968L203.243 259.784L202.939 259.768L205.003 254.568C205.088 254.365 205.238 254.264 205.451 254.264C205.558 254.264 205.648 254.291 205.723 254.344C205.798 254.397 205.856 254.472 205.899 254.568L208.091 259.784L207.739 259.8L209.995 252.968C210.059 252.755 210.208 252.648 210.443 252.648ZM220.058 256.904C220.058 257.715 219.882 258.445 219.53 259.096C219.178 259.736 218.698 260.243 218.09 260.616C217.482 260.979 216.789 261.16 216.01 261.16C215.253 261.16 214.565 260.979 213.946 260.616C213.338 260.243 212.853 259.736 212.49 259.096C212.138 258.445 211.962 257.715 211.962 256.904C211.962 256.083 212.138 255.352 212.49 254.712C212.853 254.072 213.338 253.565 213.946 253.192C214.565 252.819 215.253 252.632 216.01 252.632C216.789 252.632 217.482 252.819 218.09 253.192C218.698 253.565 219.178 254.072 219.53 254.712C219.882 255.352 220.058 256.083 220.058 256.904ZM219.098 256.904C219.098 256.253 218.965 255.677 218.698 255.176C218.431 254.664 218.063 254.264 217.594 253.976C217.135 253.677 216.607 253.528 216.01 253.528C215.434 253.528 214.911 253.677 214.442 253.976C213.973 254.264 213.599 254.664 213.322 255.176C213.055 255.677 212.922 256.253 212.922 256.904C212.922 257.555 213.055 258.131 213.322 258.632C213.599 259.133 213.973 259.533 214.442 259.832C214.911 260.12 215.434 260.264 216.01 260.264C216.607 260.264 217.135 260.12 217.594 259.832C218.063 259.533 218.431 259.133 218.698 258.632C218.965 258.131 219.098 257.555 219.098 256.904ZM222.258 261C222.109 261 221.992 260.952 221.906 260.856C221.821 260.76 221.778 260.648 221.778 260.52L221.778 253.352C221.778 253.224 221.821 253.112 221.906 253.016C222.002 252.92 222.12 252.872 222.258 252.872C222.397 252.872 222.509 252.92 222.594 253.016C222.69 253.112 222.738 253.224 222.738 253.352L222.738 255.752L222.498 255.8C222.53 255.427 222.621 255.059 222.77 254.696C222.93 254.323 223.144 253.981 223.41 253.672C223.677 253.363 223.992 253.112 224.354 252.92C224.728 252.728 225.144 252.632 225.602 252.632C225.794 252.632 225.981 252.675 226.162 252.76C226.344 252.835 226.434 252.963 226.434 253.144C226.434 253.304 226.392 253.427 226.306 253.512C226.221 253.597 226.12 253.64 226.002 253.64C225.906 253.64 225.8 253.613 225.682 253.56C225.576 253.507 225.432 253.48 225.25 253.48C224.952 253.48 224.653 253.571 224.354 253.752C224.056 253.923 223.784 254.157 223.538 254.456C223.293 254.755 223.096 255.091 222.946 255.464C222.808 255.827 222.738 256.195 222.738 256.568L222.738 260.52C222.738 260.648 222.69 260.76 222.594 260.856C222.498 260.952 222.386 261 222.258 261ZM228.191 261C228.052 261 227.935 260.952 227.839 260.856C227.753 260.76 227.711 260.648 227.711 260.52L227.711 249.64C227.711 249.512 227.753 249.4 227.839 249.304C227.935 249.208 228.052 249.16 228.191 249.16C228.329 249.16 228.441 249.208 228.527 249.304C228.623 249.4 228.671 249.512 228.671 249.64L228.671 260.52C228.671 260.648 228.623 260.76 228.527 260.856C228.441 260.952 228.329 261 228.191 261ZM233.631 252.792C233.748 252.792 233.855 252.845 233.951 252.952C234.047 253.048 234.095 253.155 234.095 253.272C234.095 253.411 234.036 253.533 233.919 253.64L228.543 258.216L228.495 257.08L233.295 252.952C233.391 252.845 233.503 252.792 233.631 252.792ZM233.759 261C233.62 261 233.503 260.941 233.407 260.824L229.759 256.952L230.479 256.296L234.095 260.152C234.191 260.259 234.239 260.381 234.239 260.52C234.239 260.669 234.18 260.787 234.063 260.872C233.945 260.957 233.844 261 233.759 261ZM243.8 252.76C244.525 252.76 245.165 252.941 245.72 253.304C246.285 253.656 246.733 254.147 247.064 254.776C247.395 255.395 247.56 256.109 247.56 256.92C247.56 257.731 247.395 258.451 247.064 259.08C246.733 259.709 246.285 260.205 245.72 260.568C245.155 260.931 244.52 261.112 243.816 261.112C243.443 261.112 243.085 261.059 242.744 260.952C242.413 260.835 242.109 260.68 241.832 260.488C241.555 260.296 241.309 260.072 241.096 259.816C240.883 259.549 240.712 259.261 240.584 258.952L240.872 258.744L240.872 263.72C240.872 263.848 240.824 263.96 240.728 264.056C240.643 264.152 240.531 264.2 240.392 264.2C240.253 264.2 240.136 264.152 240.04 264.056C239.955 263.96 239.912 263.848 239.912 263.72L239.912 253.288C239.912 253.149 239.955 253.032 240.04 252.936C240.125 252.84 240.243 252.792 240.392 252.792C240.531 252.792 240.643 252.84 240.728 252.936C240.824 253.032 240.872 253.149 240.872 253.288L240.872 255.016L240.648 254.888C240.755 254.557 240.909 254.264 241.112 254.008C241.325 253.741 241.571 253.517 241.848 253.336C242.125 253.144 242.429 253 242.76 252.904C243.091 252.808 243.437 252.76 243.8 252.76ZM243.72 253.656C243.144 253.656 242.637 253.8 242.2 254.088C241.763 254.365 241.416 254.749 241.16 255.24C240.915 255.72 240.792 256.28 240.792 256.92C240.792 257.549 240.915 258.115 241.16 258.616C241.416 259.117 241.763 259.512 242.2 259.8C242.637 260.077 243.144 260.216 243.72 260.216C244.285 260.216 244.781 260.077 245.208 259.8C245.645 259.512 245.992 259.117 246.248 258.616C246.504 258.115 246.632 257.549 246.632 256.92C246.632 256.291 246.504 255.731 246.248 255.24C245.992 254.749 245.645 254.365 245.208 254.088C244.781 253.8 244.285 253.656 243.72 253.656ZM255.999 252.824C256.138 252.824 256.25 252.872 256.335 252.968C256.431 253.064 256.479 253.181 256.479 253.32L256.479 260.52C256.479 260.648 256.431 260.76 256.335 260.856C256.239 260.952 256.127 261 255.999 261C255.861 261 255.743 260.952 255.647 260.856C255.562 260.76 255.519 260.648 255.519 260.52L255.519 258.616L255.791 258.488C255.791 258.787 255.706 259.091 255.535 259.4C255.375 259.709 255.151 259.997 254.863 260.264C254.575 260.531 254.234 260.749 253.839 260.92C253.455 261.08 253.039 261.16 252.591 261.16C251.866 261.16 251.215 260.973 250.639 260.6C250.074 260.227 249.626 259.715 249.295 259.064C248.975 258.413 248.815 257.683 248.815 256.872C248.815 256.04 248.981 255.309 249.311 254.68C249.642 254.04 250.09 253.539 250.655 253.176C251.221 252.813 251.861 252.632 252.575 252.632C253.034 252.632 253.461 252.712 253.855 252.872C254.261 253.032 254.613 253.251 254.911 253.528C255.21 253.805 255.439 254.125 255.599 254.488C255.77 254.84 255.855 255.208 255.855 255.592L255.519 255.352L255.519 253.32C255.519 253.181 255.562 253.064 255.647 252.968C255.743 252.872 255.861 252.824 255.999 252.824ZM252.671 260.264C253.237 260.264 253.738 260.12 254.175 259.832C254.613 259.533 254.954 259.128 255.199 258.616C255.455 258.093 255.583 257.512 255.583 256.872C255.583 256.243 255.455 255.677 255.199 255.176C254.954 254.675 254.613 254.275 254.175 253.976C253.738 253.677 253.237 253.528 252.671 253.528C252.117 253.528 251.615 253.672 251.167 253.96C250.73 254.248 250.383 254.643 250.127 255.144C249.882 255.645 249.759 256.221 249.759 256.872C249.759 257.512 249.882 258.093 250.127 258.616C250.383 259.128 250.73 259.533 251.167 259.832C251.605 260.12 252.106 260.264 252.671 260.264ZM259.158 261C259.009 261 258.892 260.952 258.806 260.856C258.721 260.76 258.678 260.648 258.678 260.52L258.678 253.352C258.678 253.224 258.721 253.112 258.806 253.016C258.902 252.92 259.02 252.872 259.158 252.872C259.297 252.872 259.409 252.92 259.494 253.016C259.59 253.112 259.638 253.224 259.638 253.352L259.638 255.752L259.398 255.8C259.43 255.427 259.521 255.059 259.67 254.696C259.83 254.323 260.044 253.981 260.31 253.672C260.577 253.363 260.892 253.112 261.254 252.92C261.628 252.728 262.044 252.632 262.502 252.632C262.694 252.632 262.881 252.675 263.062 252.76C263.244 252.835 263.334 252.963 263.334 253.144C263.334 253.304 263.292 253.427 263.206 253.512C263.121 253.597 263.02 253.64 262.902 253.64C262.806 253.64 262.7 253.613 262.582 253.56C262.476 253.507 262.332 253.48 262.15 253.48C261.852 253.48 261.553 253.571 261.254 253.752C260.956 253.923 260.684 254.157 260.438 254.456C260.193 254.755 259.996 255.091 259.846 255.464C259.708 255.827 259.638 256.195 259.638 256.568L259.638 260.52C259.638 260.648 259.59 260.76 259.494 260.856C259.398 260.952 259.286 261 259.158 261ZM271.031 252.824C271.17 252.824 271.282 252.872 271.367 252.968C271.463 253.064 271.511 253.181 271.511 253.32L271.511 260.52C271.511 260.648 271.463 260.76 271.367 260.856C271.271 260.952 271.159 261 271.031 261C270.892 261 270.775 260.952 270.679 260.856C270.594 260.76 270.551 260.648 270.551 260.52L270.551 258.616L270.823 258.488C270.823 258.787 270.738 259.091 270.567 259.4C270.407 259.709 270.183 259.997 269.895 260.264C269.607 260.531 269.266 260.749 268.871 260.92C268.487 261.08 268.071 261.16 267.623 261.16C266.898 261.16 266.247 260.973 265.671 260.6C265.106 260.227 264.658 259.715 264.327 259.064C264.007 258.413 263.847 257.683 263.847 256.872C263.847 256.04 264.012 255.309 264.343 254.68C264.674 254.04 265.122 253.539 265.687 253.176C266.252 252.813 266.892 252.632 267.607 252.632C268.066 252.632 268.492 252.712 268.887 252.872C269.292 253.032 269.644 253.251 269.943 253.528C270.242 253.805 270.471 254.125 270.631 254.488C270.802 254.84 270.887 255.208 270.887 255.592L270.551 255.352L270.551 253.32C270.551 253.181 270.594 253.064 270.679 252.968C270.775 252.872 270.892 252.824 271.031 252.824ZM267.703 260.264C268.268 260.264 268.77 260.12 269.207 259.832C269.644 259.533 269.986 259.128 270.231 258.616C270.487 258.093 270.615 257.512 270.615 256.872C270.615 256.243 270.487 255.677 270.231 255.176C269.986 254.675 269.644 254.275 269.207 253.976C268.77 253.677 268.268 253.528 267.703 253.528C267.148 253.528 266.647 253.672 266.199 253.96C265.762 254.248 265.415 254.643 265.159 255.144C264.914 255.645 264.791 256.221 264.791 256.872C264.791 257.512 264.914 258.093 265.159 258.616C265.415 259.128 265.762 259.533 266.199 259.832C266.636 260.12 267.138 260.264 267.703 260.264ZM68.88 276.904C68.88 277.715 68.704 278.445 68.352 279.096C68 279.736 67.52 280.243 66.912 280.616C66.304 280.979 65.6107 281.16 64.832 281.16C64.0747 281.16 63.3867 280.979 62.768 280.616C62.16 280.243 61.6747 279.736 61.312 279.096C60.96 278.445 60.784 277.715 60.784 276.904C60.784 276.083 60.96 275.352 61.312 274.712C61.6747 274.072 62.16 273.565 62.768 273.192C63.3867 272.819 64.0747 272.632 64.832 272.632C65.6107 272.632 66.304 272.819 66.912 273.192C67.52 273.565 68 274.072 68.352 274.712C68.704 275.352 68.88 276.083 68.88 276.904ZM67.92 276.904C67.92 276.253 67.7867 275.677 67.52 275.176C67.2533 274.664 66.8853 274.264 66.416 273.976C65.9573 273.677 65.4293 273.528 64.832 273.528C64.256 273.528 63.7333 273.677 63.264 273.976C62.7947 274.264 62.4213 274.664 62.144 275.176C61.8773 275.677 61.744 276.253 61.744 276.904C61.744 277.555 61.8773 278.131 62.144 278.632C62.4213 279.133 62.7947 279.533 63.264 279.832C63.7333 280.12 64.256 280.264 64.832 280.264C65.4293 280.264 65.9573 280.12 66.416 279.832C66.8853 279.533 67.2533 279.133 67.52 278.632C67.7867 278.131 67.92 277.555 67.92 276.904ZM81.3593 269.16C81.4979 269.16 81.6099 269.208 81.6953 269.304C81.7912 269.389 81.8392 269.501 81.8392 269.64L81.8392 280.52C81.8392 280.648 81.7912 280.76 81.6953 280.856C81.5993 280.952 81.4873 281 81.3593 281C81.2206 281 81.1032 280.952 81.0072 280.856C80.9219 280.76 80.8793 280.648 80.8793 280.52L80.8793 278.616L81.1512 278.392C81.1512 278.691 81.0712 279.005 80.9113 279.336C80.7512 279.656 80.5219 279.955 80.2232 280.232C79.9352 280.509 79.5939 280.733 79.1992 280.904C78.8152 281.075 78.3993 281.16 77.9513 281.16C77.2366 281.16 76.5912 280.973 76.0152 280.6C75.4499 280.227 75.0019 279.72 74.6712 279.08C74.3406 278.44 74.1752 277.709 74.1752 276.888C74.1752 276.077 74.3406 275.352 74.6712 274.712C75.0019 274.061 75.4499 273.555 76.0152 273.192C76.5806 272.819 77.2206 272.632 77.9352 272.632C78.3726 272.632 78.7886 272.712 79.1832 272.872C79.5779 273.032 79.9246 273.251 80.2232 273.528C80.5326 273.805 80.7726 274.125 80.9433 274.488C81.1246 274.84 81.2153 275.208 81.2153 275.592L80.8793 275.352L80.8793 269.64C80.8793 269.512 80.9219 269.4 81.0072 269.304C81.1032 269.208 81.2206 269.16 81.3593 269.16ZM78.0312 280.264C78.6072 280.264 79.1086 280.12 79.5352 279.832C79.9726 279.533 80.3139 279.133 80.5592 278.632C80.8153 278.12 80.9433 277.539 80.9433 276.888C80.9433 276.248 80.8153 275.677 80.5592 275.176C80.3139 274.664 79.9726 274.264 79.5352 273.976C79.0979 273.677 78.5966 273.528 78.0312 273.528C77.4766 273.528 76.9752 273.677 76.5272 273.976C76.0899 274.264 75.7432 274.664 75.4872 275.176C75.2419 275.677 75.1192 276.248 75.1192 276.888C75.1192 277.528 75.2419 278.104 75.4872 278.616C75.7432 279.128 76.0899 279.533 76.5272 279.832C76.9752 280.12 77.4766 280.264 78.0312 280.264ZM87.7344 281.16C86.913 281.16 86.1877 280.984 85.5584 280.632C84.929 280.28 84.4384 279.789 84.0864 279.16C83.7344 278.531 83.5584 277.795 83.5584 276.952C83.5584 276.045 83.7344 275.272 84.0864 274.632C84.449 273.992 84.913 273.501 85.4784 273.16C86.0544 272.808 86.6624 272.632 87.3024 272.632C87.7717 272.632 88.225 272.717 88.6624 272.888C89.1104 273.048 89.505 273.293 89.8464 273.624C90.1984 273.944 90.4757 274.339 90.6784 274.808C90.8917 275.277 91.009 275.821 91.0304 276.44C91.0197 276.568 90.9664 276.68 90.8704 276.776C90.7744 276.861 90.6624 276.904 90.5344 276.904L84.1184 276.904L83.9264 276.04L90.2304 276.04L90.0224 276.232L90.0224 275.912C89.9797 275.411 89.8197 274.984 89.5424 274.632C89.265 274.28 88.929 274.013 88.5344 273.832C88.1397 273.651 87.729 273.56 87.3024 273.56C86.9824 273.56 86.6517 273.624 86.3104 273.752C85.9797 273.88 85.6757 274.083 85.3984 274.36C85.1317 274.627 84.913 274.973 84.7424 275.4C84.5717 275.816 84.4864 276.312 84.4864 276.888C84.4864 277.517 84.6144 278.088 84.8704 278.6C85.1264 279.112 85.4944 279.517 85.9744 279.816C86.465 280.115 87.0464 280.264 87.7184 280.264C88.0917 280.264 88.4277 280.211 88.7264 280.104C89.025 279.997 89.2864 279.859 89.5104 279.688C89.7344 279.507 89.921 279.32 90.0704 279.128C90.1877 279.032 90.305 278.984 90.4224 278.984C90.529 278.984 90.6197 279.027 90.6944 279.112C90.7797 279.197 90.8224 279.293 90.8224 279.4C90.8224 279.528 90.769 279.64 90.6624 279.736C90.3424 280.12 89.9264 280.456 89.4144 280.744C88.9024 281.021 88.3424 281.16 87.7344 281.16ZM92.3012 279.704C92.2159 279.576 92.1732 279.453 92.1732 279.336C92.1839 279.208 92.2532 279.107 92.3812 279.032C92.4666 278.957 92.5626 278.925 92.6692 278.936C92.7866 278.947 92.8932 279 92.9892 279.096C93.2772 279.469 93.6239 279.773 94.0292 280.008C94.4452 280.232 94.9359 280.344 95.5012 280.344C95.7999 280.344 96.0932 280.296 96.3812 280.2C96.6799 280.093 96.9252 279.939 97.1172 279.736C97.3092 279.523 97.4052 279.256 97.4052 278.936C97.4052 278.605 97.3092 278.339 97.1172 278.136C96.9252 277.933 96.6746 277.773 96.3652 277.656C96.0666 277.539 95.7466 277.437 95.4052 277.352C95.0426 277.256 94.6906 277.149 94.3492 277.032C94.0079 276.904 93.7039 276.749 93.4372 276.568C93.1812 276.376 92.9732 276.147 92.8132 275.88C92.6532 275.613 92.5732 275.288 92.5732 274.904C92.5732 274.456 92.6959 274.061 92.9412 273.72C93.1866 273.379 93.5172 273.112 93.9332 272.92C94.3599 272.728 94.8399 272.632 95.3732 272.632C95.6399 272.632 95.9279 272.669 96.2372 272.744C96.5466 272.808 96.8506 272.92 97.1492 273.08C97.4479 273.24 97.7146 273.459 97.9492 273.736C98.0452 273.832 98.0932 273.944 98.0932 274.072C98.0932 274.189 98.0399 274.296 97.9332 274.392C97.8479 274.456 97.7466 274.488 97.6292 274.488C97.5226 274.488 97.4319 274.445 97.3572 274.36C97.1012 274.072 96.7972 273.853 96.4452 273.704C96.0932 273.555 95.7146 273.48 95.3092 273.48C94.9999 273.48 94.7066 273.533 94.4292 273.64C94.1626 273.736 93.9386 273.885 93.7572 274.088C93.5759 274.291 93.4852 274.557 93.4852 274.888C93.5066 275.197 93.6132 275.448 93.8052 275.64C94.0079 275.832 94.2692 275.992 94.5892 276.12C94.9199 276.248 95.2879 276.365 95.6932 276.472C96.0346 276.557 96.3599 276.659 96.6692 276.776C96.9892 276.893 97.2666 277.043 97.5012 277.224C97.7466 277.395 97.9386 277.613 98.0772 277.88C98.2266 278.147 98.3012 278.483 98.3012 278.888C98.3012 279.357 98.1679 279.763 97.9012 280.104C97.6452 280.445 97.2986 280.707 96.8612 280.888C96.4239 281.069 95.9386 281.16 95.4052 281.16C94.8292 281.16 94.2692 281.048 93.7252 280.824C93.1919 280.6 92.7172 280.227 92.3012 279.704ZM103.641 281.16C102.82 281.16 102.095 280.984 101.465 280.632C100.836 280.28 100.345 279.789 99.9933 279.16C99.6413 278.531 99.4653 277.795 99.4653 276.952C99.4653 276.045 99.6413 275.272 99.9933 274.632C100.356 273.992 100.82 273.501 101.385 273.16C101.961 272.808 102.569 272.632 103.209 272.632C103.679 272.632 104.132 272.717 104.569 272.888C105.017 273.048 105.412 273.293 105.753 273.624C106.105 273.944 106.383 274.339 106.585 274.808C106.799 275.277 106.916 275.821 106.937 276.44C106.927 276.568 106.873 276.68 106.777 276.776C106.681 276.861 106.569 276.904 106.441 276.904L100.025 276.904L99.8333 276.04L106.137 276.04L105.929 276.232L105.929 275.912C105.887 275.411 105.727 274.984 105.449 274.632C105.172 274.28 104.836 274.013 104.441 273.832C104.047 273.651 103.636 273.56 103.209 273.56C102.889 273.56 102.559 273.624 102.217 273.752C101.887 273.88 101.583 274.083 101.305 274.36C101.039 274.627 100.82 274.973 100.649 275.4C100.479 275.816 100.393 276.312 100.393 276.888C100.393 277.517 100.521 278.088 100.777 278.6C101.033 279.112 101.401 279.517 101.881 279.816C102.372 280.115 102.953 280.264 103.625 280.264C103.999 280.264 104.335 280.211 104.633 280.104C104.932 279.997 105.193 279.859 105.417 279.688C105.641 279.507 105.828 279.32 105.977 279.128C106.095 279.032 106.212 278.984 106.329 278.984C106.436 278.984 106.527 279.027 106.601 279.112C106.687 279.197 106.729 279.293 106.729 279.4C106.729 279.528 106.676 279.64 106.569 279.736C106.249 280.12 105.833 280.456 105.321 280.744C104.809 281.021 104.249 281.16 103.641 281.16ZM112.528 272.632C113.232 272.632 113.792 272.776 114.208 273.064C114.635 273.341 114.939 273.725 115.12 274.216C115.312 274.696 115.408 275.229 115.408 275.816L115.408 280.52C115.408 280.648 115.36 280.76 115.264 280.856C115.168 280.952 115.056 281 114.928 281C114.779 281 114.661 280.952 114.576 280.856C114.491 280.76 114.448 280.648 114.448 280.52L114.448 275.864C114.448 275.437 114.379 275.048 114.24 274.696C114.101 274.344 113.872 274.061 113.552 273.848C113.243 273.635 112.832 273.528 112.32 273.528C111.861 273.528 111.424 273.635 111.008 273.848C110.603 274.061 110.272 274.344 110.016 274.696C109.76 275.048 109.632 275.437 109.632 275.864L109.632 280.52C109.632 280.648 109.584 280.76 109.488 280.856C109.392 280.952 109.28 281 109.152 281C109.003 281 108.885 280.952 108.8 280.856C108.715 280.76 108.672 280.648 108.672 280.52L108.672 273.352C108.672 273.224 108.715 273.112 108.8 273.016C108.896 272.92 109.013 272.872 109.152 272.872C109.291 272.872 109.403 272.92 109.488 273.016C109.584 273.112 109.632 273.224 109.632 273.352L109.632 274.696L109.264 275.272C109.285 274.931 109.392 274.605 109.584 274.296C109.787 273.976 110.043 273.693 110.352 273.448C110.661 273.192 111.003 272.995 111.376 272.856C111.76 272.707 112.144 272.632 112.528 272.632ZM117.332 272.648C117.417 272.648 117.503 272.675 117.588 272.728C117.673 272.781 117.737 272.861 117.78 272.968L120.58 279.624L120.372 279.752L123.236 272.968C123.321 272.755 123.476 272.653 123.7 272.664C123.807 272.664 123.908 272.701 124.004 272.776C124.1 272.84 124.148 272.936 124.148 273.064C124.148 273.128 124.137 273.181 124.116 273.224C124.105 273.256 124.095 273.293 124.084 273.336L120.948 280.696C120.863 280.888 120.719 280.989 120.516 281C120.42 281.011 120.324 280.989 120.228 280.936C120.143 280.872 120.079 280.792 120.036 280.696L116.884 273.336C116.873 273.315 116.863 273.283 116.852 273.24C116.841 273.197 116.836 273.155 116.836 273.112C116.836 272.995 116.879 272.888 116.964 272.792C117.049 272.696 117.172 272.648 117.332 272.648ZM133.211 276.904C133.211 277.715 133.035 278.445 132.683 279.096C132.331 279.736 131.851 280.243 131.243 280.616C130.635 280.979 129.941 281.16 129.163 281.16C128.405 281.16 127.717 280.979 127.099 280.616C126.491 280.243 126.005 279.736 125.643 279.096C125.291 278.445 125.115 277.715 125.115 276.904C125.115 276.083 125.291 275.352 125.643 274.712C126.005 274.072 126.491 273.565 127.099 273.192C127.717 272.819 128.405 272.632 129.163 272.632C129.941 272.632 130.635 272.819 131.243 273.192C131.851 273.565 132.331 274.072 132.683 274.712C133.035 275.352 133.211 276.083 133.211 276.904ZM132.251 276.904C132.251 276.253 132.117 275.677 131.851 275.176C131.584 274.664 131.216 274.264 130.747 273.976C130.288 273.677 129.76 273.528 129.163 273.528C128.587 273.528 128.064 273.677 127.595 273.976C127.125 274.264 126.752 274.664 126.475 275.176C126.208 275.677 126.075 276.253 126.075 276.904C126.075 277.555 126.208 278.131 126.475 278.632C126.752 279.133 127.125 279.533 127.595 279.832C128.064 280.12 128.587 280.264 129.163 280.264C129.76 280.264 130.288 280.12 130.747 279.832C131.216 279.533 131.584 279.133 131.851 278.632C132.117 278.131 132.251 277.555 132.251 276.904ZM135.987 280.52C135.987 280.648 135.939 280.76 135.843 280.856C135.747 280.952 135.635 281 135.507 281C135.368 281 135.251 280.952 135.155 280.856C135.07 280.76 135.027 280.648 135.027 280.52L135.027 269.64C135.027 269.512 135.075 269.4 135.171 269.304C135.267 269.208 135.379 269.16 135.507 269.16C135.646 269.16 135.758 269.208 135.843 269.304C135.939 269.4 135.987 269.512 135.987 269.64L135.987 280.52ZM137.7 272.648C137.785 272.648 137.871 272.675 137.956 272.728C138.041 272.781 138.105 272.861 138.148 272.968L140.948 279.624L140.74 279.752L143.604 272.968C143.689 272.755 143.844 272.653 144.068 272.664C144.175 272.664 144.276 272.701 144.372 272.776C144.468 272.84 144.516 272.936 144.516 273.064C144.516 273.128 144.505 273.181 144.484 273.224C144.473 273.256 144.463 273.293 144.452 273.336L141.316 280.696C141.231 280.888 141.087 280.989 140.884 281C140.788 281.011 140.692 280.989 140.596 280.936C140.511 280.872 140.447 280.792 140.404 280.696L137.252 273.336C137.241 273.315 137.231 273.283 137.22 273.24C137.209 273.197 137.204 273.155 137.204 273.112C137.204 272.995 137.247 272.888 137.332 272.792C137.417 272.696 137.54 272.648 137.7 272.648ZM146.969 280.52C146.969 280.648 146.921 280.76 146.825 280.856C146.729 280.952 146.617 281 146.489 281C146.35 281 146.233 280.952 146.137 280.856C146.052 280.76 146.009 280.648 146.009 280.52L146.009 273.16C146.009 273.032 146.052 272.92 146.137 272.824C146.233 272.728 146.35 272.68 146.489 272.68C146.628 272.68 146.74 272.728 146.825 272.824C146.921 272.92 146.969 273.032 146.969 273.16L146.969 280.52ZM146.489 271.608C146.265 271.608 146.094 271.56 145.977 271.464C145.87 271.357 145.817 271.208 145.817 271.016L145.817 270.856C145.817 270.664 145.876 270.52 145.993 270.424C146.121 270.317 146.292 270.264 146.505 270.264C146.708 270.264 146.862 270.317 146.969 270.424C147.086 270.52 147.145 270.664 147.145 270.856L147.145 271.016C147.145 271.208 147.086 271.357 146.969 271.464C146.862 271.56 146.702 271.608 146.489 271.608ZM152.823 272.76C153.484 272.76 154.049 272.936 154.519 273.288C154.988 273.629 155.308 274.141 155.479 274.824L155.255 274.888L155.351 274.6C155.489 274.28 155.719 273.981 156.039 273.704C156.369 273.416 156.743 273.187 157.159 273.016C157.575 272.845 157.996 272.76 158.423 272.76C159.095 272.76 159.633 272.904 160.039 273.192C160.455 273.48 160.753 273.869 160.935 274.36C161.127 274.84 161.223 275.384 161.223 275.992L161.223 280.52C161.223 280.648 161.175 280.76 161.079 280.856C160.993 280.952 160.881 281 160.743 281C160.604 281 160.487 280.952 160.391 280.856C160.305 280.76 160.263 280.648 160.263 280.52L160.263 276.04C160.263 275.603 160.193 275.203 160.055 274.84C159.916 274.477 159.697 274.189 159.399 273.976C159.1 273.763 158.7 273.656 158.199 273.656C157.761 273.656 157.34 273.763 156.935 273.976C156.54 274.189 156.215 274.477 155.959 274.84C155.713 275.203 155.591 275.603 155.591 276.04L155.591 280.52C155.591 280.648 155.543 280.76 155.447 280.856C155.361 280.952 155.249 281 155.111 281C154.972 281 154.855 280.952 154.759 280.856C154.673 280.76 154.631 280.648 154.631 280.52L154.631 275.992C154.631 275.555 154.567 275.16 154.439 274.808C154.311 274.456 154.103 274.179 153.815 273.976C153.527 273.763 153.137 273.656 152.647 273.656C152.209 273.656 151.793 273.763 151.399 273.976C151.015 274.179 150.7 274.456 150.455 274.808C150.22 275.16 150.103 275.555 150.103 275.992L150.103 280.52C150.103 280.648 150.055 280.76 149.959 280.856C149.863 280.952 149.751 281 149.623 281C149.473 281 149.356 280.952 149.271 280.856C149.185 280.76 149.143 280.648 149.143 280.52L149.143 273.352C149.143 273.224 149.185 273.112 149.271 273.016C149.367 272.92 149.484 272.872 149.623 272.872C149.761 272.872 149.873 272.92 149.959 273.016C150.055 273.112 150.103 273.224 150.103 273.352L150.103 274.84L149.671 275.432C149.703 275.112 149.804 274.792 149.975 274.472C150.156 274.152 150.391 273.864 150.679 273.608C150.967 273.352 151.292 273.149 151.655 273C152.028 272.84 152.417 272.76 152.823 272.76ZM167.112 281.16C166.291 281.16 165.566 280.984 164.936 280.632C164.307 280.28 163.816 279.789 163.464 279.16C163.112 278.531 162.936 277.795 162.936 276.952C162.936 276.045 163.112 275.272 163.464 274.632C163.827 273.992 164.291 273.501 164.856 273.16C165.432 272.808 166.04 272.632 166.68 272.632C167.15 272.632 167.603 272.717 168.04 272.888C168.488 273.048 168.883 273.293 169.224 273.624C169.576 273.944 169.854 274.339 170.056 274.808C170.27 275.277 170.387 275.821 170.408 276.44C170.398 276.568 170.344 276.68 170.248 276.776C170.152 276.861 170.04 276.904 169.912 276.904L163.496 276.904L163.304 276.04L169.608 276.04L169.4 276.232L169.4 275.912C169.358 275.411 169.198 274.984 168.92 274.632C168.643 274.28 168.307 274.013 167.912 273.832C167.518 273.651 167.107 273.56 166.68 273.56C166.36 273.56 166.03 273.624 165.688 273.752C165.358 273.88 165.054 274.083 164.776 274.36C164.51 274.627 164.291 274.973 164.12 275.4C163.95 275.816 163.864 276.312 163.864 276.888C163.864 277.517 163.992 278.088 164.248 278.6C164.504 279.112 164.872 279.517 165.352 279.816C165.843 280.115 166.424 280.264 167.096 280.264C167.47 280.264 167.806 280.211 168.104 280.104C168.403 279.997 168.664 279.859 168.888 279.688C169.112 279.507 169.299 279.32 169.448 279.128C169.566 279.032 169.683 278.984 169.8 278.984C169.907 278.984 169.998 279.027 170.072 279.112C170.158 279.197 170.2 279.293 170.2 279.4C170.2 279.528 170.147 279.64 170.04 279.736C169.72 280.12 169.304 280.456 168.792 280.744C168.28 281.021 167.72 281.16 167.112 281.16ZM175.999 272.632C176.703 272.632 177.263 272.776 177.679 273.064C178.106 273.341 178.41 273.725 178.591 274.216C178.783 274.696 178.879 275.229 178.879 275.816L178.879 280.52C178.879 280.648 178.831 280.76 178.735 280.856C178.639 280.952 178.527 281 178.399 281C178.25 281 178.133 280.952 178.047 280.856C177.962 280.76 177.919 280.648 177.919 280.52L177.919 275.864C177.919 275.437 177.85 275.048 177.711 274.696C177.573 274.344 177.343 274.061 177.023 273.848C176.714 273.635 176.303 273.528 175.791 273.528C175.333 273.528 174.895 273.635 174.479 273.848C174.074 274.061 173.743 274.344 173.487 274.696C173.231 275.048 173.103 275.437 173.103 275.864L173.103 280.52C173.103 280.648 173.055 280.76 172.959 280.856C172.863 280.952 172.751 281 172.623 281C172.474 281 172.357 280.952 172.271 280.856C172.186 280.76 172.143 280.648 172.143 280.52L172.143 273.352C172.143 273.224 172.186 273.112 172.271 273.016C172.367 272.92 172.485 272.872 172.623 272.872C172.762 272.872 172.874 272.92 172.959 273.016C173.055 273.112 173.103 273.224 173.103 273.352L173.103 274.696L172.735 275.272C172.757 274.931 172.863 274.605 173.055 274.296C173.258 273.976 173.514 273.693 173.823 273.448C174.133 273.192 174.474 272.995 174.847 272.856C175.231 272.707 175.615 272.632 175.999 272.632ZM180.545 272.856L184.273 272.856C184.401 272.856 184.508 272.904 184.593 273C184.679 273.085 184.721 273.192 184.721 273.32C184.721 273.437 184.679 273.539 184.593 273.624C184.508 273.709 184.401 273.752 184.273 273.752L180.545 273.752C180.417 273.752 180.305 273.709 180.209 273.624C180.124 273.528 180.081 273.421 180.081 273.304C180.081 273.176 180.124 273.069 180.209 272.984C180.305 272.899 180.417 272.856 180.545 272.856ZM182.193 270.6C182.332 270.6 182.444 270.648 182.529 270.744C182.625 270.84 182.673 270.952 182.673 271.08L182.673 279.112C182.673 279.411 182.711 279.635 182.785 279.784C182.871 279.933 182.977 280.035 183.105 280.088C183.233 280.131 183.361 280.152 183.489 280.152C183.575 280.152 183.649 280.141 183.713 280.12C183.788 280.088 183.868 280.072 183.953 280.072C184.049 280.072 184.129 280.109 184.193 280.184C184.268 280.259 184.305 280.355 184.305 280.472C184.305 280.621 184.22 280.749 184.049 280.856C183.879 280.952 183.676 281 183.441 281C183.345 281 183.201 280.995 183.009 280.984C182.817 280.963 182.62 280.904 182.417 280.808C182.215 280.701 182.044 280.52 181.905 280.264C181.777 280.008 181.713 279.64 181.713 279.16L181.713 271.08C181.713 270.952 181.756 270.84 181.841 270.744C181.937 270.648 182.055 270.6 182.193 270.6ZM193.713 276.904C193.713 277.715 193.537 278.445 193.185 279.096C192.833 279.736 192.353 280.243 191.745 280.616C191.137 280.979 190.444 281.16 189.665 281.16C188.908 281.16 188.22 280.979 187.601 280.616C186.993 280.243 186.508 279.736 186.145 279.096C185.793 278.445 185.617 277.715 185.617 276.904C185.617 276.083 185.793 275.352 186.145 274.712C186.508 274.072 186.993 273.565 187.601 273.192C188.22 272.819 188.908 272.632 189.665 272.632C190.444 272.632 191.137 272.819 191.745 273.192C192.353 273.565 192.833 274.072 193.185 274.712C193.537 275.352 193.713 276.083 193.713 276.904ZM192.753 276.904C192.753 276.253 192.62 275.677 192.353 275.176C192.086 274.664 191.718 274.264 191.249 273.976C190.79 273.677 190.262 273.528 189.665 273.528C189.089 273.528 188.566 273.677 188.097 273.976C187.628 274.264 187.254 274.664 186.977 275.176C186.71 275.677 186.577 276.253 186.577 276.904C186.577 277.555 186.71 278.131 186.977 278.632C187.254 279.133 187.628 279.533 188.097 279.832C188.566 280.12 189.089 280.264 189.665 280.264C190.262 280.264 190.79 280.12 191.249 279.832C191.718 279.533 192.086 279.133 192.353 278.632C192.62 278.131 192.753 277.555 192.753 276.904ZM209.2 272.648C209.318 272.648 209.424 272.691 209.52 272.776C209.627 272.861 209.68 272.979 209.68 273.128C209.68 273.16 209.675 273.197 209.664 273.24C209.654 273.283 209.643 273.315 209.632 273.336L207.168 280.696C207.126 280.792 207.056 280.872 206.96 280.936C206.875 280.989 206.784 281.011 206.688 281C206.496 280.989 206.352 280.888 206.256 280.696L204 275.384L204.288 275.448L202.288 280.696C202.203 280.888 202.059 280.989 201.856 281C201.76 281.011 201.664 280.989 201.568 280.936C201.472 280.872 201.408 280.792 201.376 280.696L198.848 273.336C198.816 273.261 198.8 273.192 198.8 273.128C198.8 272.989 198.843 272.877 198.928 272.792C199.024 272.696 199.147 272.648 199.296 272.648C199.392 272.648 199.478 272.675 199.552 272.728C199.638 272.781 199.696 272.861 199.728 272.968L202 279.784L201.696 279.768L203.76 274.568C203.846 274.365 203.995 274.264 204.208 274.264C204.315 274.264 204.406 274.291 204.48 274.344C204.555 274.397 204.614 274.472 204.656 274.568L206.848 279.784L206.496 279.8L208.752 272.968C208.816 272.755 208.966 272.648 209.2 272.648ZM214.896 281.16C214.074 281.16 213.349 280.984 212.72 280.632C212.09 280.28 211.6 279.789 211.248 279.16C210.896 278.531 210.72 277.795 210.72 276.952C210.72 276.045 210.896 275.272 211.248 274.632C211.61 273.992 212.074 273.501 212.64 273.16C213.216 272.808 213.824 272.632 214.464 272.632C214.933 272.632 215.386 272.717 215.824 272.888C216.272 273.048 216.666 273.293 217.008 273.624C217.36 273.944 217.637 274.339 217.84 274.808C218.053 275.277 218.17 275.821 218.192 276.44C218.181 276.568 218.128 276.68 218.032 276.776C217.936 276.861 217.824 276.904 217.696 276.904L211.28 276.904L211.088 276.04L217.392 276.04L217.184 276.232L217.184 275.912C217.141 275.411 216.981 274.984 216.704 274.632C216.426 274.28 216.09 274.013 215.696 273.832C215.301 273.651 214.89 273.56 214.464 273.56C214.144 273.56 213.813 273.624 213.472 273.752C213.141 273.88 212.837 274.083 212.56 274.36C212.293 274.627 212.074 274.973 211.904 275.4C211.733 275.816 211.648 276.312 211.648 276.888C211.648 277.517 211.776 278.088 212.032 278.6C212.288 279.112 212.656 279.517 213.136 279.816C213.626 280.115 214.208 280.264 214.88 280.264C215.253 280.264 215.589 280.211 215.888 280.104C216.186 279.997 216.448 279.859 216.672 279.688C216.896 279.507 217.082 279.32 217.232 279.128C217.349 279.032 217.466 278.984 217.584 278.984C217.69 278.984 217.781 279.027 217.856 279.112C217.941 279.197 217.984 279.293 217.984 279.4C217.984 279.528 217.93 279.64 217.824 279.736C217.504 280.12 217.088 280.456 216.576 280.744C216.064 281.021 215.504 281.16 214.896 281.16ZM223.815 272.632C224.54 272.632 225.18 272.813 225.735 273.176C226.3 273.539 226.748 274.04 227.079 274.68C227.409 275.309 227.575 276.04 227.575 276.872C227.575 277.683 227.409 278.413 227.079 279.064C226.748 279.715 226.3 280.227 225.735 280.6C225.169 280.973 224.535 281.16 223.831 281.16C223.457 281.16 223.1 281.101 222.759 280.984C222.428 280.867 222.124 280.712 221.847 280.52C221.569 280.317 221.324 280.083 221.111 279.816C220.897 279.549 220.727 279.261 220.599 278.952L220.887 278.744L220.887 280.552C220.887 280.691 220.839 280.808 220.743 280.904C220.657 280.989 220.545 281.032 220.407 281.032C220.268 281.032 220.151 280.989 220.055 280.904C219.969 280.808 219.927 280.691 219.927 280.552L219.927 269.656C219.927 269.517 219.969 269.405 220.055 269.32C220.14 269.224 220.257 269.176 220.407 269.176C220.545 269.176 220.657 269.224 220.743 269.32C220.839 269.405 220.887 269.517 220.887 269.656L220.887 275.016L220.663 274.888C220.769 274.557 220.924 274.259 221.127 273.992C221.34 273.715 221.585 273.475 221.863 273.272C222.14 273.069 222.444 272.915 222.775 272.808C223.105 272.691 223.452 272.632 223.815 272.632ZM223.735 273.528C223.159 273.528 222.652 273.672 222.215 273.96C221.777 274.248 221.431 274.643 221.175 275.144C220.929 275.645 220.807 276.221 220.807 276.872C220.807 277.512 220.929 278.093 221.175 278.616C221.431 279.128 221.777 279.533 222.215 279.832C222.652 280.12 223.159 280.264 223.735 280.264C224.3 280.264 224.796 280.115 225.223 279.816C225.66 279.517 226.007 279.112 226.263 278.6C226.519 278.077 226.647 277.501 226.647 276.872C226.647 276.221 226.519 275.645 226.263 275.144C226.007 274.643 225.66 274.248 225.223 273.96C224.796 273.672 224.3 273.528 223.735 273.528ZM237.061 281.16C236.239 281.16 235.514 280.984 234.885 280.632C234.255 280.28 233.765 279.789 233.413 279.16C233.061 278.531 232.885 277.795 232.885 276.952C232.885 276.045 233.061 275.272 233.413 274.632C233.775 273.992 234.239 273.501 234.805 273.16C235.381 272.808 235.989 272.632 236.629 272.632C237.098 272.632 237.551 272.717 237.989 272.888C238.437 273.048 238.831 273.293 239.173 273.624C239.525 273.944 239.802 274.339 240.005 274.808C240.218 275.277 240.335 275.821 240.357 276.44C240.346 276.568 240.293 276.68 240.197 276.776C240.101 276.861 239.989 276.904 239.861 276.904L233.445 276.904L233.253 276.04L239.557 276.04L239.349 276.232L239.349 275.912C239.306 275.411 239.146 274.984 238.869 274.632C238.591 274.28 238.255 274.013 237.861 273.832C237.466 273.651 237.055 273.56 236.629 273.56C236.309 273.56 235.978 273.624 235.637 273.752C235.306 273.88 235.002 274.083 234.725 274.36C234.458 274.627 234.239 274.973 234.069 275.4C233.898 275.816 233.813 276.312 233.813 276.888C233.813 277.517 233.941 278.088 234.197 278.6C234.453 279.112 234.821 279.517 235.301 279.816C235.791 280.115 236.373 280.264 237.045 280.264C237.418 280.264 237.754 280.211 238.053 280.104C238.351 279.997 238.613 279.859 238.837 279.688C239.061 279.507 239.247 279.32 239.397 279.128C239.514 279.032 239.631 278.984 239.749 278.984C239.855 278.984 239.946 279.027 240.021 279.112C240.106 279.197 240.149 279.293 240.149 279.4C240.149 279.528 240.095 279.64 239.989 279.736C239.669 280.12 239.253 280.456 238.741 280.744C238.229 281.021 237.669 281.16 237.061 281.16ZM61.744 301C61.5947 301 61.4773 300.952 61.392 300.856C61.3067 300.76 61.264 300.648 61.264 300.52L61.264 293.352C61.264 293.224 61.3067 293.112 61.392 293.016C61.488 292.92 61.6053 292.872 61.744 292.872C61.8827 292.872 61.9947 292.92 62.08 293.016C62.176 293.112 62.224 293.224 62.224 293.352L62.224 295.752L61.984 295.8C62.016 295.427 62.1067 295.059 62.256 294.696C62.416 294.323 62.6293 293.981 62.896 293.672C63.1627 293.363 63.4773 293.112 63.84 292.92C64.2133 292.728 64.6293 292.632 65.088 292.632C65.28 292.632 65.4667 292.675 65.648 292.76C65.8293 292.835 65.92 292.963 65.92 293.144C65.92 293.304 65.8773 293.427 65.792 293.512C65.7067 293.597 65.6053 293.64 65.488 293.64C65.392 293.64 65.2853 293.613 65.168 293.56C65.0613 293.507 64.9173 293.48 64.736 293.48C64.4373 293.48 64.1387 293.571 63.84 293.752C63.5413 293.923 63.2693 294.157 63.024 294.456C62.7787 294.755 62.5813 295.091 62.432 295.464C62.2933 295.827 62.224 296.195 62.224 296.568L62.224 300.52C62.224 300.648 62.176 300.76 62.08 300.856C61.984 300.952 61.872 301 61.744 301ZM70.4369 301.16C69.6155 301.16 68.8902 300.984 68.2609 300.632C67.6315 300.28 67.1409 299.789 66.7889 299.16C66.4369 298.531 66.2609 297.795 66.2609 296.952C66.2609 296.045 66.4369 295.272 66.7889 294.632C67.1515 293.992 67.6155 293.501 68.1809 293.16C68.7569 292.808 69.3649 292.632 70.0049 292.632C70.4742 292.632 70.9275 292.717 71.3649 292.888C71.8129 293.048 72.2075 293.293 72.5489 293.624C72.9009 293.944 73.1782 294.339 73.3809 294.808C73.5942 295.277 73.7115 295.821 73.7329 296.44C73.7222 296.568 73.6689 296.68 73.5729 296.776C73.4769 296.861 73.3649 296.904 73.2369 296.904L66.8209 296.904L66.6289 296.04L72.9329 296.04L72.7249 296.232L72.7249 295.912C72.6822 295.411 72.5222 294.984 72.2449 294.632C71.9675 294.28 71.6315 294.013 71.2369 293.832C70.8422 293.651 70.4315 293.56 70.0049 293.56C69.6849 293.56 69.3542 293.624 69.0129 293.752C68.6822 293.88 68.3782 294.083 68.1009 294.36C67.8342 294.627 67.6155 294.973 67.4449 295.4C67.2742 295.816 67.1889 296.312 67.1889 296.888C67.1889 297.517 67.3169 298.088 67.5729 298.6C67.8289 299.112 68.1969 299.517 68.6769 299.816C69.1675 300.115 69.7489 300.264 70.4209 300.264C70.7942 300.264 71.1302 300.211 71.4289 300.104C71.7275 299.997 71.9889 299.859 72.2129 299.688C72.4369 299.507 72.6235 299.32 72.7729 299.128C72.8902 299.032 73.0075 298.984 73.1249 298.984C73.2315 298.984 73.3222 299.027 73.3969 299.112C73.4822 299.197 73.5249 299.293 73.5249 299.4C73.5249 299.528 73.4715 299.64 73.3649 299.736C73.0449 300.12 72.6289 300.456 72.1169 300.744C71.6049 301.021 71.0449 301.16 70.4369 301.16ZM75.0037 299.704C74.9184 299.576 74.8757 299.453 74.8757 299.336C74.8864 299.208 74.9557 299.107 75.0837 299.032C75.1691 298.957 75.2651 298.925 75.3717 298.936C75.4891 298.947 75.5957 299 75.6917 299.096C75.9797 299.469 76.3264 299.773 76.7317 300.008C77.1477 300.232 77.6384 300.344 78.2037 300.344C78.5024 300.344 78.7957 300.296 79.0837 300.2C79.3824 300.093 79.6277 299.939 79.8197 299.736C80.0117 299.523 80.1077 299.256 80.1077 298.936C80.1077 298.605 80.0117 298.339 79.8197 298.136C79.6277 297.933 79.3771 297.773 79.0677 297.656C78.7691 297.539 78.4491 297.437 78.1077 297.352C77.7451 297.256 77.3931 297.149 77.0517 297.032C76.7104 296.904 76.4064 296.749 76.1397 296.568C75.8837 296.376 75.6757 296.147 75.5157 295.88C75.3557 295.613 75.2757 295.288 75.2757 294.904C75.2757 294.456 75.3984 294.061 75.6437 293.72C75.8891 293.379 76.2197 293.112 76.6357 292.92C77.0624 292.728 77.5424 292.632 78.0757 292.632C78.3424 292.632 78.6304 292.669 78.9397 292.744C79.2491 292.808 79.5531 292.92 79.8517 293.08C80.1504 293.24 80.4171 293.459 80.6518 293.736C80.7478 293.832 80.7958 293.944 80.7958 294.072C80.7958 294.189 80.7424 294.296 80.6357 294.392C80.5504 294.456 80.4491 294.488 80.3317 294.488C80.2251 294.488 80.1344 294.445 80.0598 294.36C79.8037 294.072 79.4997 293.853 79.1477 293.704C78.7957 293.555 78.4171 293.48 78.0117 293.48C77.7024 293.48 77.4091 293.533 77.1317 293.64C76.8651 293.736 76.6411 293.885 76.4597 294.088C76.2784 294.291 76.1877 294.557 76.1877 294.888C76.2091 295.197 76.3157 295.448 76.5077 295.64C76.7104 295.832 76.9717 295.992 77.2917 296.12C77.6224 296.248 77.9904 296.365 78.3958 296.472C78.7371 296.557 79.0624 296.659 79.3717 296.776C79.6917 296.893 79.9691 297.043 80.2038 297.224C80.4491 297.395 80.6411 297.613 80.7797 297.88C80.9291 298.147 81.0037 298.483 81.0037 298.888C81.0037 299.357 80.8704 299.763 80.6037 300.104C80.3477 300.445 80.0011 300.707 79.5637 300.888C79.1264 301.069 78.6411 301.16 78.1077 301.16C77.5317 301.16 76.9717 301.048 76.4277 300.824C75.8944 300.6 75.4197 300.227 75.0037 299.704ZM86.5358 292.76C87.2611 292.76 87.9011 292.941 88.4558 293.304C89.0211 293.656 89.4691 294.147 89.7998 294.776C90.1304 295.395 90.2958 296.109 90.2958 296.92C90.2958 297.731 90.1304 298.451 89.7998 299.08C89.4691 299.709 89.0211 300.205 88.4558 300.568C87.8904 300.931 87.2558 301.112 86.5518 301.112C86.1784 301.112 85.8211 301.059 85.4798 300.952C85.1491 300.835 84.8451 300.68 84.5678 300.488C84.2904 300.296 84.0451 300.072 83.8318 299.816C83.6184 299.549 83.4478 299.261 83.3198 298.952L83.6078 298.744L83.6078 303.72C83.6078 303.848 83.5598 303.96 83.4638 304.056C83.3784 304.152 83.2664 304.2 83.1278 304.2C82.9891 304.2 82.8718 304.152 82.7758 304.056C82.6904 303.96 82.6478 303.848 82.6478 303.72L82.6478 293.288C82.6478 293.149 82.6904 293.032 82.7758 292.936C82.8611 292.84 82.9784 292.792 83.1278 292.792C83.2664 292.792 83.3784 292.84 83.4638 292.936C83.5598 293.032 83.6078 293.149 83.6078 293.288L83.6078 295.016L83.3838 294.888C83.4904 294.557 83.6451 294.264 83.8478 294.008C84.0611 293.741 84.3064 293.517 84.5838 293.336C84.8611 293.144 85.1651 293 85.4958 292.904C85.8264 292.808 86.1731 292.76 86.5358 292.76ZM86.4558 293.656C85.8798 293.656 85.3731 293.8 84.9358 294.088C84.4984 294.365 84.1518 294.749 83.8958 295.24C83.6504 295.72 83.5278 296.28 83.5278 296.92C83.5278 297.549 83.6504 298.115 83.8958 298.616C84.1518 299.117 84.4984 299.512 84.9358 299.8C85.3731 300.077 85.8798 300.216 86.4558 300.216C87.0211 300.216 87.5171 300.077 87.9438 299.8C88.3811 299.512 88.7278 299.117 88.9838 298.616C89.2398 298.115 89.3678 297.549 89.3678 296.92C89.3678 296.291 89.2398 295.731 88.9838 295.24C88.7278 294.749 88.3811 294.365 87.9438 294.088C87.5171 293.8 87.0211 293.656 86.4558 293.656ZM99.6469 296.904C99.6469 297.715 99.4709 298.445 99.1189 299.096C98.7669 299.736 98.2869 300.243 97.6789 300.616C97.0709 300.979 96.3775 301.16 95.5989 301.16C94.8415 301.16 94.1535 300.979 93.5349 300.616C92.9269 300.243 92.4415 299.736 92.0789 299.096C91.7269 298.445 91.5509 297.715 91.5509 296.904C91.5509 296.083 91.7269 295.352 92.0789 294.712C92.4415 294.072 92.9269 293.565 93.5349 293.192C94.1535 292.819 94.8415 292.632 95.5989 292.632C96.3775 292.632 97.0709 292.819 97.6789 293.192C98.2869 293.565 98.7669 294.072 99.1189 294.712C99.4709 295.352 99.6469 296.083 99.6469 296.904ZM98.6869 296.904C98.6869 296.253 98.5535 295.677 98.2869 295.176C98.0202 294.664 97.6522 294.264 97.1829 293.976C96.7242 293.677 96.1962 293.528 95.5989 293.528C95.0229 293.528 94.5002 293.677 94.0309 293.976C93.5615 294.264 93.1882 294.664 92.9109 295.176C92.6442 295.677 92.5109 296.253 92.5109 296.904C92.5109 297.555 92.6442 298.131 92.9109 298.632C93.1882 299.133 93.5615 299.533 94.0309 299.832C94.5002 300.12 95.0229 300.264 95.5989 300.264C96.1962 300.264 96.7242 300.12 97.1829 299.832C97.6522 299.533 98.0202 299.133 98.2869 298.632C98.5535 298.131 98.6869 297.555 98.6869 296.904ZM105.223 292.632C105.927 292.632 106.487 292.776 106.903 293.064C107.33 293.341 107.634 293.725 107.815 294.216C108.007 294.696 108.103 295.229 108.103 295.816L108.103 300.52C108.103 300.648 108.055 300.76 107.959 300.856C107.863 300.952 107.751 301 107.623 301C107.474 301 107.356 300.952 107.271 300.856C107.186 300.76 107.143 300.648 107.143 300.52L107.143 295.864C107.143 295.437 107.074 295.048 106.935 294.696C106.796 294.344 106.567 294.061 106.247 293.848C105.938 293.635 105.527 293.528 105.015 293.528C104.556 293.528 104.119 293.635 103.703 293.848C103.298 294.061 102.967 294.344 102.711 294.696C102.455 295.048 102.327 295.437 102.327 295.864L102.327 300.52C102.327 300.648 102.279 300.76 102.183 300.856C102.087 300.952 101.975 301 101.847 301C101.698 301 101.58 300.952 101.495 300.856C101.41 300.76 101.367 300.648 101.367 300.52L101.367 293.352C101.367 293.224 101.41 293.112 101.495 293.016C101.591 292.92 101.708 292.872 101.847 292.872C101.986 292.872 102.098 292.92 102.183 293.016C102.279 293.112 102.327 293.224 102.327 293.352L102.327 294.696L101.959 295.272C101.98 294.931 102.087 294.605 102.279 294.296C102.482 293.976 102.738 293.693 103.047 293.448C103.356 293.192 103.698 292.995 104.071 292.856C104.455 292.707 104.839 292.632 105.223 292.632ZM109.833 299.704C109.748 299.576 109.705 299.453 109.705 299.336C109.716 299.208 109.785 299.107 109.913 299.032C109.998 298.957 110.094 298.925 110.201 298.936C110.318 298.947 110.425 299 110.521 299.096C110.809 299.469 111.156 299.773 111.561 300.008C111.977 300.232 112.468 300.344 113.033 300.344C113.332 300.344 113.625 300.296 113.913 300.2C114.212 300.093 114.457 299.939 114.649 299.736C114.841 299.523 114.937 299.256 114.937 298.936C114.937 298.605 114.841 298.339 114.649 298.136C114.457 297.933 114.206 297.773 113.897 297.656C113.598 297.539 113.278 297.437 112.937 297.352C112.574 297.256 112.222 297.149 111.881 297.032C111.54 296.904 111.236 296.749 110.969 296.568C110.713 296.376 110.505 296.147 110.345 295.88C110.185 295.613 110.105 295.288 110.105 294.904C110.105 294.456 110.228 294.061 110.473 293.72C110.718 293.379 111.049 293.112 111.465 292.92C111.892 292.728 112.372 292.632 112.905 292.632C113.172 292.632 113.46 292.669 113.769 292.744C114.078 292.808 114.382 292.92 114.681 293.08C114.98 293.24 115.246 293.459 115.481 293.736C115.577 293.832 115.625 293.944 115.625 294.072C115.625 294.189 115.572 294.296 115.465 294.392C115.38 294.456 115.278 294.488 115.161 294.488C115.054 294.488 114.964 294.445 114.889 294.36C114.633 294.072 114.329 293.853 113.977 293.704C113.625 293.555 113.246 293.48 112.841 293.48C112.532 293.48 112.238 293.533 111.961 293.64C111.694 293.736 111.47 293.885 111.289 294.088C111.108 294.291 111.017 294.557 111.017 294.888C111.038 295.197 111.145 295.448 111.337 295.64C111.54 295.832 111.801 295.992 112.121 296.12C112.452 296.248 112.82 296.365 113.225 296.472C113.566 296.557 113.892 296.659 114.201 296.776C114.521 296.893 114.798 297.043 115.033 297.224C115.278 297.395 115.47 297.613 115.609 297.88C115.758 298.147 115.833 298.483 115.833 298.888C115.833 299.357 115.7 299.763 115.433 300.104C115.177 300.445 114.83 300.707 114.393 300.888C113.956 301.069 113.47 301.16 112.937 301.16C112.361 301.16 111.801 301.048 111.257 300.824C110.724 300.6 110.249 300.227 109.833 299.704ZM118.405 300.52C118.405 300.648 118.357 300.76 118.261 300.856C118.165 300.952 118.053 301 117.925 301C117.786 301 117.669 300.952 117.573 300.856C117.488 300.76 117.445 300.648 117.445 300.52L117.445 293.16C117.445 293.032 117.488 292.92 117.573 292.824C117.669 292.728 117.786 292.68 117.925 292.68C118.064 292.68 118.176 292.728 118.261 292.824C118.357 292.92 118.405 293.032 118.405 293.16L118.405 300.52ZM117.925 291.608C117.701 291.608 117.53 291.56 117.413 291.464C117.306 291.357 117.253 291.208 117.253 291.016L117.253 290.856C117.253 290.664 117.312 290.52 117.429 290.424C117.557 290.317 117.728 290.264 117.941 290.264C118.144 290.264 118.298 290.317 118.405 290.424C118.522 290.52 118.581 290.664 118.581 290.856L118.581 291.016C118.581 291.208 118.522 291.357 118.405 291.464C118.298 291.56 118.138 291.608 117.925 291.608ZM120.387 292.648C120.472 292.648 120.558 292.675 120.643 292.728C120.728 292.781 120.792 292.861 120.835 292.968L123.635 299.624L123.427 299.752L126.291 292.968C126.376 292.755 126.531 292.653 126.755 292.664C126.862 292.664 126.963 292.701 127.059 292.776C127.155 292.84 127.203 292.936 127.203 293.064C127.203 293.128 127.192 293.181 127.171 293.224C127.16 293.256 127.15 293.293 127.139 293.336L124.003 300.696C123.918 300.888 123.774 300.989 123.571 301C123.475 301.011 123.379 300.989 123.283 300.936C123.198 300.872 123.134 300.792 123.091 300.696L119.939 293.336C119.928 293.315 119.918 293.283 119.907 293.24C119.896 293.197 119.891 293.155 119.891 293.112C119.891 292.995 119.934 292.888 120.019 292.792C120.104 292.696 120.227 292.648 120.387 292.648ZM129.656 300.52C129.656 300.648 129.608 300.76 129.512 300.856C129.416 300.952 129.304 301 129.176 301C129.037 301 128.92 300.952 128.824 300.856C128.738 300.76 128.696 300.648 128.696 300.52L128.696 293.16C128.696 293.032 128.738 292.92 128.824 292.824C128.92 292.728 129.037 292.68 129.176 292.68C129.314 292.68 129.426 292.728 129.512 292.824C129.608 292.92 129.656 293.032 129.656 293.16L129.656 300.52ZM129.176 291.608C128.952 291.608 128.781 291.56 128.664 291.464C128.557 291.357 128.504 291.208 128.504 291.016L128.504 290.856C128.504 290.664 128.562 290.52 128.68 290.424C128.808 290.317 128.978 290.264 129.192 290.264C129.394 290.264 129.549 290.317 129.656 290.424C129.773 290.52 129.832 290.664 129.832 290.856L129.832 291.016C129.832 291.208 129.773 291.357 129.656 291.464C129.549 291.56 129.389 291.608 129.176 291.608ZM138.534 289.16C138.672 289.16 138.784 289.208 138.87 289.304C138.966 289.389 139.014 289.501 139.014 289.64L139.014 300.52C139.014 300.648 138.966 300.76 138.87 300.856C138.774 300.952 138.662 301 138.534 301C138.395 301 138.278 300.952 138.182 300.856C138.096 300.76 138.054 300.648 138.054 300.52L138.054 298.616L138.326 298.392C138.326 298.691 138.246 299.005 138.086 299.336C137.926 299.656 137.696 299.955 137.398 300.232C137.11 300.509 136.768 300.733 136.374 300.904C135.99 301.075 135.574 301.16 135.126 301.16C134.411 301.16 133.766 300.973 133.19 300.6C132.624 300.227 132.176 299.72 131.846 299.08C131.515 298.44 131.35 297.709 131.35 296.888C131.35 296.077 131.515 295.352 131.846 294.712C132.176 294.061 132.624 293.555 133.19 293.192C133.755 292.819 134.395 292.632 135.11 292.632C135.547 292.632 135.963 292.712 136.358 292.872C136.752 293.032 137.099 293.251 137.398 293.528C137.707 293.805 137.947 294.125 138.118 294.488C138.299 294.84 138.39 295.208 138.39 295.592L138.054 295.352L138.054 289.64C138.054 289.512 138.096 289.4 138.182 289.304C138.278 289.208 138.395 289.16 138.534 289.16ZM135.206 300.264C135.782 300.264 136.283 300.12 136.71 299.832C137.147 299.533 137.488 299.133 137.734 298.632C137.99 298.12 138.118 297.539 138.118 296.888C138.118 296.248 137.99 295.677 137.734 295.176C137.488 294.664 137.147 294.264 136.71 293.976C136.272 293.677 135.771 293.528 135.206 293.528C134.651 293.528 134.15 293.677 133.702 293.976C133.264 294.264 132.918 294.664 132.662 295.176C132.416 295.677 132.294 296.248 132.294 296.888C132.294 297.528 132.416 298.104 132.662 298.616C132.918 299.128 133.264 299.533 133.702 299.832C134.15 300.12 134.651 300.264 135.206 300.264ZM147.917 292.824C148.055 292.824 148.167 292.872 148.253 292.968C148.349 293.064 148.397 293.181 148.397 293.32L148.397 300.52C148.397 300.648 148.349 300.76 148.253 300.856C148.157 300.952 148.045 301 147.917 301C147.778 301 147.661 300.952 147.565 300.856C147.479 300.76 147.437 300.648 147.437 300.52L147.437 298.616L147.709 298.488C147.709 298.787 147.623 299.091 147.453 299.4C147.293 299.709 147.069 299.997 146.781 300.264C146.493 300.531 146.151 300.749 145.757 300.92C145.373 301.08 144.957 301.16 144.509 301.16C143.783 301.16 143.133 300.973 142.557 300.6C141.991 300.227 141.543 299.715 141.213 299.064C140.893 298.413 140.733 297.683 140.733 296.872C140.733 296.04 140.898 295.309 141.229 294.68C141.559 294.04 142.007 293.539 142.573 293.176C143.138 292.813 143.778 292.632 144.493 292.632C144.951 292.632 145.378 292.712 145.773 292.872C146.178 293.032 146.53 293.251 146.829 293.528C147.127 293.805 147.357 294.125 147.517 294.488C147.687 294.84 147.773 295.208 147.773 295.592L147.437 295.352L147.437 293.32C147.437 293.181 147.479 293.064 147.565 292.968C147.661 292.872 147.778 292.824 147.917 292.824ZM144.589 300.264C145.154 300.264 145.655 300.12 146.093 299.832C146.53 299.533 146.871 299.128 147.117 298.616C147.373 298.093 147.501 297.512 147.501 296.872C147.501 296.243 147.373 295.677 147.117 295.176C146.871 294.675 146.53 294.275 146.093 293.976C145.655 293.677 145.154 293.528 144.589 293.528C144.034 293.528 143.533 293.672 143.085 293.96C142.647 294.248 142.301 294.643 142.045 295.144C141.799 295.645 141.677 296.221 141.677 296.872C141.677 297.512 141.799 298.093 142.045 298.616C142.301 299.128 142.647 299.533 143.085 299.832C143.522 300.12 144.023 300.264 144.589 300.264ZM157.3 289.16C157.439 289.16 157.551 289.208 157.636 289.304C157.732 289.389 157.78 289.501 157.78 289.64L157.78 300.52C157.78 300.648 157.732 300.76 157.636 300.856C157.54 300.952 157.428 301 157.3 301C157.161 301 157.044 300.952 156.948 300.856C156.863 300.76 156.82 300.648 156.82 300.52L156.82 298.616L157.092 298.392C157.092 298.691 157.012 299.005 156.852 299.336C156.692 299.656 156.463 299.955 156.164 300.232C155.876 300.509 155.535 300.733 155.14 300.904C154.756 301.075 154.34 301.16 153.892 301.16C153.177 301.16 152.532 300.973 151.956 300.6C151.391 300.227 150.943 299.72 150.612 299.08C150.281 298.44 150.116 297.709 150.116 296.888C150.116 296.077 150.281 295.352 150.612 294.712C150.943 294.061 151.391 293.555 151.956 293.192C152.521 292.819 153.161 292.632 153.876 292.632C154.313 292.632 154.729 292.712 155.124 292.872C155.519 293.032 155.865 293.251 156.164 293.528C156.473 293.805 156.713 294.125 156.884 294.488C157.065 294.84 157.156 295.208 157.156 295.592L156.82 295.352L156.82 289.64C156.82 289.512 156.863 289.4 156.948 289.304C157.044 289.208 157.161 289.16 157.3 289.16ZM153.972 300.264C154.548 300.264 155.049 300.12 155.476 299.832C155.913 299.533 156.255 299.133 156.5 298.632C156.756 298.12 156.884 297.539 156.884 296.888C156.884 296.248 156.756 295.677 156.5 295.176C156.255 294.664 155.913 294.264 155.476 293.976C155.039 293.677 154.537 293.528 153.972 293.528C153.417 293.528 152.916 293.677 152.468 293.976C152.031 294.264 151.684 294.664 151.428 295.176C151.183 295.677 151.06 296.248 151.06 296.888C151.06 297.528 151.183 298.104 151.428 298.616C151.684 299.128 152.031 299.533 152.468 299.832C152.916 300.12 153.417 300.264 153.972 300.264ZM163.675 301.16C162.854 301.16 162.128 300.984 161.499 300.632C160.87 300.28 160.379 299.789 160.027 299.16C159.675 298.531 159.499 297.795 159.499 296.952C159.499 296.045 159.675 295.272 160.027 294.632C160.39 293.992 160.854 293.501 161.419 293.16C161.995 292.808 162.603 292.632 163.243 292.632C163.712 292.632 164.166 292.717 164.603 292.888C165.051 293.048 165.446 293.293 165.787 293.624C166.139 293.944 166.416 294.339 166.619 294.808C166.832 295.277 166.95 295.821 166.971 296.44C166.96 296.568 166.907 296.68 166.811 296.776C166.715 296.861 166.603 296.904 166.475 296.904L160.059 296.904L159.867 296.04L166.171 296.04L165.963 296.232L165.963 295.912C165.92 295.411 165.76 294.984 165.483 294.632C165.206 294.28 164.87 294.013 164.475 293.832C164.08 293.651 163.67 293.56 163.243 293.56C162.923 293.56 162.592 293.624 162.251 293.752C161.92 293.88 161.616 294.083 161.339 294.36C161.072 294.627 160.854 294.973 160.683 295.4C160.512 295.816 160.427 296.312 160.427 296.888C160.427 297.517 160.555 298.088 160.811 298.6C161.067 299.112 161.435 299.517 161.915 299.816C162.406 300.115 162.987 300.264 163.659 300.264C164.032 300.264 164.368 300.211 164.667 300.104C164.966 299.997 165.227 299.859 165.451 299.688C165.675 299.507 165.862 299.32 166.011 299.128C166.128 299.032 166.246 298.984 166.363 298.984C166.47 298.984 166.56 299.027 166.635 299.112C166.72 299.197 166.763 299.293 166.763 299.4C166.763 299.528 166.71 299.64 166.603 299.736C166.283 300.12 165.867 300.456 165.355 300.744C164.843 301.021 164.283 301.16 163.675 301.16ZM168.834 301C168.653 301 168.514 300.941 168.418 300.824C168.322 300.707 168.274 300.557 168.274 300.376L168.274 300.04C168.274 299.848 168.322 299.699 168.418 299.592C168.514 299.485 168.653 299.432 168.834 299.432L168.946 299.432C169.127 299.432 169.266 299.485 169.362 299.592C169.458 299.699 169.506 299.848 169.506 300.04L169.506 300.376C169.506 300.557 169.458 300.707 169.362 300.824C169.266 300.941 169.127 301 168.946 301L168.834 301Z" fill="#363636"/>
<path d="M63.36 223L74.8 223C80.52 223 84 220.08 84 215.28C84 211.84 82.36 209.52 79.16 208.48C82.04 207.28 83.48 205.04 83.48 201.72C83.48 196.96 80.04 194.08 74.4 194.08L63.36 194.08L63.36 223ZM74.16 197.56C77.56 197.56 79.48 199.2 79.48 202.08C79.48 205.08 77.64 206.84 74.4 206.84L67.28 206.84L67.28 197.56L74.16 197.56ZM74.72 210.24C78.04 210.24 79.96 211.92 79.96 214.8C79.96 217.8 78.08 219.52 74.72 219.52L67.28 219.52L67.28 210.24L74.72 210.24ZM87.7869 213.2C87.7869 219.24 92.1069 223.48 97.9869 223.48C103.827 223.48 108.147 219.24 108.147 213.2C108.147 207.16 103.827 202.92 97.9869 202.92C92.1069 202.92 87.7869 207.16 87.7869 213.2ZM91.5869 213.2C91.5869 209.12 94.1869 206.28 97.9869 206.28C101.747 206.28 104.387 209.12 104.387 213.2C104.387 217.28 101.747 220.12 97.9869 220.12C94.1869 220.12 91.5869 217.28 91.5869 213.2ZM111.829 213.2C111.829 219.24 116.149 223.48 122.029 223.48C127.869 223.48 132.189 219.24 132.189 213.2C132.189 207.16 127.869 202.92 122.029 202.92C116.149 202.92 111.829 207.16 111.829 213.2ZM115.629 213.2C115.629 209.12 118.229 206.28 122.029 206.28C125.789 206.28 128.429 209.12 128.429 213.2C128.429 217.28 125.789 220.12 122.029 220.12C118.229 220.12 115.629 217.28 115.629 213.2ZM142.476 223L142.476 206.6L146.316 206.6L146.316 203.44L142.476 203.44L142.476 197.32L138.716 197.32L138.716 203.44L134.876 203.44L134.876 206.6L138.716 206.6L138.716 223L142.476 223ZM148.89 217.32C148.89 221.04 151.81 223.48 156.41 223.48C161.05 223.48 164.25 221.12 164.25 217.4C164.25 214.48 162.61 212.96 159.29 212.16L155.85 211.32C153.93 210.84 152.97 209.96 152.97 208.64C152.97 206.84 154.29 205.8 156.65 205.8C158.93 205.8 160.25 207.04 160.33 209L163.93 209C163.85 205.28 161.05 202.88 156.77 202.88C152.45 202.88 149.41 205.16 149.41 208.76C149.41 211.64 151.05 213.36 154.53 214.2L157.97 215C160.01 215.52 160.65 216.32 160.65 217.64C160.65 219.44 159.13 220.52 156.49 220.52C154.01 220.52 152.49 219.32 152.49 217.32L148.89 217.32ZM174.74 223L174.74 206.6L178.58 206.6L178.58 203.44L174.74 203.44L174.74 197.32L170.98 197.32L170.98 203.44L167.14 203.44L167.14 206.6L170.98 206.6L170.98 223L174.74 223ZM193.954 203.28C193.194 203.12 192.634 203.04 191.954 203.04C189.274 203.04 187.314 204.4 186.514 206.44L186.274 203.48L182.754 203.48L182.754 223L186.514 223L186.514 212.64C186.514 208.88 188.714 206.72 192.274 206.72L193.954 206.72L193.954 203.28ZM203.22 223.48C206.38 223.48 209.06 222.08 210.06 219.84L210.46 223L213.66 223L213.66 210.72C213.66 205.44 210.38 202.88 205.54 202.88C200.5 202.88 197.14 205.56 197.14 209.64L200.42 209.64C200.42 207.28 202.22 205.88 205.38 205.88C208.02 205.88 209.98 207.04 209.98 210.32L209.98 210.88L203.82 211.36C199.22 211.72 196.54 213.96 196.54 217.56C196.54 221.12 199.02 223.48 203.22 223.48ZM204.3 220.56C201.86 220.56 200.34 219.52 200.34 217.44C200.34 215.52 201.7 214.24 205.02 213.92L210.02 213.52L210.02 214.56C210.02 218.24 207.86 220.56 204.3 220.56ZM219.667 231.76L223.427 231.76L223.427 219.8C224.707 222.2 227.307 223.52 230.427 223.52C236.227 223.52 239.507 219.04 239.507 213.08C239.507 207.08 236.027 202.88 230.427 202.88C227.307 202.88 224.667 204.28 223.347 206.96L223.067 203.44L219.667 203.44L219.667 231.76ZM223.467 213.24C223.467 209.16 225.787 206.32 229.627 206.32C233.467 206.32 235.747 209.2 235.747 213.24C235.747 217.24 233.467 220.12 229.627 220.12C225.787 220.12 223.467 217.24 223.467 213.24Z" fill="#3C2A56"/>
<g clip-path="url(#clip0_92_535)">
<path d="M202.297 9.03869e-09L132.703 2.76695e-09C115.746 1.2388e-09 102 13.7463 102 30.7031L102 100.297C102 117.254 115.746 131 132.703 131L202.297 131C219.254 131 233 117.254 233 100.297L233 30.7031C233 13.7463 219.254 1.05668e-08 202.297 9.03869e-09Z" fill="url(#paint0_linear_92_535)"/>
<g filter="url(#filter1_d_92_535)">
<path d="M169.532 100.377C184.717 100.377 193.868 92.9414 193.868 80.6776C193.868 71.4068 187.339 64.6956 177.644 63.6327L177.644 63.2469C184.767 62.0879 190.356 55.4729 190.356 48.0857C190.356 37.5596 182.047 30.7031 169.383 30.7031L140.891 30.7031L140.891 100.377L169.532 100.377ZM151.971 39.539L166.712 39.539C174.725 39.539 179.276 43.1123 179.276 49.5825C179.276 56.4871 173.983 60.3496 164.387 60.3496L151.971 60.3496L151.971 39.539ZM151.971 91.5414L151.971 68.6066L166.613 68.6066C177.1 68.6066 182.541 72.4691 182.541 80.0016C182.541 87.5336 177.248 91.5414 167.256 91.5414L151.971 91.5414Z" fill="url(#paint1_linear_92_535)"/>
<path d="M169.532 100.377C184.717 100.377 193.868 92.9414 193.868 80.6776C193.868 71.4068 187.339 64.6956 177.644 63.6327L177.644 63.2469C184.767 62.0879 190.356 55.4729 190.356 48.0857C190.356 37.5596 182.047 30.7031 169.383 30.7031L140.891 30.7031L140.891 100.377L169.532 100.377ZM151.971 39.539L166.712 39.539C174.725 39.539 179.276 43.1123 179.276 49.5825C179.276 56.4871 173.983 60.3495 164.387 60.3495L151.971 60.3495L151.971 39.539ZM151.971 91.5414L151.971 68.6066L166.613 68.6066C177.1 68.6066 182.541 72.4691 182.541 80.0016C182.541 87.5336 177.248 91.5414 167.256 91.5414L151.971 91.5414Z" stroke="white" stroke-width="2"/>
</g>
</g>
<defs>
<filter id="filter0_d_92_535" x="0.783813" y="37" width="341" height="360" filterUnits="userSpaceOnUse" color-interpolation-filters="sRGB">
<feFlood flood-opacity="0" result="BackgroundImageFix"/>
<feColorMatrix in="SourceAlpha" type="matrix" values="0 0 0 0 0 0 0 0 0 0 0 0 0 0 0 0 0 0 127 0" result="hardAlpha"/>
<feOffset dy="9"/>
<feGaussianBlur stdDeviation="13.5"/>
<feColorMatrix type="matrix" values="0 0 0 0 0 0 0 0 0 0 0 0 0 0 0 0 0 0 0.1 0"/>
<feBlend mode="normal" in2="BackgroundImageFix" result="effect1_dropShadow_92_535"/>
<feBlend mode="normal" in="SourceGraphic" in2="effect1_dropShadow_92_535" result="shape"/>
</filter>
<filter id="filter1_d_92_535" x="123.891" y="17.7031" width="86.9777" height="103.674" filterUnits="userSpaceOnUse" color-interpolation-filters="sRGB">
<feFlood flood-opacity="0" result="BackgroundImageFix"/>
<feColorMatrix in="SourceAlpha" type="matrix" values="0 0 0 0 0 0 0 0 0 0 0 0 0 0 0 0 0 0 127 0" result="hardAlpha"/>
<feOffset dy="4"/>
<feGaussianBlur stdDeviation="8"/>
<feColorMatrix type="matrix" values="0 0 0 0 0 0 0 0 0 0 0 0 0 0 0 0 0 0 0.15 0"/>
<feBlend mode="normal" in2="BackgroundImageFix" result="effect1_dropShadow_92_535"/>
<feBlend mode="normal" in="SourceGraphic" in2="effect1_dropShadow_92_535" result="shape"/>
</filter>
<linearGradient id="paint0_linear_92_535" x1="102" y1="0" x2="233" y2="131" gradientUnits="userSpaceOnUse">
<stop stop-color="#9013FE"/>
<stop offset="1" stop-color="#6B11F4"/>
</linearGradient>
<linearGradient id="paint1_linear_92_535" x1="145.902" y1="35.2891" x2="178.011" y2="89.5938" gradientUnits="userSpaceOnUse">
<stop stop-color="white"/>
<stop offset="1" stop-color="#F1E5FC"/>
</linearGradient>
<clipPath id="clip0_92_535">
<rect width="131" height="131" fill="white" transform="translate(102)"/>
</clipPath>
</defs>
</svg>
