<svg width="342" height="412" viewBox="0 0 342 412" fill="none" xmlns="http://www.w3.org/2000/svg">
<g filter="url(#filter0_d_92_524)">
<rect x="27.9172" y="69.5366" width="287" height="306" rx="20" fill="white"/>
</g>
<path d="M59.984 265.8L65.856 265.8C65.984 265.8 66.096 265.848 66.192 265.944C66.288 266.029 66.336 266.141 66.336 266.28C66.336 266.419 66.288 266.531 66.192 266.616C66.096 266.701 65.984 266.744 65.856 266.744L60.352 266.744L60.512 266.472L60.512 270.968L60.336 270.76L65.136 270.76C65.264 270.76 65.376 270.808 65.472 270.904C65.568 271 65.616 271.112 65.616 271.24C65.616 271.379 65.568 271.491 65.472 271.576C65.376 271.661 65.264 271.704 65.136 271.704L60.368 271.704L60.512 271.544L60.512 276.152L60.432 276.056L65.856 276.056C65.984 276.056 66.096 276.104 66.192 276.2C66.288 276.296 66.336 276.408 66.336 276.536C66.336 276.675 66.288 276.787 66.192 276.872C66.096 276.957 65.984 277 65.856 277L59.984 277C59.856 277 59.744 276.952 59.648 276.856C59.552 276.76 59.504 276.648 59.504 276.52L59.504 266.28C59.504 266.152 59.552 266.04 59.648 265.944C59.744 265.848 59.856 265.8 59.984 265.8ZM67.5738 275.704C67.4884 275.576 67.4458 275.453 67.4458 275.336C67.4564 275.208 67.5258 275.107 67.6538 275.032C67.7391 274.957 67.8351 274.925 67.9418 274.936C68.0591 274.947 68.1658 275 68.2618 275.096C68.5498 275.469 68.8964 275.773 69.3018 276.008C69.7178 276.232 70.2084 276.344 70.7738 276.344C71.0724 276.344 71.3658 276.296 71.6538 276.2C71.9524 276.093 72.1978 275.939 72.3898 275.736C72.5818 275.523 72.6778 275.256 72.6778 274.936C72.6778 274.605 72.5818 274.339 72.3898 274.136C72.1978 273.933 71.9471 273.773 71.6378 273.656C71.3391 273.539 71.0191 273.437 70.6778 273.352C70.3151 273.256 69.9631 273.149 69.6218 273.032C69.2804 272.904 68.9764 272.749 68.7098 272.568C68.4538 272.376 68.2458 272.147 68.0858 271.88C67.9258 271.613 67.8458 271.288 67.8458 270.904C67.8458 270.456 67.9684 270.061 68.2138 269.72C68.4591 269.379 68.7898 269.112 69.2058 268.92C69.6324 268.728 70.1124 268.632 70.6458 268.632C70.9124 268.632 71.2004 268.669 71.5098 268.744C71.8191 268.808 72.1231 268.92 72.4218 269.08C72.7204 269.24 72.9871 269.459 73.2218 269.736C73.3178 269.832 73.3658 269.944 73.3658 270.072C73.3658 270.189 73.3124 270.296 73.2058 270.392C73.1204 270.456 73.0191 270.488 72.9018 270.488C72.7951 270.488 72.7044 270.445 72.6298 270.36C72.3738 270.072 72.0698 269.853 71.7178 269.704C71.3658 269.555 70.9871 269.48 70.5818 269.48C70.2724 269.48 69.9791 269.533 69.7018 269.64C69.4351 269.736 69.2111 269.885 69.0298 270.088C68.8484 270.291 68.7578 270.557 68.7578 270.888C68.7791 271.197 68.8858 271.448 69.0778 271.64C69.2804 271.832 69.5418 271.992 69.8618 272.12C70.1924 272.248 70.5604 272.365 70.9658 272.472C71.3071 272.557 71.6324 272.659 71.9418 272.776C72.2618 272.893 72.5391 273.043 72.7738 273.224C73.0191 273.395 73.2111 273.613 73.3498 273.88C73.4991 274.147 73.5738 274.483 73.5738 274.888C73.5738 275.357 73.4404 275.763 73.1738 276.104C72.9178 276.445 72.5711 276.707 72.1338 276.888C71.6964 277.069 71.2111 277.16 70.6778 277.16C70.1018 277.16 69.5418 277.048 68.9978 276.824C68.4644 276.6 67.9898 276.227 67.5738 275.704ZM74.6897 268.856L78.4177 268.856C78.5457 268.856 78.6524 268.904 78.7378 269C78.8231 269.085 78.8657 269.192 78.8657 269.32C78.8657 269.437 78.8231 269.539 78.7378 269.624C78.6524 269.709 78.5457 269.752 78.4177 269.752L74.6897 269.752C74.5617 269.752 74.4497 269.709 74.3537 269.624C74.2684 269.528 74.2257 269.421 74.2257 269.304C74.2257 269.176 74.2684 269.069 74.3537 268.984C74.4497 268.899 74.5617 268.856 74.6897 268.856ZM76.3377 266.6C76.4764 266.6 76.5884 266.648 76.6737 266.744C76.7697 266.84 76.8177 266.952 76.8177 267.08L76.8177 275.112C76.8177 275.411 76.8551 275.635 76.9297 275.784C77.0151 275.933 77.1217 276.035 77.2497 276.088C77.3777 276.131 77.5057 276.152 77.6337 276.152C77.7191 276.152 77.7937 276.141 77.8577 276.12C77.9324 276.088 78.0124 276.072 78.0977 276.072C78.1937 276.072 78.2737 276.109 78.3377 276.184C78.4124 276.259 78.4497 276.355 78.4497 276.472C78.4497 276.621 78.3644 276.749 78.1937 276.856C78.0231 276.952 77.8204 277 77.5857 277C77.4897 277 77.3457 276.995 77.1537 276.984C76.9617 276.963 76.7644 276.904 76.5617 276.808C76.3591 276.701 76.1884 276.52 76.0497 276.264C75.9217 276.008 75.8577 275.64 75.8577 275.16L75.8577 267.08C75.8577 266.952 75.9004 266.84 75.9857 266.744C76.0817 266.648 76.1991 266.6 76.3377 266.6ZM81.2476 276.52C81.2476 276.648 81.1996 276.76 81.1036 276.856C81.0076 276.952 80.8956 277 80.7676 277C80.629 277 80.5116 276.952 80.4156 276.856C80.3303 276.76 80.2876 276.648 80.2876 276.52L80.2876 269.16C80.2876 269.032 80.3303 268.92 80.4156 268.824C80.5116 268.728 80.629 268.68 80.7676 268.68C80.9063 268.68 81.0183 268.728 81.1036 268.824C81.1996 268.92 81.2476 269.032 81.2476 269.16L81.2476 276.52ZM80.7676 267.608C80.5436 267.608 80.373 267.56 80.2556 267.464C80.149 267.357 80.0956 267.208 80.0956 267.016L80.0956 266.856C80.0956 266.664 80.1543 266.52 80.2716 266.424C80.3996 266.317 80.5703 266.264 80.7836 266.264C80.9863 266.264 81.141 266.317 81.2476 266.424C81.365 266.52 81.4236 266.664 81.4236 266.856L81.4236 267.016C81.4236 267.208 81.365 267.357 81.2476 267.464C81.141 267.56 80.981 267.608 80.7676 267.608ZM84.4775 276.52C84.4775 276.648 84.4295 276.76 84.3335 276.856C84.2375 276.952 84.1255 277 83.9975 277C83.8588 277 83.7415 276.952 83.6455 276.856C83.5602 276.76 83.5175 276.648 83.5175 276.52L83.5175 265.64C83.5175 265.512 83.5655 265.4 83.6615 265.304C83.7575 265.208 83.8695 265.16 83.9975 265.16C84.1362 265.16 84.2482 265.208 84.3335 265.304C84.4295 265.4 84.4775 265.512 84.4775 265.64L84.4775 276.52ZM87.717 276.52C87.717 276.648 87.669 276.76 87.573 276.856C87.477 276.952 87.365 277 87.237 277C87.0983 277 86.981 276.952 86.885 276.856C86.7997 276.76 86.757 276.648 86.757 276.52L86.757 269.16C86.757 269.032 86.7997 268.92 86.885 268.824C86.981 268.728 87.0983 268.68 87.237 268.68C87.3757 268.68 87.4877 268.728 87.573 268.824C87.669 268.92 87.717 269.032 87.717 269.16L87.717 276.52ZM87.237 267.608C87.013 267.608 86.8423 267.56 86.725 267.464C86.6183 267.357 86.565 267.208 86.565 267.016L86.565 266.856C86.565 266.664 86.6237 266.52 86.741 266.424C86.869 266.317 87.0397 266.264 87.253 266.264C87.4557 266.264 87.6103 266.317 87.717 266.424C87.8343 266.52 87.893 266.664 87.893 266.856L87.893 267.016C87.893 267.208 87.8343 267.357 87.717 267.464C87.6103 267.56 87.4503 267.608 87.237 267.608ZM95.0109 276.104C95.1389 276.104 95.2455 276.152 95.3309 276.248C95.4269 276.333 95.4749 276.435 95.4749 276.552C95.4749 276.68 95.4269 276.787 95.3309 276.872C95.2455 276.957 95.1389 277 95.0109 277L89.8109 277C89.6722 277 89.5602 276.947 89.4749 276.84C89.3895 276.733 89.3469 276.632 89.3469 276.536C89.3469 276.472 89.3575 276.413 89.3789 276.36C89.4002 276.296 89.4375 276.232 89.4909 276.168L94.3389 269.464L94.4029 269.608L90.2109 269.608C90.0829 269.608 89.9709 269.565 89.8749 269.48C89.7895 269.384 89.7469 269.277 89.7469 269.16C89.7469 269.032 89.7895 268.925 89.8749 268.84C89.9709 268.755 90.0829 268.712 90.2109 268.712L95.1229 268.712C95.2402 268.712 95.3415 268.76 95.4269 268.856C95.5229 268.952 95.5709 269.064 95.5709 269.192C95.5709 269.256 95.5602 269.315 95.5389 269.368C95.5175 269.421 95.4855 269.48 95.4429 269.544L90.6269 276.184L90.4349 276.104L95.0109 276.104ZM103.931 268.824C104.07 268.824 104.182 268.872 104.267 268.968C104.363 269.064 104.411 269.181 104.411 269.32L104.411 276.52C104.411 276.648 104.363 276.76 104.267 276.856C104.171 276.952 104.059 277 103.931 277C103.792 277 103.675 276.952 103.579 276.856C103.494 276.76 103.451 276.648 103.451 276.52L103.451 274.616L103.723 274.488C103.723 274.787 103.638 275.091 103.467 275.4C103.307 275.709 103.083 275.997 102.795 276.264C102.507 276.531 102.166 276.749 101.771 276.92C101.387 277.08 100.971 277.16 100.523 277.16C99.7978 277.16 99.1471 276.973 98.5711 276.6C98.0058 276.227 97.5578 275.715 97.2271 275.064C96.9071 274.413 96.7471 273.683 96.7471 272.872C96.7471 272.04 96.9125 271.309 97.2431 270.68C97.5738 270.04 98.0218 269.539 98.5871 269.176C99.1525 268.813 99.7925 268.632 100.507 268.632C100.966 268.632 101.392 268.712 101.787 268.872C102.192 269.032 102.544 269.251 102.843 269.528C103.142 269.805 103.371 270.125 103.531 270.488C103.702 270.84 103.787 271.208 103.787 271.592L103.451 271.352L103.451 269.32C103.451 269.181 103.494 269.064 103.579 268.968C103.675 268.872 103.792 268.824 103.931 268.824ZM100.603 276.264C101.168 276.264 101.67 276.12 102.107 275.832C102.544 275.533 102.886 275.128 103.131 274.616C103.387 274.093 103.515 273.512 103.515 272.872C103.515 272.243 103.387 271.677 103.131 271.176C102.886 270.675 102.544 270.275 102.107 269.976C101.67 269.677 101.168 269.528 100.603 269.528C100.048 269.528 99.5471 269.672 99.0991 269.96C98.6618 270.248 98.3151 270.643 98.0591 271.144C97.8138 271.645 97.6911 272.221 97.6911 272.872C97.6911 273.512 97.8138 274.093 98.0591 274.616C98.3151 275.128 98.6618 275.533 99.0991 275.832C99.5365 276.12 100.038 276.264 100.603 276.264ZM110.21 268.632C110.722 268.632 111.192 268.691 111.618 268.808C112.045 268.915 112.386 269.064 112.642 269.256C112.909 269.448 113.042 269.656 113.042 269.88C113.042 269.987 113.005 270.093 112.93 270.2C112.856 270.296 112.754 270.344 112.626 270.344C112.498 270.344 112.392 270.312 112.306 270.248C112.232 270.184 112.152 270.109 112.066 270.024C111.992 269.939 111.88 269.859 111.73 269.784C111.592 269.72 111.394 269.661 111.138 269.608C110.882 269.555 110.589 269.528 110.258 269.528C109.661 269.528 109.122 269.677 108.642 269.976C108.162 270.275 107.784 270.68 107.506 271.192C107.229 271.693 107.09 272.259 107.09 272.888C107.09 273.528 107.224 274.104 107.49 274.616C107.757 275.128 108.125 275.533 108.594 275.832C109.064 276.12 109.613 276.264 110.242 276.264C110.669 276.264 111 276.227 111.234 276.152C111.469 276.077 111.672 275.992 111.842 275.896C112.045 275.779 112.189 275.667 112.274 275.56C112.37 275.443 112.493 275.384 112.642 275.384C112.781 275.384 112.882 275.427 112.946 275.512C113.021 275.587 113.058 275.688 113.058 275.816C113.058 275.987 112.93 276.179 112.674 276.392C112.429 276.595 112.088 276.776 111.65 276.936C111.213 277.085 110.712 277.16 110.146 277.16C109.346 277.16 108.642 276.973 108.034 276.6C107.437 276.227 106.968 275.72 106.626 275.08C106.296 274.429 106.13 273.699 106.13 272.888C106.13 272.109 106.301 271.4 106.642 270.76C106.984 270.12 107.458 269.608 108.066 269.224C108.685 268.829 109.4 268.632 110.21 268.632ZM109.17 279.288C109.096 279.288 109.005 279.267 108.898 279.224C108.792 279.181 108.696 279.123 108.61 279.048C108.525 278.973 108.482 278.888 108.482 278.792C108.482 278.675 108.52 278.579 108.594 278.504L109.986 276.76L110.61 276.76L109.586 278.984C109.49 279.187 109.352 279.288 109.17 279.288ZM121.275 268.824C121.414 268.824 121.526 268.872 121.611 268.968C121.707 269.064 121.755 269.181 121.755 269.32L121.755 276.52C121.755 276.648 121.707 276.76 121.611 276.856C121.515 276.952 121.403 277 121.275 277C121.137 277 121.019 276.952 120.923 276.856C120.838 276.76 120.795 276.648 120.795 276.52L120.795 274.616L121.067 274.488C121.067 274.787 120.982 275.091 120.811 275.4C120.651 275.709 120.427 275.997 120.139 276.264C119.851 276.531 119.51 276.749 119.115 276.92C118.731 277.08 118.315 277.16 117.867 277.16C117.142 277.16 116.491 276.973 115.915 276.6C115.35 276.227 114.902 275.715 114.571 275.064C114.251 274.413 114.091 273.683 114.091 272.872C114.091 272.04 114.257 271.309 114.587 270.68C114.918 270.04 115.366 269.539 115.931 269.176C116.497 268.813 117.137 268.632 117.851 268.632C118.31 268.632 118.737 268.712 119.131 268.872C119.537 269.032 119.889 269.251 120.187 269.528C120.486 269.805 120.715 270.125 120.875 270.488C121.046 270.84 121.131 271.208 121.131 271.592L120.795 271.352L120.795 269.32C120.795 269.181 120.838 269.064 120.923 268.968C121.019 268.872 121.137 268.824 121.275 268.824ZM117.947 276.264C118.513 276.264 119.014 276.12 119.451 275.832C119.889 275.533 120.23 275.128 120.475 274.616C120.731 274.093 120.859 273.512 120.859 272.872C120.859 272.243 120.731 271.677 120.475 271.176C120.23 270.675 119.889 270.275 119.451 269.976C119.014 269.677 118.513 269.528 117.947 269.528C117.393 269.528 116.891 269.672 116.443 269.96C116.006 270.248 115.659 270.643 115.403 271.144C115.158 271.645 115.035 272.221 115.035 272.872C115.035 273.512 115.158 274.093 115.403 274.616C115.659 275.128 116.006 275.533 116.443 275.832C116.881 276.12 117.382 276.264 117.947 276.264ZM115.979 267.688C115.809 267.688 115.697 267.629 115.643 267.512C115.601 267.395 115.595 267.224 115.627 267C115.691 266.648 115.857 266.381 116.123 266.2C116.39 266.008 116.705 265.912 117.067 265.912C117.259 265.912 117.451 265.96 117.643 266.056C117.846 266.152 118.043 266.259 118.235 266.376C118.427 266.493 118.603 266.6 118.763 266.696C118.934 266.792 119.089 266.84 119.227 266.84C119.377 266.84 119.494 266.787 119.579 266.68C119.675 266.573 119.729 266.424 119.739 266.232C119.729 266.115 119.761 266.019 119.835 265.944C119.91 265.869 120.001 265.832 120.107 265.832C120.289 265.832 120.406 265.896 120.459 266.024C120.513 266.141 120.529 266.301 120.507 266.504C120.465 266.739 120.379 266.941 120.251 267.112C120.134 267.283 119.979 267.416 119.787 267.512C119.595 267.597 119.371 267.64 119.115 267.64C118.955 267.64 118.774 267.597 118.571 267.512C118.379 267.416 118.187 267.309 117.995 267.192C117.803 267.075 117.617 266.973 117.435 266.888C117.265 266.792 117.105 266.744 116.955 266.744C116.817 266.744 116.694 266.792 116.587 266.888C116.481 266.973 116.401 267.123 116.347 267.336C116.358 267.443 116.321 267.528 116.235 267.592C116.161 267.656 116.075 267.688 115.979 267.688ZM131.571 272.904C131.571 273.715 131.395 274.445 131.043 275.096C130.691 275.736 130.211 276.243 129.603 276.616C128.995 276.979 128.301 277.16 127.523 277.16C126.765 277.16 126.077 276.979 125.459 276.616C124.851 276.243 124.365 275.736 124.003 275.096C123.651 274.445 123.475 273.715 123.475 272.904C123.475 272.083 123.651 271.352 124.003 270.712C124.365 270.072 124.851 269.565 125.459 269.192C126.077 268.819 126.765 268.632 127.523 268.632C128.301 268.632 128.995 268.819 129.603 269.192C130.211 269.565 130.691 270.072 131.043 270.712C131.395 271.352 131.571 272.083 131.571 272.904ZM130.611 272.904C130.611 272.253 130.477 271.677 130.211 271.176C129.944 270.664 129.576 270.264 129.107 269.976C128.648 269.677 128.12 269.528 127.523 269.528C126.947 269.528 126.424 269.677 125.955 269.976C125.485 270.264 125.112 270.664 124.835 271.176C124.568 271.677 124.435 272.253 124.435 272.904C124.435 273.555 124.568 274.131 124.835 274.632C125.112 275.133 125.485 275.533 125.955 275.832C126.424 276.12 126.947 276.264 127.523 276.264C128.12 276.264 128.648 276.12 129.107 275.832C129.576 275.533 129.944 275.133 130.211 274.632C130.477 274.131 130.611 273.555 130.611 272.904ZM144.05 265.16C144.189 265.16 144.301 265.208 144.386 265.304C144.482 265.389 144.53 265.501 144.53 265.64L144.53 276.52C144.53 276.648 144.482 276.76 144.386 276.856C144.29 276.952 144.178 277 144.05 277C143.911 277 143.794 276.952 143.698 276.856C143.613 276.76 143.57 276.648 143.57 276.52L143.57 274.616L143.842 274.392C143.842 274.691 143.762 275.005 143.602 275.336C143.442 275.656 143.213 275.955 142.914 276.232C142.626 276.509 142.285 276.733 141.89 276.904C141.506 277.075 141.09 277.16 140.642 277.16C139.927 277.16 139.282 276.973 138.706 276.6C138.141 276.227 137.693 275.72 137.362 275.08C137.031 274.44 136.866 273.709 136.866 272.888C136.866 272.077 137.031 271.352 137.362 270.712C137.693 270.061 138.141 269.555 138.706 269.192C139.271 268.819 139.911 268.632 140.626 268.632C141.063 268.632 141.479 268.712 141.874 268.872C142.269 269.032 142.615 269.251 142.914 269.528C143.223 269.805 143.463 270.125 143.634 270.488C143.815 270.84 143.906 271.208 143.906 271.592L143.57 271.352L143.57 265.64C143.57 265.512 143.613 265.4 143.698 265.304C143.794 265.208 143.911 265.16 144.05 265.16ZM140.722 276.264C141.298 276.264 141.799 276.12 142.226 275.832C142.663 275.533 143.005 275.133 143.25 274.632C143.506 274.12 143.634 273.539 143.634 272.888C143.634 272.248 143.506 271.677 143.25 271.176C143.005 270.664 142.663 270.264 142.226 269.976C141.789 269.677 141.287 269.528 140.722 269.528C140.167 269.528 139.666 269.677 139.218 269.976C138.781 270.264 138.434 270.664 138.178 271.176C137.933 271.677 137.81 272.248 137.81 272.888C137.81 273.528 137.933 274.104 138.178 274.616C138.434 275.128 138.781 275.533 139.218 275.832C139.666 276.12 140.167 276.264 140.722 276.264ZM153.433 268.824C153.572 268.824 153.684 268.872 153.769 268.968C153.865 269.064 153.913 269.181 153.913 269.32L153.913 276.52C153.913 276.648 153.865 276.76 153.769 276.856C153.673 276.952 153.561 277 153.433 277C153.294 277 153.177 276.952 153.081 276.856C152.996 276.76 152.953 276.648 152.953 276.52L152.953 274.616L153.225 274.488C153.225 274.787 153.14 275.091 152.969 275.4C152.809 275.709 152.585 275.997 152.297 276.264C152.009 276.531 151.668 276.749 151.273 276.92C150.889 277.08 150.473 277.16 150.025 277.16C149.3 277.16 148.649 276.973 148.073 276.6C147.508 276.227 147.06 275.715 146.729 275.064C146.409 274.413 146.249 273.683 146.249 272.872C146.249 272.04 146.414 271.309 146.745 270.68C147.076 270.04 147.524 269.539 148.089 269.176C148.654 268.813 149.294 268.632 150.009 268.632C150.468 268.632 150.894 268.712 151.289 268.872C151.694 269.032 152.046 269.251 152.345 269.528C152.644 269.805 152.873 270.125 153.033 270.488C153.204 270.84 153.289 271.208 153.289 271.592L152.953 271.352L152.953 269.32C152.953 269.181 152.996 269.064 153.081 268.968C153.177 268.872 153.294 268.824 153.433 268.824ZM150.105 276.264C150.67 276.264 151.172 276.12 151.609 275.832C152.046 275.533 152.388 275.128 152.633 274.616C152.889 274.093 153.017 273.512 153.017 272.872C153.017 272.243 152.889 271.677 152.633 271.176C152.388 270.675 152.046 270.275 151.609 269.976C151.172 269.677 150.67 269.528 150.105 269.528C149.55 269.528 149.049 269.672 148.601 269.96C148.164 270.248 147.817 270.643 147.561 271.144C147.316 271.645 147.193 272.221 147.193 272.872C147.193 273.512 147.316 274.093 147.561 274.616C147.817 275.128 148.164 275.533 148.601 275.832C149.038 276.12 149.54 276.264 150.105 276.264ZM155.648 275.704C155.563 275.576 155.52 275.453 155.52 275.336C155.531 275.208 155.6 275.107 155.728 275.032C155.813 274.957 155.909 274.925 156.016 274.936C156.133 274.947 156.24 275 156.336 275.096C156.624 275.469 156.971 275.773 157.376 276.008C157.792 276.232 158.283 276.344 158.848 276.344C159.147 276.344 159.44 276.296 159.728 276.2C160.027 276.093 160.272 275.939 160.464 275.736C160.656 275.523 160.752 275.256 160.752 274.936C160.752 274.605 160.656 274.339 160.464 274.136C160.272 273.933 160.021 273.773 159.712 273.656C159.413 273.539 159.093 273.437 158.752 273.352C158.389 273.256 158.037 273.149 157.696 273.032C157.355 272.904 157.051 272.749 156.784 272.568C156.528 272.376 156.32 272.147 156.16 271.88C156 271.613 155.92 271.288 155.92 270.904C155.92 270.456 156.043 270.061 156.288 269.72C156.533 269.379 156.864 269.112 157.28 268.92C157.707 268.728 158.187 268.632 158.72 268.632C158.987 268.632 159.275 268.669 159.584 268.744C159.893 268.808 160.197 268.92 160.496 269.08C160.795 269.24 161.061 269.459 161.296 269.736C161.392 269.832 161.44 269.944 161.44 270.072C161.44 270.189 161.387 270.296 161.28 270.392C161.195 270.456 161.093 270.488 160.976 270.488C160.869 270.488 160.779 270.445 160.704 270.36C160.448 270.072 160.144 269.853 159.792 269.704C159.44 269.555 159.061 269.48 158.656 269.48C158.347 269.48 158.053 269.533 157.776 269.64C157.509 269.736 157.285 269.885 157.104 270.088C156.923 270.291 156.832 270.557 156.832 270.888C156.853 271.197 156.96 271.448 157.152 271.64C157.355 271.832 157.616 271.992 157.936 272.12C158.267 272.248 158.635 272.365 159.04 272.472C159.381 272.557 159.707 272.659 160.016 272.776C160.336 272.893 160.613 273.043 160.848 273.224C161.093 273.395 161.285 273.613 161.424 273.88C161.573 274.147 161.648 274.483 161.648 274.888C161.648 275.357 161.515 275.763 161.248 276.104C160.992 276.445 160.645 276.707 160.208 276.888C159.771 277.069 159.285 277.16 158.752 277.16C158.176 277.16 157.616 277.048 157.072 276.824C156.539 276.6 156.064 276.227 155.648 275.704ZM171.235 268.76C171.96 268.76 172.6 268.941 173.155 269.304C173.72 269.656 174.168 270.147 174.499 270.776C174.83 271.395 174.995 272.109 174.995 272.92C174.995 273.731 174.83 274.451 174.499 275.08C174.168 275.709 173.72 276.205 173.155 276.568C172.59 276.931 171.955 277.112 171.251 277.112C170.878 277.112 170.52 277.059 170.179 276.952C169.848 276.835 169.544 276.68 169.267 276.488C168.99 276.296 168.744 276.072 168.531 275.816C168.318 275.549 168.147 275.261 168.019 274.952L168.307 274.744L168.307 279.72C168.307 279.848 168.259 279.96 168.163 280.056C168.078 280.152 167.966 280.2 167.827 280.2C167.688 280.2 167.571 280.152 167.475 280.056C167.39 279.96 167.347 279.848 167.347 279.72L167.347 269.288C167.347 269.149 167.39 269.032 167.475 268.936C167.56 268.84 167.678 268.792 167.827 268.792C167.966 268.792 168.078 268.84 168.163 268.936C168.259 269.032 168.307 269.149 168.307 269.288L168.307 271.016L168.083 270.888C168.19 270.557 168.344 270.264 168.547 270.008C168.76 269.741 169.006 269.517 169.283 269.336C169.56 269.144 169.864 269 170.195 268.904C170.526 268.808 170.872 268.76 171.235 268.76ZM171.155 269.656C170.579 269.656 170.072 269.8 169.635 270.088C169.198 270.365 168.851 270.749 168.595 271.24C168.35 271.72 168.227 272.28 168.227 272.92C168.227 273.549 168.35 274.115 168.595 274.616C168.851 275.117 169.198 275.512 169.635 275.8C170.072 276.077 170.579 276.216 171.155 276.216C171.72 276.216 172.216 276.077 172.643 275.8C173.08 275.512 173.427 275.117 173.683 274.616C173.939 274.115 174.067 273.549 174.067 272.92C174.067 272.291 173.939 271.731 173.683 271.24C173.427 270.749 173.08 270.365 172.643 270.088C172.216 269.8 171.72 269.656 171.155 269.656ZM183.434 268.824C183.573 268.824 183.685 268.872 183.77 268.968C183.866 269.064 183.914 269.181 183.914 269.32L183.914 276.52C183.914 276.648 183.866 276.76 183.77 276.856C183.674 276.952 183.562 277 183.434 277C183.296 277 183.178 276.952 183.082 276.856C182.997 276.76 182.954 276.648 182.954 276.52L182.954 274.616L183.226 274.488C183.226 274.787 183.141 275.091 182.97 275.4C182.81 275.709 182.586 275.997 182.298 276.264C182.01 276.531 181.669 276.749 181.274 276.92C180.89 277.08 180.474 277.16 180.026 277.16C179.301 277.16 178.65 276.973 178.074 276.6C177.509 276.227 177.061 275.715 176.73 275.064C176.41 274.413 176.25 273.683 176.25 272.872C176.25 272.04 176.416 271.309 176.746 270.68C177.077 270.04 177.525 269.539 178.09 269.176C178.656 268.813 179.296 268.632 180.01 268.632C180.469 268.632 180.896 268.712 181.29 268.872C181.696 269.032 182.048 269.251 182.346 269.528C182.645 269.805 182.874 270.125 183.034 270.488C183.205 270.84 183.29 271.208 183.29 271.592L182.954 271.352L182.954 269.32C182.954 269.181 182.997 269.064 183.082 268.968C183.178 268.872 183.296 268.824 183.434 268.824ZM180.106 276.264C180.672 276.264 181.173 276.12 181.61 275.832C182.048 275.533 182.389 275.128 182.634 274.616C182.89 274.093 183.018 273.512 183.018 272.872C183.018 272.243 182.89 271.677 182.634 271.176C182.389 270.675 182.048 270.275 181.61 269.976C181.173 269.677 180.672 269.528 180.106 269.528C179.552 269.528 179.05 269.672 178.602 269.96C178.165 270.248 177.818 270.643 177.562 271.144C177.317 271.645 177.194 272.221 177.194 272.872C177.194 273.512 177.317 274.093 177.562 274.616C177.818 275.128 178.165 275.533 178.602 275.832C179.04 276.12 179.541 276.264 180.106 276.264ZM179.994 268.168C179.941 268.168 179.882 268.141 179.818 268.088C179.765 268.024 179.738 267.955 179.738 267.88C179.738 267.816 179.765 267.741 179.818 267.656L180.794 266.136C180.848 266.051 180.917 265.971 181.002 265.896C181.098 265.821 181.21 265.784 181.338 265.784C181.498 265.784 181.626 265.827 181.722 265.912C181.818 265.997 181.861 266.12 181.85 266.28C181.85 266.355 181.834 266.424 181.802 266.488C181.781 266.541 181.744 266.595 181.69 266.648L180.49 267.912C180.426 267.987 180.352 268.051 180.266 268.104C180.181 268.147 180.09 268.168 179.994 268.168ZM189.521 268.632C190.001 268.632 190.444 268.717 190.849 268.888C191.255 269.048 191.607 269.261 191.905 269.528C192.215 269.784 192.455 270.061 192.625 270.36C192.796 270.648 192.881 270.925 192.881 271.192L192.609 270.808L192.609 269.32C192.609 269.181 192.652 269.064 192.737 268.968C192.833 268.872 192.951 268.824 193.089 268.824C193.239 268.824 193.356 268.872 193.441 268.968C193.527 269.064 193.569 269.181 193.569 269.32L193.569 276.248C193.569 277.101 193.393 277.821 193.041 278.408C192.689 278.995 192.209 279.437 191.601 279.736C191.004 280.045 190.321 280.2 189.553 280.2C189.18 280.2 188.785 280.152 188.369 280.056C187.964 279.96 187.612 279.837 187.313 279.688C187.025 279.539 186.865 279.384 186.833 279.224C186.748 279.128 186.705 279.032 186.705 278.936C186.716 278.851 186.764 278.776 186.849 278.712C186.956 278.637 187.068 278.627 187.185 278.68C187.303 278.744 187.479 278.824 187.713 278.92C187.82 278.952 187.964 279 188.145 279.064C188.327 279.128 188.54 279.181 188.785 279.224C189.041 279.277 189.308 279.304 189.585 279.304C190.545 279.304 191.287 279.027 191.809 278.472C192.343 277.928 192.609 277.208 192.609 276.312L192.609 274.776L192.785 274.824C192.689 275.208 192.529 275.544 192.305 275.832C192.092 276.12 191.836 276.365 191.537 276.568C191.239 276.76 190.913 276.904 190.561 277C190.22 277.107 189.879 277.16 189.537 277.16C188.801 277.16 188.14 276.973 187.553 276.6C186.967 276.227 186.497 275.72 186.145 275.08C185.804 274.44 185.633 273.709 185.633 272.888C185.633 272.077 185.804 271.352 186.145 270.712C186.497 270.061 186.961 269.555 187.537 269.192C188.124 268.819 188.785 268.632 189.521 268.632ZM189.633 269.528C189.047 269.528 188.519 269.677 188.049 269.976C187.591 270.264 187.228 270.664 186.961 271.176C186.705 271.677 186.577 272.248 186.577 272.888C186.577 273.528 186.705 274.104 186.961 274.616C187.228 275.128 187.591 275.533 188.049 275.832C188.519 276.12 189.047 276.264 189.633 276.264C190.22 276.264 190.743 276.12 191.201 275.832C191.66 275.544 192.023 275.149 192.289 274.648C192.556 274.136 192.689 273.549 192.689 272.888C192.689 272.227 192.556 271.645 192.289 271.144C192.023 270.632 191.66 270.237 191.201 269.96C190.743 269.672 190.22 269.528 189.633 269.528ZM196.706 276.52C196.706 276.648 196.658 276.76 196.562 276.856C196.466 276.952 196.354 277 196.226 277C196.087 277 195.97 276.952 195.874 276.856C195.788 276.76 195.746 276.648 195.746 276.52L195.746 269.16C195.746 269.032 195.788 268.92 195.874 268.824C195.97 268.728 196.087 268.68 196.226 268.68C196.364 268.68 196.476 268.728 196.562 268.824C196.658 268.92 196.706 269.032 196.706 269.16L196.706 276.52ZM196.226 267.608C196.002 267.608 195.831 267.56 195.714 267.464C195.607 267.357 195.554 267.208 195.554 267.016L195.554 266.856C195.554 266.664 195.612 266.52 195.73 266.424C195.858 266.317 196.028 266.264 196.242 266.264C196.444 266.264 196.599 266.317 196.706 266.424C196.823 266.52 196.882 266.664 196.882 266.856L196.882 267.016C196.882 267.208 196.823 267.357 196.706 267.464C196.599 267.56 196.439 267.608 196.226 267.608ZM202.736 268.632C203.44 268.632 204 268.776 204.416 269.064C204.842 269.341 205.146 269.725 205.328 270.216C205.52 270.696 205.616 271.229 205.616 271.816L205.616 276.52C205.616 276.648 205.568 276.76 205.472 276.856C205.376 276.952 205.264 277 205.136 277C204.986 277 204.869 276.952 204.784 276.856C204.698 276.76 204.656 276.648 204.656 276.52L204.656 271.864C204.656 271.437 204.586 271.048 204.448 270.696C204.309 270.344 204.08 270.061 203.76 269.848C203.45 269.635 203.04 269.528 202.528 269.528C202.069 269.528 201.632 269.635 201.216 269.848C200.81 270.061 200.48 270.344 200.224 270.696C199.968 271.048 199.84 271.437 199.84 271.864L199.84 276.52C199.84 276.648 199.792 276.76 199.696 276.856C199.6 276.952 199.488 277 199.36 277C199.21 277 199.093 276.952 199.008 276.856C198.922 276.76 198.88 276.648 198.88 276.52L198.88 269.352C198.88 269.224 198.922 269.112 199.008 269.016C199.104 268.92 199.221 268.872 199.36 268.872C199.498 268.872 199.61 268.92 199.696 269.016C199.792 269.112 199.84 269.224 199.84 269.352L199.84 270.696L199.472 271.272C199.493 270.931 199.6 270.605 199.792 270.296C199.994 269.976 200.25 269.693 200.56 269.448C200.869 269.192 201.21 268.995 201.584 268.856C201.968 268.707 202.352 268.632 202.736 268.632ZM214.514 268.824C214.652 268.824 214.764 268.872 214.85 268.968C214.946 269.064 214.994 269.181 214.994 269.32L214.994 276.52C214.994 276.648 214.946 276.76 214.85 276.856C214.754 276.952 214.642 277 214.514 277C214.375 277 214.258 276.952 214.162 276.856C214.076 276.76 214.034 276.648 214.034 276.52L214.034 274.616L214.306 274.488C214.306 274.787 214.22 275.091 214.05 275.4C213.89 275.709 213.666 275.997 213.378 276.264C213.09 276.531 212.748 276.749 212.354 276.92C211.97 277.08 211.554 277.16 211.106 277.16C210.38 277.16 209.73 276.973 209.154 276.6C208.588 276.227 208.14 275.715 207.81 275.064C207.49 274.413 207.33 273.683 207.33 272.872C207.33 272.04 207.495 271.309 207.826 270.68C208.156 270.04 208.604 269.539 209.17 269.176C209.735 268.813 210.375 268.632 211.09 268.632C211.548 268.632 211.975 268.712 212.37 268.872C212.775 269.032 213.127 269.251 213.426 269.528C213.724 269.805 213.954 270.125 214.114 270.488C214.284 270.84 214.37 271.208 214.37 271.592L214.034 271.352L214.034 269.32C214.034 269.181 214.076 269.064 214.162 268.968C214.258 268.872 214.375 268.824 214.514 268.824ZM211.186 276.264C211.751 276.264 212.252 276.12 212.69 275.832C213.127 275.533 213.468 275.128 213.714 274.616C213.97 274.093 214.098 273.512 214.098 272.872C214.098 272.243 213.97 271.677 213.714 271.176C213.468 270.675 213.127 270.275 212.69 269.976C212.252 269.677 211.751 269.528 211.186 269.528C210.631 269.528 210.13 269.672 209.682 269.96C209.244 270.248 208.898 270.643 208.642 271.144C208.396 271.645 208.274 272.221 208.274 272.872C208.274 273.512 208.396 274.093 208.642 274.616C208.898 275.128 209.244 275.533 209.682 275.832C210.119 276.12 210.62 276.264 211.186 276.264ZM216.729 275.704C216.643 275.576 216.601 275.453 216.601 275.336C216.611 275.208 216.681 275.107 216.809 275.032C216.894 274.957 216.99 274.925 217.097 274.936C217.214 274.947 217.321 275 217.417 275.096C217.705 275.469 218.051 275.773 218.457 276.008C218.873 276.232 219.363 276.344 219.929 276.344C220.227 276.344 220.521 276.296 220.809 276.2C221.107 276.093 221.353 275.939 221.545 275.736C221.737 275.523 221.833 275.256 221.833 274.936C221.833 274.605 221.737 274.339 221.545 274.136C221.353 273.933 221.102 273.773 220.793 273.656C220.494 273.539 220.174 273.437 219.833 273.352C219.47 273.256 219.118 273.149 218.777 273.032C218.435 272.904 218.131 272.749 217.865 272.568C217.609 272.376 217.401 272.147 217.241 271.88C217.081 271.613 217.001 271.288 217.001 270.904C217.001 270.456 217.123 270.061 217.369 269.72C217.614 269.379 217.945 269.112 218.361 268.92C218.787 268.728 219.267 268.632 219.801 268.632C220.067 268.632 220.355 268.669 220.665 268.744C220.974 268.808 221.278 268.92 221.577 269.08C221.875 269.24 222.142 269.459 222.377 269.736C222.473 269.832 222.521 269.944 222.521 270.072C222.521 270.189 222.467 270.296 222.361 270.392C222.275 270.456 222.174 270.488 222.057 270.488C221.95 270.488 221.859 270.445 221.785 270.36C221.529 270.072 221.225 269.853 220.873 269.704C220.521 269.555 220.142 269.48 219.737 269.48C219.427 269.48 219.134 269.533 218.857 269.64C218.59 269.736 218.366 269.885 218.185 270.088C218.003 270.291 217.913 270.557 217.913 270.888C217.934 271.197 218.041 271.448 218.233 271.64C218.435 271.832 218.697 271.992 219.017 272.12C219.347 272.248 219.715 272.365 220.121 272.472C220.462 272.557 220.787 272.659 221.097 272.776C221.417 272.893 221.694 273.043 221.929 273.224C222.174 273.395 222.366 273.613 222.505 273.88C222.654 274.147 222.729 274.483 222.729 274.888C222.729 275.357 222.595 275.763 222.329 276.104C222.073 276.445 221.726 276.707 221.289 276.888C220.851 277.069 220.366 277.16 219.833 277.16C219.257 277.16 218.697 277.048 218.153 276.824C217.619 276.6 217.145 276.227 216.729 275.704ZM238.14 268.648C238.257 268.648 238.364 268.691 238.46 268.776C238.566 268.861 238.62 268.979 238.62 269.128C238.62 269.16 238.614 269.197 238.604 269.24C238.593 269.283 238.582 269.315 238.572 269.336L236.108 276.696C236.065 276.792 235.996 276.872 235.9 276.936C235.814 276.989 235.724 277.011 235.628 277C235.436 276.989 235.292 276.888 235.196 276.696L232.94 271.384L233.228 271.448L231.228 276.696C231.142 276.888 230.998 276.989 230.796 277C230.7 277.011 230.604 276.989 230.508 276.936C230.412 276.872 230.348 276.792 230.316 276.696L227.788 269.336C227.756 269.261 227.74 269.192 227.74 269.128C227.74 268.989 227.782 268.877 227.868 268.792C227.964 268.696 228.086 268.648 228.236 268.648C228.332 268.648 228.417 268.675 228.492 268.728C228.577 268.781 228.636 268.861 228.668 268.968L230.94 275.784L230.636 275.768L232.7 270.568C232.785 270.365 232.934 270.264 233.148 270.264C233.254 270.264 233.345 270.291 233.42 270.344C233.494 270.397 233.553 270.472 233.596 270.568L235.788 275.784L235.436 275.8L237.692 268.968C237.756 268.755 237.905 268.648 238.14 268.648ZM243.835 277.16C243.014 277.16 242.288 276.984 241.659 276.632C241.03 276.28 240.539 275.789 240.187 275.16C239.835 274.531 239.659 273.795 239.659 272.952C239.659 272.045 239.835 271.272 240.187 270.632C240.55 269.992 241.014 269.501 241.579 269.16C242.155 268.808 242.763 268.632 243.403 268.632C243.872 268.632 244.326 268.717 244.763 268.888C245.211 269.048 245.606 269.293 245.947 269.624C246.299 269.944 246.576 270.339 246.779 270.808C246.992 271.277 247.11 271.821 247.131 272.44C247.12 272.568 247.067 272.68 246.971 272.776C246.875 272.861 246.763 272.904 246.635 272.904L240.219 272.904L240.027 272.04L246.331 272.04L246.123 272.232L246.123 271.912C246.08 271.411 245.92 270.984 245.643 270.632C245.366 270.28 245.03 270.013 244.635 269.832C244.24 269.651 243.83 269.56 243.403 269.56C243.083 269.56 242.752 269.624 242.411 269.752C242.08 269.88 241.776 270.083 241.499 270.36C241.232 270.627 241.014 270.973 240.843 271.4C240.672 271.816 240.587 272.312 240.587 272.888C240.587 273.517 240.715 274.088 240.971 274.6C241.227 275.112 241.595 275.517 242.075 275.816C242.566 276.115 243.147 276.264 243.819 276.264C244.192 276.264 244.528 276.211 244.827 276.104C245.126 275.997 245.387 275.859 245.611 275.688C245.835 275.507 246.022 275.32 246.171 275.128C246.288 275.032 246.406 274.984 246.523 274.984C246.63 274.984 246.72 275.027 246.795 275.112C246.88 275.197 246.923 275.293 246.923 275.4C246.923 275.528 246.87 275.64 246.763 275.736C246.443 276.12 246.027 276.456 245.515 276.744C245.003 277.021 244.443 277.16 243.835 277.16ZM252.754 268.632C253.479 268.632 254.119 268.813 254.674 269.176C255.239 269.539 255.687 270.04 256.018 270.68C256.349 271.309 256.514 272.04 256.514 272.872C256.514 273.683 256.349 274.413 256.018 275.064C255.687 275.715 255.239 276.227 254.674 276.6C254.109 276.973 253.474 277.16 252.77 277.16C252.397 277.16 252.039 277.101 251.698 276.984C251.367 276.867 251.063 276.712 250.786 276.52C250.509 276.317 250.263 276.083 250.05 275.816C249.837 275.549 249.666 275.261 249.538 274.952L249.826 274.744L249.826 276.552C249.826 276.691 249.778 276.808 249.682 276.904C249.597 276.989 249.485 277.032 249.346 277.032C249.207 277.032 249.09 276.989 248.994 276.904C248.909 276.808 248.866 276.691 248.866 276.552L248.866 265.656C248.866 265.517 248.909 265.405 248.994 265.32C249.079 265.224 249.197 265.176 249.346 265.176C249.485 265.176 249.597 265.224 249.682 265.32C249.778 265.405 249.826 265.517 249.826 265.656L249.826 271.016L249.602 270.888C249.709 270.557 249.863 270.259 250.066 269.992C250.279 269.715 250.525 269.475 250.802 269.272C251.079 269.069 251.383 268.915 251.714 268.808C252.045 268.691 252.391 268.632 252.754 268.632ZM252.674 269.528C252.098 269.528 251.591 269.672 251.154 269.96C250.717 270.248 250.37 270.643 250.114 271.144C249.869 271.645 249.746 272.221 249.746 272.872C249.746 273.512 249.869 274.093 250.114 274.616C250.37 275.128 250.717 275.533 251.154 275.832C251.591 276.12 252.098 276.264 252.674 276.264C253.239 276.264 253.735 276.115 254.162 275.816C254.599 275.517 254.946 275.112 255.202 274.6C255.458 274.077 255.586 273.501 255.586 272.872C255.586 272.221 255.458 271.645 255.202 271.144C254.946 270.643 254.599 270.248 254.162 269.96C253.735 269.672 253.239 269.528 252.674 269.528ZM65.968 288.824C66.1067 288.824 66.2187 288.872 66.304 288.968C66.4 289.064 66.448 289.181 66.448 289.32L66.448 296.52C66.448 296.648 66.4 296.76 66.304 296.856C66.208 296.952 66.096 297 65.968 297C65.8293 297 65.712 296.952 65.616 296.856C65.5307 296.76 65.488 296.648 65.488 296.52L65.488 294.616L65.76 294.488C65.76 294.787 65.6747 295.091 65.504 295.4C65.344 295.709 65.12 295.997 64.832 296.264C64.544 296.531 64.2027 296.749 63.808 296.92C63.424 297.08 63.008 297.16 62.56 297.16C61.8347 297.16 61.184 296.973 60.608 296.6C60.0427 296.227 59.5947 295.715 59.264 295.064C58.944 294.413 58.784 293.683 58.784 292.872C58.784 292.04 58.9493 291.309 59.28 290.68C59.6107 290.04 60.0587 289.539 60.624 289.176C61.1893 288.813 61.8293 288.632 62.544 288.632C63.0027 288.632 63.4293 288.712 63.824 288.872C64.2293 289.032 64.5813 289.251 64.88 289.528C65.1787 289.805 65.408 290.125 65.568 290.488C65.7387 290.84 65.824 291.208 65.824 291.592L65.488 291.352L65.488 289.32C65.488 289.181 65.5307 289.064 65.616 288.968C65.712 288.872 65.8293 288.824 65.968 288.824ZM62.64 296.264C63.2053 296.264 63.7067 296.12 64.144 295.832C64.5813 295.533 64.9227 295.128 65.168 294.616C65.424 294.093 65.552 293.512 65.552 292.872C65.552 292.243 65.424 291.677 65.168 291.176C64.9227 290.675 64.5813 290.275 64.144 289.976C63.7067 289.677 63.2053 289.528 62.64 289.528C62.0853 289.528 61.584 289.672 61.136 289.96C60.6987 290.248 60.352 290.643 60.096 291.144C59.8507 291.645 59.728 292.221 59.728 292.872C59.728 293.512 59.8507 294.093 60.096 294.616C60.352 295.128 60.6987 295.533 61.136 295.832C61.5733 296.12 62.0747 296.264 62.64 296.264ZM68.1191 288.856L71.8471 288.856C71.9751 288.856 72.0818 288.904 72.1671 289C72.2525 289.085 72.2951 289.192 72.2951 289.32C72.2951 289.437 72.2525 289.539 72.1671 289.624C72.0818 289.709 71.9751 289.752 71.8471 289.752L68.1191 289.752C67.9911 289.752 67.8791 289.709 67.7831 289.624C67.6978 289.528 67.6551 289.421 67.6551 289.304C67.6551 289.176 67.6978 289.069 67.7831 288.984C67.8791 288.899 67.9911 288.856 68.1191 288.856ZM69.7671 286.6C69.9058 286.6 70.0178 286.648 70.1031 286.744C70.1991 286.84 70.2471 286.952 70.2471 287.08L70.2471 295.112C70.2471 295.411 70.2845 295.635 70.3591 295.784C70.4445 295.933 70.5511 296.035 70.6791 296.088C70.8071 296.131 70.9351 296.152 71.0631 296.152C71.1485 296.152 71.2231 296.141 71.2871 296.12C71.3618 296.088 71.4418 296.072 71.5271 296.072C71.6231 296.072 71.7031 296.109 71.7671 296.184C71.8418 296.259 71.8791 296.355 71.8791 296.472C71.8791 296.621 71.7938 296.749 71.6231 296.856C71.4525 296.952 71.2498 297 71.0151 297C70.9191 297 70.7751 296.995 70.5831 296.984C70.3911 296.963 70.1938 296.904 69.9911 296.808C69.7885 296.701 69.6178 296.52 69.4791 296.264C69.3511 296.008 69.2871 295.64 69.2871 295.16L69.2871 287.08C69.2871 286.952 69.3298 286.84 69.4151 286.744C69.5111 286.648 69.6285 286.6 69.7671 286.6ZM74.229 297C74.0797 297 73.9623 296.952 73.877 296.856C73.7917 296.76 73.749 296.648 73.749 296.52L73.749 289.352C73.749 289.224 73.7917 289.112 73.877 289.016C73.973 288.92 74.0903 288.872 74.229 288.872C74.3677 288.872 74.4797 288.92 74.565 289.016C74.661 289.112 74.709 289.224 74.709 289.352L74.709 291.752L74.469 291.8C74.501 291.427 74.5917 291.059 74.741 290.696C74.901 290.323 75.1143 289.981 75.381 289.672C75.6477 289.363 75.9623 289.112 76.325 288.92C76.6983 288.728 77.1143 288.632 77.573 288.632C77.765 288.632 77.9517 288.675 78.133 288.76C78.3143 288.835 78.405 288.963 78.405 289.144C78.405 289.304 78.3623 289.427 78.277 289.512C78.1917 289.597 78.0903 289.64 77.973 289.64C77.877 289.64 77.7703 289.613 77.653 289.56C77.5463 289.507 77.4023 289.48 77.221 289.48C76.9223 289.48 76.6237 289.571 76.325 289.752C76.0263 289.923 75.7543 290.157 75.509 290.456C75.2637 290.755 75.0663 291.091 74.917 291.464C74.7783 291.827 74.709 292.195 74.709 292.568L74.709 296.52C74.709 296.648 74.661 296.76 74.565 296.856C74.469 296.952 74.357 297 74.229 297ZM86.1018 288.824C86.2404 288.824 86.3524 288.872 86.4378 288.968C86.5338 289.064 86.5818 289.181 86.5818 289.32L86.5818 296.52C86.5818 296.648 86.5338 296.76 86.4378 296.856C86.3418 296.952 86.2298 297 86.1018 297C85.9631 297 85.8458 296.952 85.7498 296.856C85.6644 296.76 85.6218 296.648 85.6218 296.52L85.6218 294.616L85.8938 294.488C85.8938 294.787 85.8084 295.091 85.6378 295.4C85.4778 295.709 85.2538 295.997 84.9658 296.264C84.6778 296.531 84.3364 296.749 83.9418 296.92C83.5578 297.08 83.1418 297.16 82.6938 297.16C81.9684 297.16 81.3178 296.973 80.7418 296.6C80.1764 296.227 79.7284 295.715 79.3978 295.064C79.0778 294.413 78.9178 293.683 78.9178 292.872C78.9178 292.04 79.0831 291.309 79.4138 290.68C79.7444 290.04 80.1924 289.539 80.7578 289.176C81.3231 288.813 81.9631 288.632 82.6778 288.632C83.1364 288.632 83.5631 288.712 83.9578 288.872C84.3631 289.032 84.7151 289.251 85.0138 289.528C85.3124 289.805 85.5418 290.125 85.7018 290.488C85.8724 290.84 85.9578 291.208 85.9578 291.592L85.6218 291.352L85.6218 289.32C85.6218 289.181 85.6644 289.064 85.7498 288.968C85.8458 288.872 85.9631 288.824 86.1018 288.824ZM82.7738 296.264C83.3391 296.264 83.8404 296.12 84.2778 295.832C84.7151 295.533 85.0564 295.128 85.3018 294.616C85.5578 294.093 85.6858 293.512 85.6858 292.872C85.6858 292.243 85.5578 291.677 85.3018 291.176C85.0564 290.675 84.7151 290.275 84.2778 289.976C83.8404 289.677 83.3391 289.528 82.7738 289.528C82.2191 289.528 81.7178 289.672 81.2698 289.96C80.8324 290.248 80.4858 290.643 80.2298 291.144C79.9844 291.645 79.8618 292.221 79.8618 292.872C79.8618 293.512 79.9844 294.093 80.2298 294.616C80.4858 295.128 80.8324 295.533 81.2698 295.832C81.7071 296.12 82.2084 296.264 82.7738 296.264ZM88.4014 288.648C88.4867 288.648 88.572 288.675 88.6574 288.728C88.7427 288.781 88.8067 288.861 88.8494 288.968L91.6494 295.624L91.4414 295.752L94.3054 288.968C94.3907 288.755 94.5454 288.653 94.7694 288.664C94.876 288.664 94.9774 288.701 95.0734 288.776C95.1694 288.84 95.2174 288.936 95.2174 289.064C95.2174 289.128 95.2067 289.181 95.1854 289.224C95.1747 289.256 95.164 289.293 95.1534 289.336L92.0174 296.696C91.932 296.888 91.788 296.989 91.5854 297C91.4894 297.011 91.3934 296.989 91.2974 296.936C91.212 296.872 91.148 296.792 91.1054 296.696L87.9534 289.336C87.9427 289.315 87.932 289.283 87.9214 289.24C87.9107 289.197 87.9054 289.155 87.9054 289.112C87.9054 288.995 87.948 288.888 88.0334 288.792C88.1187 288.696 88.2414 288.648 88.4014 288.648ZM100.36 297.16C99.5387 297.16 98.8133 296.984 98.184 296.632C97.5547 296.28 97.064 295.789 96.712 295.16C96.36 294.531 96.184 293.795 96.184 292.952C96.184 292.045 96.36 291.272 96.712 290.632C97.0747 289.992 97.5387 289.501 98.104 289.16C98.68 288.808 99.288 288.632 99.928 288.632C100.397 288.632 100.851 288.717 101.288 288.888C101.736 289.048 102.131 289.293 102.472 289.624C102.824 289.944 103.101 290.339 103.304 290.808C103.517 291.277 103.635 291.821 103.656 292.44C103.645 292.568 103.592 292.68 103.496 292.776C103.4 292.861 103.288 292.904 103.16 292.904L96.744 292.904L96.552 292.04L102.856 292.04L102.648 292.232L102.648 291.912C102.605 291.411 102.445 290.984 102.168 290.632C101.891 290.28 101.555 290.013 101.16 289.832C100.765 289.651 100.355 289.56 99.928 289.56C99.608 289.56 99.2773 289.624 98.936 289.752C98.6053 289.88 98.3013 290.083 98.024 290.36C97.7573 290.627 97.5387 290.973 97.368 291.4C97.1973 291.816 97.112 292.312 97.112 292.888C97.112 293.517 97.24 294.088 97.496 294.6C97.752 295.112 98.12 295.517 98.6 295.816C99.0907 296.115 99.672 296.264 100.344 296.264C100.717 296.264 101.053 296.211 101.352 296.104C101.651 295.997 101.912 295.859 102.136 295.688C102.36 295.507 102.547 295.32 102.696 295.128C102.813 295.032 102.931 294.984 103.048 294.984C103.155 294.984 103.245 295.027 103.32 295.112C103.405 295.197 103.448 295.293 103.448 295.4C103.448 295.528 103.395 295.64 103.288 295.736C102.968 296.12 102.552 296.456 102.04 296.744C101.528 297.021 100.968 297.16 100.36 297.16ZM99.8 288.168C99.7467 288.168 99.688 288.141 99.624 288.088C99.5707 288.024 99.544 287.955 99.544 287.88C99.544 287.816 99.5707 287.741 99.624 287.656L100.6 286.136C100.653 286.051 100.723 285.971 100.808 285.896C100.904 285.821 101.016 285.784 101.144 285.784C101.304 285.784 101.432 285.827 101.528 285.912C101.624 285.997 101.667 286.12 101.656 286.28C101.656 286.355 101.64 286.424 101.608 286.488C101.587 286.541 101.549 286.595 101.496 286.648L100.296 287.912C100.232 287.987 100.157 288.051 100.072 288.104C99.9867 288.147 99.896 288.168 99.8 288.168ZM104.927 295.704C104.842 295.576 104.799 295.453 104.799 295.336C104.81 295.208 104.879 295.107 105.007 295.032C105.092 294.957 105.188 294.925 105.295 294.936C105.412 294.947 105.519 295 105.615 295.096C105.903 295.469 106.25 295.773 106.655 296.008C107.071 296.232 107.562 296.344 108.127 296.344C108.426 296.344 108.719 296.296 109.007 296.2C109.306 296.093 109.551 295.939 109.743 295.736C109.935 295.523 110.031 295.256 110.031 294.936C110.031 294.605 109.935 294.339 109.743 294.136C109.551 293.933 109.3 293.773 108.991 293.656C108.692 293.539 108.372 293.437 108.031 293.352C107.668 293.256 107.316 293.149 106.975 293.032C106.634 292.904 106.33 292.749 106.063 292.568C105.807 292.376 105.599 292.147 105.439 291.88C105.279 291.613 105.199 291.288 105.199 290.904C105.199 290.456 105.322 290.061 105.567 289.72C105.812 289.379 106.143 289.112 106.559 288.92C106.986 288.728 107.466 288.632 107.999 288.632C108.266 288.632 108.554 288.669 108.863 288.744C109.172 288.808 109.476 288.92 109.775 289.08C110.074 289.24 110.34 289.459 110.575 289.736C110.671 289.832 110.719 289.944 110.719 290.072C110.719 290.189 110.666 290.296 110.559 290.392C110.474 290.456 110.372 290.488 110.255 290.488C110.148 290.488 110.058 290.445 109.983 290.36C109.727 290.072 109.423 289.853 109.071 289.704C108.719 289.555 108.34 289.48 107.935 289.48C107.626 289.48 107.332 289.533 107.055 289.64C106.788 289.736 106.564 289.885 106.383 290.088C106.202 290.291 106.111 290.557 106.111 290.888C106.132 291.197 106.239 291.448 106.431 291.64C106.634 291.832 106.895 291.992 107.215 292.12C107.546 292.248 107.914 292.365 108.319 292.472C108.66 292.557 108.986 292.659 109.295 292.776C109.615 292.893 109.892 293.043 110.127 293.224C110.372 293.395 110.564 293.613 110.703 293.88C110.852 294.147 110.927 294.483 110.927 294.888C110.927 295.357 110.794 295.763 110.527 296.104C110.271 296.445 109.924 296.707 109.487 296.888C109.05 297.069 108.564 297.16 108.031 297.16C107.455 297.16 106.895 297.048 106.351 296.824C105.818 296.6 105.343 296.227 104.927 295.704ZM123.33 285.16C123.469 285.16 123.581 285.208 123.666 285.304C123.762 285.389 123.81 285.501 123.81 285.64L123.81 296.52C123.81 296.648 123.762 296.76 123.666 296.856C123.57 296.952 123.458 297 123.33 297C123.191 297 123.074 296.952 122.978 296.856C122.893 296.76 122.85 296.648 122.85 296.52L122.85 294.616L123.122 294.392C123.122 294.691 123.042 295.005 122.882 295.336C122.722 295.656 122.493 295.955 122.194 296.232C121.906 296.509 121.565 296.733 121.17 296.904C120.786 297.075 120.37 297.16 119.922 297.16C119.207 297.16 118.562 296.973 117.986 296.6C117.421 296.227 116.973 295.72 116.642 295.08C116.311 294.44 116.146 293.709 116.146 292.888C116.146 292.077 116.311 291.352 116.642 290.712C116.973 290.061 117.421 289.555 117.986 289.192C118.551 288.819 119.191 288.632 119.906 288.632C120.343 288.632 120.759 288.712 121.154 288.872C121.549 289.032 121.895 289.251 122.194 289.528C122.503 289.805 122.743 290.125 122.914 290.488C123.095 290.84 123.186 291.208 123.186 291.592L122.85 291.352L122.85 285.64C122.85 285.512 122.893 285.4 122.978 285.304C123.074 285.208 123.191 285.16 123.33 285.16ZM120.002 296.264C120.578 296.264 121.079 296.12 121.506 295.832C121.943 295.533 122.285 295.133 122.53 294.632C122.786 294.12 122.914 293.539 122.914 292.888C122.914 292.248 122.786 291.677 122.53 291.176C122.285 290.664 121.943 290.264 121.506 289.976C121.069 289.677 120.567 289.528 120.002 289.528C119.447 289.528 118.946 289.677 118.498 289.976C118.061 290.264 117.714 290.664 117.458 291.176C117.213 291.677 117.09 292.248 117.09 292.888C117.09 293.528 117.213 294.104 117.458 294.616C117.714 295.128 118.061 295.533 118.498 295.832C118.946 296.12 119.447 296.264 120.002 296.264ZM133.625 292.904C133.625 293.715 133.449 294.445 133.097 295.096C132.745 295.736 132.265 296.243 131.657 296.616C131.049 296.979 130.356 297.16 129.577 297.16C128.82 297.16 128.132 296.979 127.513 296.616C126.905 296.243 126.42 295.736 126.057 295.096C125.705 294.445 125.529 293.715 125.529 292.904C125.529 292.083 125.705 291.352 126.057 290.712C126.42 290.072 126.905 289.565 127.513 289.192C128.132 288.819 128.82 288.632 129.577 288.632C130.356 288.632 131.049 288.819 131.657 289.192C132.265 289.565 132.745 290.072 133.097 290.712C133.449 291.352 133.625 292.083 133.625 292.904ZM132.665 292.904C132.665 292.253 132.532 291.677 132.265 291.176C131.998 290.664 131.63 290.264 131.161 289.976C130.702 289.677 130.174 289.528 129.577 289.528C129.001 289.528 128.478 289.677 128.009 289.976C127.54 290.264 127.166 290.664 126.889 291.176C126.622 291.677 126.489 292.253 126.489 292.904C126.489 293.555 126.622 294.131 126.889 294.632C127.166 295.133 127.54 295.533 128.009 295.832C128.478 296.12 129.001 296.264 129.577 296.264C130.174 296.264 130.702 296.12 131.161 295.832C131.63 295.533 131.998 295.133 132.265 294.632C132.532 294.131 132.665 293.555 132.665 292.904ZM147.816 286.632C147.944 286.717 148.019 286.829 148.04 286.968C148.062 287.096 148.03 287.224 147.944 287.352C147.87 287.448 147.774 287.501 147.656 287.512C147.539 287.523 147.427 287.501 147.32 287.448C146.915 287.181 146.478 286.973 146.008 286.824C145.55 286.675 145.054 286.6 144.52 286.6C143.87 286.6 143.262 286.717 142.696 286.952C142.142 287.176 141.656 287.507 141.24 287.944C140.824 288.371 140.499 288.877 140.264 289.464C140.04 290.051 139.928 290.696 139.928 291.4C139.928 292.125 140.046 292.787 140.28 293.384C140.515 293.971 140.84 294.477 141.256 294.904C141.683 295.331 142.174 295.656 142.728 295.88C143.283 296.104 143.88 296.216 144.52 296.216C145.043 296.216 145.534 296.141 145.992 295.992C146.462 295.843 146.899 295.64 147.304 295.384C147.411 295.32 147.523 295.299 147.64 295.32C147.768 295.331 147.87 295.389 147.944 295.496C148.04 295.613 148.072 295.741 148.04 295.88C148.019 296.008 147.95 296.109 147.832 296.184C147.566 296.355 147.251 296.515 146.888 296.664C146.526 296.813 146.142 296.931 145.736 297.016C145.331 297.112 144.926 297.16 144.52 297.16C143.752 297.16 143.032 297.021 142.36 296.744C141.688 296.467 141.091 296.077 140.568 295.576C140.046 295.064 139.635 294.456 139.336 293.752C139.048 293.048 138.904 292.264 138.904 291.4C138.904 290.568 139.048 289.805 139.336 289.112C139.624 288.408 140.024 287.8 140.536 287.288C141.048 286.776 141.646 286.376 142.328 286.088C143.011 285.8 143.742 285.656 144.52 285.656C145.128 285.656 145.715 285.741 146.28 285.912C146.846 286.083 147.358 286.323 147.816 286.632ZM152.861 297.16C152.051 297.171 151.347 297.043 150.749 296.776C150.152 296.509 149.581 296.109 149.037 295.576C148.984 295.533 148.936 295.48 148.893 295.416C148.861 295.352 148.845 295.277 148.845 295.192C148.845 295.064 148.893 294.947 148.989 294.84C149.096 294.733 149.213 294.68 149.341 294.68C149.469 294.68 149.587 294.733 149.693 294.84C150.109 295.288 150.579 295.629 151.101 295.864C151.635 296.099 152.205 296.216 152.813 296.216C153.325 296.216 153.779 296.136 154.173 295.976C154.579 295.816 154.899 295.587 155.133 295.288C155.368 294.989 155.485 294.643 155.485 294.248C155.485 293.757 155.352 293.363 155.085 293.064C154.819 292.755 154.467 292.504 154.029 292.312C153.592 292.109 153.107 291.928 152.573 291.768C152.136 291.64 151.72 291.496 151.325 291.336C150.931 291.165 150.579 290.963 150.269 290.728C149.96 290.483 149.72 290.184 149.549 289.832C149.379 289.48 149.293 289.053 149.293 288.552C149.293 287.987 149.443 287.485 149.741 287.048C150.04 286.611 150.461 286.269 151.005 286.024C151.56 285.768 152.2 285.64 152.925 285.64C153.555 285.64 154.157 285.747 154.733 285.96C155.32 286.173 155.784 286.488 156.125 286.904C156.285 287.075 156.365 287.229 156.365 287.368C156.365 287.475 156.312 287.581 156.205 287.688C156.099 287.795 155.981 287.848 155.853 287.848C155.747 287.848 155.656 287.811 155.581 287.736C155.4 287.512 155.171 287.315 154.893 287.144C154.616 286.963 154.307 286.824 153.965 286.728C153.635 286.632 153.288 286.584 152.925 286.584C152.424 286.584 151.971 286.664 151.565 286.824C151.171 286.973 150.856 287.192 150.621 287.48C150.397 287.768 150.285 288.115 150.285 288.52C150.285 288.968 150.413 289.336 150.669 289.624C150.925 289.912 151.261 290.152 151.677 290.344C152.093 290.525 152.536 290.696 153.005 290.856C153.464 290.984 153.901 291.133 154.317 291.304C154.744 291.464 155.117 291.667 155.437 291.912C155.768 292.157 156.024 292.467 156.205 292.84C156.397 293.213 156.493 293.683 156.493 294.248C156.493 294.792 156.339 295.283 156.029 295.72C155.72 296.157 155.293 296.504 154.749 296.76C154.216 297.016 153.587 297.149 152.861 297.16ZM161.526 297.16C160.715 297.171 160.011 297.043 159.414 296.776C158.816 296.509 158.246 296.109 157.702 295.576C157.648 295.533 157.6 295.48 157.558 295.416C157.526 295.352 157.51 295.277 157.51 295.192C157.51 295.064 157.558 294.947 157.654 294.84C157.76 294.733 157.878 294.68 158.006 294.68C158.134 294.68 158.251 294.733 158.358 294.84C158.774 295.288 159.243 295.629 159.766 295.864C160.299 296.099 160.87 296.216 161.478 296.216C161.99 296.216 162.443 296.136 162.838 295.976C163.243 295.816 163.563 295.587 163.798 295.288C164.032 294.989 164.15 294.643 164.15 294.248C164.15 293.757 164.016 293.363 163.75 293.064C163.483 292.755 163.131 292.504 162.694 292.312C162.256 292.109 161.771 291.928 161.238 291.768C160.8 291.64 160.384 291.496 159.99 291.336C159.595 291.165 159.243 290.963 158.934 290.728C158.624 290.483 158.384 290.184 158.214 289.832C158.043 289.48 157.958 289.053 157.958 288.552C157.958 287.987 158.107 287.485 158.406 287.048C158.704 286.611 159.126 286.269 159.67 286.024C160.224 285.768 160.864 285.64 161.59 285.64C162.219 285.64 162.822 285.747 163.398 285.96C163.984 286.173 164.448 286.488 164.79 286.904C164.95 287.075 165.03 287.229 165.03 287.368C165.03 287.475 164.976 287.581 164.87 287.688C164.763 287.795 164.646 287.848 164.518 287.848C164.411 287.848 164.32 287.811 164.246 287.736C164.064 287.512 163.835 287.315 163.558 287.144C163.28 286.963 162.971 286.824 162.63 286.728C162.299 286.632 161.952 286.584 161.59 286.584C161.088 286.584 160.635 286.664 160.23 286.824C159.835 286.973 159.52 287.192 159.286 287.48C159.062 287.768 158.95 288.115 158.95 288.52C158.95 288.968 159.078 289.336 159.334 289.624C159.59 289.912 159.926 290.152 160.342 290.344C160.758 290.525 161.2 290.696 161.67 290.856C162.128 290.984 162.566 291.133 162.982 291.304C163.408 291.464 163.782 291.667 164.102 291.912C164.432 292.157 164.688 292.467 164.87 292.84C165.062 293.213 165.158 293.683 165.158 294.248C165.158 294.792 165.003 295.283 164.694 295.72C164.384 296.157 163.958 296.504 163.414 296.76C162.88 297.016 162.251 297.149 161.526 297.16ZM167.022 295.352C167.075 295.352 167.129 295.363 167.182 295.384C167.246 295.405 167.321 295.453 167.406 295.528C167.63 295.763 167.897 295.944 168.206 296.072C168.515 296.189 168.867 296.248 169.262 296.248C169.785 296.248 170.259 296.131 170.686 295.896C171.123 295.661 171.47 295.336 171.726 294.92C171.982 294.493 172.11 294.008 172.11 293.464C172.11 292.845 171.971 292.349 171.694 291.976C171.427 291.592 171.081 291.309 170.654 291.128C170.238 290.936 169.811 290.84 169.374 290.84C169.257 290.84 169.139 290.851 169.022 290.872C168.915 290.883 168.814 290.899 168.718 290.92C168.622 290.941 168.547 290.952 168.494 290.952C168.355 290.952 168.249 290.909 168.174 290.824C168.099 290.728 168.062 290.611 168.062 290.472C168.062 290.397 168.078 290.333 168.11 290.28C168.142 290.216 168.185 290.147 168.238 290.072L171.486 286.536L171.678 286.792L166.83 286.792C166.702 286.792 166.59 286.749 166.494 286.664C166.409 286.568 166.366 286.456 166.366 286.328C166.366 286.2 166.409 286.093 166.494 286.008C166.59 285.923 166.702 285.88 166.83 285.88L172.206 285.88C172.387 285.88 172.515 285.939 172.59 286.056C172.665 286.163 172.702 286.269 172.702 286.376C172.702 286.44 172.686 286.504 172.654 286.568C172.622 286.621 172.579 286.68 172.526 286.744L169.278 290.28L168.926 290.072C168.958 290.04 169.065 290.008 169.246 289.976C169.438 289.933 169.587 289.912 169.694 289.912C170.281 289.912 170.83 290.051 171.342 290.328C171.865 290.605 172.286 291.005 172.606 291.528C172.937 292.04 173.102 292.675 173.102 293.432C173.102 294.179 172.926 294.835 172.574 295.4C172.222 295.955 171.747 296.387 171.15 296.696C170.553 297.005 169.891 297.16 169.166 297.16C168.729 297.16 168.297 297.085 167.87 296.936C167.443 296.787 167.07 296.563 166.75 296.264C166.675 296.2 166.622 296.136 166.59 296.072C166.558 296.008 166.542 295.944 166.542 295.88C166.542 295.752 166.585 295.635 166.67 295.528C166.766 295.411 166.883 295.352 167.022 295.352ZM175.061 297C174.879 297 174.741 296.941 174.645 296.824C174.549 296.707 174.501 296.557 174.501 296.376L174.501 296.04C174.501 295.848 174.549 295.699 174.645 295.592C174.741 295.485 174.879 295.432 175.061 295.432L175.173 295.432C175.354 295.432 175.493 295.485 175.589 295.592C175.685 295.699 175.733 295.848 175.733 296.04L175.733 296.376C175.733 296.557 175.685 296.707 175.589 296.824C175.493 296.941 175.354 297 175.173 297L175.061 297Z" fill="#363636"/>
<path d="M74.4934 232.977C81.0134 232.977 86.1734 229.137 87.4134 223.377L83.2534 223.377C82.1734 226.937 78.8134 229.217 74.5734 229.217C68.7334 229.217 64.8934 224.817 64.8934 218.057C64.8934 211.297 68.7334 206.897 74.5734 206.897C78.7734 206.897 82.0134 209.177 83.0934 212.937L87.2934 212.937C86.2134 207.017 81.2134 203.137 74.6934 203.137C66.4134 203.137 60.7734 209.177 60.7734 218.097C60.7734 227.057 66.2534 232.977 74.4934 232.977ZM91.3399 211.417C91.3399 215.577 93.7799 218.297 98.4999 219.377L103.26 220.457C106.02 221.097 107.26 222.537 107.26 224.817C107.26 227.697 104.82 229.497 100.98 229.497C97.3399 229.497 95.0199 227.737 94.9399 224.977L90.9399 224.977C91.1799 229.937 95.0999 233.017 100.98 233.017C107.14 233.017 111.18 229.697 111.18 224.497C111.18 220.417 108.78 217.857 104.06 216.777L99.2999 215.657C96.5799 215.017 95.2599 213.617 95.2599 211.297C95.2599 208.457 97.6199 206.617 101.26 206.617C104.5 206.617 106.54 208.297 106.74 211.177L110.7 211.177C110.38 206.177 106.82 203.097 101.3 203.097C95.3399 203.097 91.3399 206.457 91.3399 211.417ZM115.382 211.417C115.382 215.577 117.822 218.297 122.542 219.377L127.302 220.457C130.062 221.097 131.302 222.537 131.302 224.817C131.302 227.697 128.862 229.497 125.022 229.497C121.382 229.497 119.062 227.737 118.982 224.977L114.982 224.977C115.222 229.937 119.142 233.017 125.022 233.017C131.182 233.017 135.222 229.697 135.222 224.497C135.222 220.417 132.822 217.857 128.102 216.777L123.342 215.657C120.622 215.017 119.302 213.617 119.302 211.297C119.302 208.457 121.662 206.617 125.302 206.617C128.542 206.617 130.582 208.297 130.782 211.177L134.742 211.177C134.422 206.177 130.862 203.097 125.342 203.097C119.382 203.097 115.382 206.457 115.382 211.417Z" fill="#3C2A56"/>
<g clip-path="url(#clip0_92_524)">
<path d="M170.061 174.115L122.04 160.735L111.338 40.2733L228.928 40.2733L218.216 160.717L170.061 174.115Z" fill="#264DE4"/>
<path d="M209.044 153.047L218.199 50.1226L170.133 50.1226L170.133 163.874L209.044 153.047Z" fill="#2965F1"/>
<path d="M135.871 94.8004L137.191 109.575L170.133 109.575L170.133 94.8004L135.871 94.8004ZM133.22 64.8972L134.558 79.6714L170.133 79.6714L170.133 64.8972L133.22 64.8972ZM170.133 133.171L170.069 133.188L153.674 128.745L152.626 116.962L137.848 116.962L139.911 140.16L170.066 148.56L170.133 148.542L170.133 133.171Z" fill="#EBEBEB"/>
<path d="M139.013 7.53662L156.842 7.53662L156.842 15.0197L146.469 15.0197L146.469 22.5028L156.843 22.5028L156.843 29.9854L139.013 29.9854L139.013 7.53662ZM160.408 7.53662L178.238 7.53662L178.238 14.0436L167.864 14.0436L167.864 15.3449L178.238 15.3449L178.238 30.3111L160.408 30.3111L160.408 23.478L170.782 23.478L170.782 22.1766L160.408 22.1766L160.408 7.53662ZM181.804 7.53662L199.633 7.53662L199.633 14.0436L189.26 14.0436L189.26 15.3449L199.633 15.3449L199.633 30.3111L181.804 30.3111L181.804 23.478L192.177 23.478L192.177 22.1766L181.804 22.1766L181.804 7.53662L181.804 7.53662Z" fill="#FCFCFC"/>
<path d="M204.301 94.8004L206.959 64.8972L170.083 64.8972L170.083 79.6714L190.826 79.6714L189.486 94.8004L170.083 94.8004L170.083 109.575L188.21 109.575L186.501 128.736L170.082 133.183L170.082 148.554L200.261 140.16L200.482 137.663L203.942 98.7677L204.301 94.8004Z" fill="white"/>
</g>
<defs>
<filter id="filter0_d_92_524" x="0.917175" y="51.5366" width="341" height="360" filterUnits="userSpaceOnUse" color-interpolation-filters="sRGB">
<feFlood flood-opacity="0" result="BackgroundImageFix"/>
<feColorMatrix in="SourceAlpha" type="matrix" values="0 0 0 0 0 0 0 0 0 0 0 0 0 0 0 0 0 0 127 0" result="hardAlpha"/>
<feOffset dy="9"/>
<feGaussianBlur stdDeviation="13.5"/>
<feColorMatrix type="matrix" values="0 0 0 0 0 0 0 0 0 0 0 0 0 0 0 0 0 0 0.1 0"/>
<feBlend mode="normal" in2="BackgroundImageFix" result="effect1_dropShadow_92_524"/>
<feBlend mode="normal" in="SourceGraphic" in2="effect1_dropShadow_92_524" result="shape"/>
</filter>
<clipPath id="clip0_92_524">
<rect width="118" height="167" fill="white" transform="translate(111.133 7.53662)"/>
</clipPath>
</defs>
</svg>
