<svg width="342" height="388" viewBox="0 0 342 388" fill="none" xmlns="http://www.w3.org/2000/svg">
<g filter="url(#filter0_d_393_461)">
<rect x="27.0748" y="45.9167" width="287" height="306" rx="20" fill="white"/>
</g>
<path d="M68.688 240.112C68.688 241.04 68.368 241.813 67.728 242.432C67.0987 243.04 66.1333 243.344 64.832 243.344H62.688V248H61.232V236.848H64.832C66.0907 236.848 67.0453 237.152 67.696 237.76C68.3573 238.368 68.688 239.152 68.688 240.112ZM64.832 242.144C65.6427 242.144 66.24 241.968 66.624 241.616C67.008 241.264 67.2 240.763 67.2 240.112C67.2 238.736 66.4107 238.048 64.832 238.048H62.688V242.144H64.832ZM71.6336 236.16V248H70.1776V236.16H71.6336ZM81.5711 239.232V248H80.1151V246.704C79.8378 247.152 79.4485 247.504 78.9471 247.76C78.4565 248.005 77.9125 248.128 77.3151 248.128C76.6325 248.128 76.0191 247.989 75.4751 247.712C74.9311 247.424 74.4991 246.997 74.1791 246.432C73.8698 245.867 73.7151 245.179 73.7151 244.368V239.232H75.1551V244.176C75.1551 245.04 75.3738 245.707 75.8111 246.176C76.2485 246.635 76.8458 246.864 77.6031 246.864C78.3818 246.864 78.9951 246.624 79.4431 246.144C79.8911 245.664 80.1151 244.965 80.1151 244.048V239.232H81.5711ZM87.3255 239.088C88.0828 239.088 88.7442 239.253 89.3095 239.584C89.8855 239.915 90.3122 240.331 90.5895 240.832V239.232H92.0615V248.192C92.0615 248.992 91.8908 249.701 91.5495 250.32C91.2082 250.949 90.7175 251.44 90.0775 251.792C89.4482 252.144 88.7122 252.32 87.8695 252.32C86.7175 252.32 85.7575 252.048 84.9895 251.504C84.2215 250.96 83.7682 250.219 83.6295 249.28H85.0695C85.2295 249.813 85.5602 250.24 86.0615 250.56C86.5628 250.891 87.1655 251.056 87.8695 251.056C88.6695 251.056 89.3202 250.805 89.8215 250.304C90.3335 249.803 90.5895 249.099 90.5895 248.192V246.352C90.3015 246.864 89.8748 247.291 89.3095 247.632C88.7442 247.973 88.0828 248.144 87.3255 248.144C86.5468 248.144 85.8375 247.952 85.1975 247.568C84.5682 247.184 84.0722 246.645 83.7095 245.952C83.3468 245.259 83.1655 244.469 83.1655 243.584C83.1655 242.688 83.3468 241.904 83.7095 241.232C84.0722 240.549 84.5682 240.021 85.1975 239.648C85.8375 239.275 86.5468 239.088 87.3255 239.088ZM90.5895 243.6C90.5895 242.939 90.4562 242.363 90.1895 241.872C89.9228 241.381 89.5602 241.008 89.1015 240.752C88.6535 240.485 88.1575 240.352 87.6135 240.352C87.0695 240.352 86.5735 240.48 86.1255 240.736C85.6775 240.992 85.3202 241.365 85.0535 241.856C84.7868 242.347 84.6535 242.923 84.6535 243.584C84.6535 244.256 84.7868 244.843 85.0535 245.344C85.3202 245.835 85.6775 246.213 86.1255 246.48C86.5735 246.736 87.0695 246.864 87.6135 246.864C88.1575 246.864 88.6535 246.736 89.1015 246.48C89.5602 246.213 89.9228 245.835 90.1895 245.344C90.4562 244.843 90.5895 244.261 90.5895 243.6ZM94.954 237.808C94.6767 237.808 94.442 237.712 94.25 237.52C94.058 237.328 93.962 237.093 93.962 236.816C93.962 236.539 94.058 236.304 94.25 236.112C94.442 235.92 94.6767 235.824 94.954 235.824C95.2207 235.824 95.4447 235.92 95.626 236.112C95.818 236.304 95.914 236.539 95.914 236.816C95.914 237.093 95.818 237.328 95.626 237.52C95.4447 237.712 95.2207 237.808 94.954 237.808ZM95.658 239.232V248H94.202V239.232H95.658ZM102.092 239.072C103.158 239.072 104.022 239.397 104.684 240.048C105.345 240.688 105.676 241.616 105.676 242.832V248H104.236V243.04C104.236 242.165 104.017 241.499 103.58 241.04C103.142 240.571 102.545 240.336 101.788 240.336C101.02 240.336 100.406 240.576 99.9475 241.056C99.4995 241.536 99.2755 242.235 99.2755 243.152V248H97.8195V239.232H99.2755V240.48C99.5635 240.032 99.9528 239.685 100.444 239.44C100.945 239.195 101.494 239.072 102.092 239.072ZM119.455 239.232V248H117.999V246.704C117.722 247.152 117.333 247.504 116.831 247.76C116.341 248.005 115.797 248.128 115.199 248.128C114.517 248.128 113.903 247.989 113.359 247.712C112.815 247.424 112.383 246.997 112.063 246.432C111.754 245.867 111.599 245.179 111.599 244.368V239.232H113.039V244.176C113.039 245.04 113.258 245.707 113.695 246.176C114.133 246.635 114.73 246.864 115.487 246.864C116.266 246.864 116.879 246.624 117.327 246.144C117.775 245.664 117.999 244.965 117.999 244.048V239.232H119.455ZM123.37 240.432V245.6C123.37 246.027 123.461 246.331 123.642 246.512C123.823 246.683 124.138 246.768 124.586 246.768H125.658V248H124.346C123.535 248 122.927 247.813 122.522 247.44C122.117 247.067 121.914 246.453 121.914 245.6V240.432H120.778V239.232H121.914V237.024H123.37V239.232H125.658V240.432H123.37ZM127.854 237.808C127.577 237.808 127.342 237.712 127.15 237.52C126.958 237.328 126.862 237.093 126.862 236.816C126.862 236.539 126.958 236.304 127.15 236.112C127.342 235.92 127.577 235.824 127.854 235.824C128.121 235.824 128.345 235.92 128.526 236.112C128.718 236.304 128.814 236.539 128.814 236.816C128.814 237.093 128.718 237.328 128.526 237.52C128.345 237.712 128.121 237.808 127.854 237.808ZM128.558 239.232V248H127.102V239.232H128.558ZM132.176 236.16V248H130.72V236.16H132.176ZM135.089 237.808C134.812 237.808 134.577 237.712 134.385 237.52C134.193 237.328 134.097 237.093 134.097 236.816C134.097 236.539 134.193 236.304 134.385 236.112C134.577 235.92 134.812 235.824 135.089 235.824C135.356 235.824 135.58 235.92 135.761 236.112C135.953 236.304 136.049 236.539 136.049 236.816C136.049 237.093 135.953 237.328 135.761 237.52C135.58 237.712 135.356 237.808 135.089 237.808ZM135.793 239.232V248H134.337V239.232H135.793ZM139.043 246.8H143.347V248H137.379V246.8L141.635 240.416H137.411V239.232H143.315V240.416L139.043 246.8ZM144.372 243.584C144.372 242.688 144.553 241.904 144.916 241.232C145.278 240.549 145.774 240.021 146.404 239.648C147.044 239.275 147.753 239.088 148.532 239.088C149.3 239.088 149.966 239.253 150.532 239.584C151.097 239.915 151.518 240.331 151.796 240.832V239.232H153.268V248H151.796V246.368C151.508 246.88 151.076 247.307 150.5 247.648C149.934 247.979 149.273 248.144 148.516 248.144C147.737 248.144 147.033 247.952 146.404 247.568C145.774 247.184 145.278 246.645 144.916 245.952C144.553 245.259 144.372 244.469 144.372 243.584ZM151.796 243.6C151.796 242.939 151.662 242.363 151.396 241.872C151.129 241.381 150.766 241.008 150.308 240.752C149.86 240.485 149.364 240.352 148.82 240.352C148.276 240.352 147.78 240.48 147.332 240.736C146.884 240.992 146.526 241.365 146.26 241.856C145.993 242.347 145.86 242.923 145.86 243.584C145.86 244.256 145.993 244.843 146.26 245.344C146.526 245.835 146.884 246.213 147.332 246.48C147.78 246.736 148.276 246.864 148.82 246.864C149.364 246.864 149.86 246.736 150.308 246.48C150.766 246.213 151.129 245.835 151.396 245.344C151.662 244.843 151.796 244.261 151.796 243.6ZM154.864 243.584C154.864 242.688 155.046 241.904 155.408 241.232C155.771 240.549 156.267 240.021 156.896 239.648C157.536 239.275 158.251 239.088 159.04 239.088C159.723 239.088 160.358 239.248 160.944 239.568C161.531 239.877 161.979 240.288 162.288 240.8V236.16H163.76V248H162.288V246.352C162 246.875 161.574 247.307 161.008 247.648C160.443 247.979 159.782 248.144 159.024 248.144C158.246 248.144 157.536 247.952 156.896 247.568C156.267 247.184 155.771 246.645 155.408 245.952C155.046 245.259 154.864 244.469 154.864 243.584ZM162.288 243.6C162.288 242.939 162.155 242.363 161.888 241.872C161.622 241.381 161.259 241.008 160.8 240.752C160.352 240.485 159.856 240.352 159.312 240.352C158.768 240.352 158.272 240.48 157.824 240.736C157.376 240.992 157.019 241.365 156.752 241.856C156.486 242.347 156.352 242.923 156.352 243.584C156.352 244.256 156.486 244.843 156.752 245.344C157.019 245.835 157.376 246.213 157.824 246.48C158.272 246.736 158.768 246.864 159.312 246.864C159.856 246.864 160.352 246.736 160.8 246.48C161.259 246.213 161.622 245.835 161.888 245.344C162.155 244.843 162.288 244.261 162.288 243.6ZM169.725 248.144C168.903 248.144 168.157 247.957 167.485 247.584C166.823 247.211 166.301 246.683 165.917 246C165.543 245.307 165.357 244.507 165.357 243.6C165.357 242.704 165.549 241.915 165.933 241.232C166.327 240.539 166.861 240.011 167.533 239.648C168.205 239.275 168.957 239.088 169.789 239.088C170.621 239.088 171.373 239.275 172.045 239.648C172.717 240.011 173.245 240.533 173.629 241.216C174.023 241.899 174.221 242.693 174.221 243.6C174.221 244.507 174.018 245.307 173.613 246C173.218 246.683 172.679 247.211 171.997 247.584C171.314 247.957 170.557 248.144 169.725 248.144ZM169.725 246.864C170.247 246.864 170.738 246.741 171.197 246.496C171.655 246.251 172.023 245.883 172.301 245.392C172.589 244.901 172.733 244.304 172.733 243.6C172.733 242.896 172.594 242.299 172.317 241.808C172.039 241.317 171.677 240.955 171.229 240.72C170.781 240.475 170.295 240.352 169.773 240.352C169.239 240.352 168.749 240.475 168.301 240.72C167.863 240.955 167.511 241.317 167.245 241.808C166.978 242.299 166.845 242.896 166.845 243.6C166.845 244.315 166.973 244.917 167.229 245.408C167.495 245.899 167.847 246.267 168.285 246.512C168.722 246.747 169.202 246.864 169.725 246.864ZM184.033 239.072C185.099 239.072 185.963 239.397 186.625 240.048C187.286 240.688 187.617 241.616 187.617 242.832V248H186.177V243.04C186.177 242.165 185.958 241.499 185.521 241.04C185.083 240.571 184.486 240.336 183.729 240.336C182.961 240.336 182.347 240.576 181.889 241.056C181.441 241.536 181.217 242.235 181.217 243.152V248H179.761V239.232H181.217V240.48C181.505 240.032 181.894 239.685 182.385 239.44C182.886 239.195 183.435 239.072 184.033 239.072ZM193.499 248.144C192.678 248.144 191.931 247.957 191.259 247.584C190.598 247.211 190.075 246.683 189.691 246C189.318 245.307 189.131 244.507 189.131 243.6C189.131 242.704 189.323 241.915 189.707 241.232C190.102 240.539 190.635 240.011 191.307 239.648C191.979 239.275 192.731 239.088 193.563 239.088C194.395 239.088 195.147 239.275 195.819 239.648C196.491 240.011 197.019 240.533 197.403 241.216C197.798 241.899 197.995 242.693 197.995 243.6C197.995 244.507 197.792 245.307 197.387 246C196.992 246.683 196.454 247.211 195.771 247.584C195.088 247.957 194.331 248.144 193.499 248.144ZM193.499 246.864C194.022 246.864 194.512 246.741 194.971 246.496C195.43 246.251 195.798 245.883 196.075 245.392C196.363 244.901 196.507 244.304 196.507 243.6C196.507 242.896 196.368 242.299 196.091 241.808C195.814 241.317 195.451 240.955 195.003 240.72C194.555 240.475 194.07 240.352 193.547 240.352C193.014 240.352 192.523 240.475 192.075 240.72C191.638 240.955 191.286 241.317 191.019 241.808C190.752 242.299 190.619 242.896 190.619 243.6C190.619 244.315 190.747 244.917 191.003 245.408C191.27 245.899 191.622 246.267 192.059 246.512C192.496 246.747 192.976 246.864 193.499 246.864ZM75.248 260.848L72.016 272H70.384L67.792 263.024L65.104 272L63.488 272.016L60.368 260.848H61.92L64.352 270.304L67.04 260.848H68.672L71.232 270.272L73.68 260.848H75.248ZM80.3454 272.144C79.524 272.144 78.7774 271.957 78.1054 271.584C77.444 271.211 76.9214 270.683 76.5374 270C76.164 269.307 75.9774 268.507 75.9774 267.6C75.9774 266.704 76.1694 265.915 76.5534 265.232C76.948 264.539 77.4814 264.011 78.1534 263.648C78.8254 263.275 79.5774 263.088 80.4094 263.088C81.2414 263.088 81.9934 263.275 82.6654 263.648C83.3374 264.011 83.8654 264.533 84.2494 265.216C84.644 265.899 84.8414 266.693 84.8414 267.6C84.8414 268.507 84.6387 269.307 84.2334 270C83.8387 270.683 83.3 271.211 82.6174 271.584C81.9347 271.957 81.1774 272.144 80.3454 272.144ZM80.3454 270.864C80.868 270.864 81.3587 270.741 81.8174 270.496C82.276 270.251 82.644 269.883 82.9214 269.392C83.2094 268.901 83.3534 268.304 83.3534 267.6C83.3534 266.896 83.2147 266.299 82.9374 265.808C82.66 265.317 82.2974 264.955 81.8494 264.72C81.4014 264.475 80.916 264.352 80.3934 264.352C79.86 264.352 79.3694 264.475 78.9214 264.72C78.484 264.955 78.132 265.317 77.8654 265.808C77.5987 266.299 77.4654 266.896 77.4654 267.6C77.4654 268.315 77.5934 268.917 77.8494 269.408C78.116 269.899 78.468 270.267 78.9054 270.512C79.3427 270.747 79.8227 270.864 80.3454 270.864ZM87.8918 264.656C88.1478 264.155 88.5104 263.765 88.9798 263.488C89.4598 263.211 90.0411 263.072 90.7238 263.072V264.576H90.3398C88.7078 264.576 87.8918 265.461 87.8918 267.232V272H86.4358V263.232H87.8918V264.656ZM91.5405 267.584C91.5405 266.688 91.7218 265.904 92.0845 265.232C92.4472 264.549 92.9432 264.021 93.5725 263.648C94.2125 263.275 94.9272 263.088 95.7165 263.088C96.3992 263.088 97.0338 263.248 97.6205 263.568C98.2072 263.877 98.6552 264.288 98.9645 264.8V260.16H100.437V272H98.9645V270.352C98.6765 270.875 98.2498 271.307 97.6845 271.648C97.1192 271.979 96.4578 272.144 95.7005 272.144C94.9218 272.144 94.2125 271.952 93.5725 271.568C92.9432 271.184 92.4472 270.645 92.0845 269.952C91.7218 269.259 91.5405 268.469 91.5405 267.584ZM98.9645 267.6C98.9645 266.939 98.8312 266.363 98.5645 265.872C98.2978 265.381 97.9352 265.008 97.4765 264.752C97.0285 264.485 96.5325 264.352 95.9885 264.352C95.4445 264.352 94.9485 264.48 94.5005 264.736C94.0525 264.992 93.6952 265.365 93.4285 265.856C93.1618 266.347 93.0285 266.923 93.0285 267.584C93.0285 268.256 93.1618 268.843 93.4285 269.344C93.6952 269.835 94.0525 270.213 94.5005 270.48C94.9485 270.736 95.4445 270.864 95.9885 270.864C96.5325 270.864 97.0285 270.736 97.4765 270.48C97.9352 270.213 98.2978 269.835 98.5645 269.344C98.8312 268.843 98.9645 268.261 98.9645 267.6ZM104.033 264.848C104.321 264.347 104.748 263.931 105.313 263.6C105.889 263.259 106.556 263.088 107.313 263.088C108.092 263.088 108.796 263.275 109.425 263.648C110.065 264.021 110.566 264.549 110.929 265.232C111.292 265.904 111.473 266.688 111.473 267.584C111.473 268.469 111.292 269.259 110.929 269.952C110.566 270.645 110.065 271.184 109.425 271.568C108.796 271.952 108.092 272.144 107.313 272.144C106.566 272.144 105.905 271.979 105.329 271.648C104.764 271.307 104.332 270.885 104.033 270.384V276.16H102.577V263.232H104.033V264.848ZM109.985 267.584C109.985 266.923 109.852 266.347 109.585 265.856C109.318 265.365 108.956 264.992 108.497 264.736C108.049 264.48 107.553 264.352 107.009 264.352C106.476 264.352 105.98 264.485 105.521 264.752C105.073 265.008 104.71 265.387 104.433 265.888C104.166 266.379 104.033 266.949 104.033 267.6C104.033 268.261 104.166 268.843 104.433 269.344C104.71 269.835 105.073 270.213 105.521 270.48C105.98 270.736 106.476 270.864 107.009 270.864C107.553 270.864 108.049 270.736 108.497 270.48C108.956 270.213 109.318 269.835 109.585 269.344C109.852 268.843 109.985 268.256 109.985 267.584ZM114.526 264.656C114.782 264.155 115.144 263.765 115.614 263.488C116.094 263.211 116.675 263.072 117.358 263.072V264.576H116.974C115.342 264.576 114.526 265.461 114.526 267.232V272H113.07V263.232H114.526V264.656ZM126.718 267.28C126.718 267.557 126.702 267.851 126.67 268.16H119.662C119.716 269.024 120.009 269.701 120.542 270.192C121.086 270.672 121.742 270.912 122.51 270.912C123.14 270.912 123.662 270.768 124.078 270.48C124.505 270.181 124.804 269.787 124.974 269.296H126.542C126.308 270.139 125.838 270.827 125.134 271.36C124.43 271.883 123.556 272.144 122.51 272.144C121.678 272.144 120.932 271.957 120.27 271.584C119.62 271.211 119.108 270.683 118.734 270C118.361 269.307 118.174 268.507 118.174 267.6C118.174 266.693 118.356 265.899 118.718 265.216C119.081 264.533 119.588 264.011 120.238 263.648C120.9 263.275 121.657 263.088 122.51 263.088C123.342 263.088 124.078 263.269 124.718 263.632C125.358 263.995 125.849 264.496 126.19 265.136C126.542 265.765 126.718 266.48 126.718 267.28ZM125.214 266.976C125.214 266.421 125.092 265.947 124.846 265.552C124.601 265.147 124.265 264.843 123.838 264.64C123.422 264.427 122.958 264.32 122.446 264.32C121.71 264.32 121.081 264.555 120.558 265.024C120.046 265.493 119.753 266.144 119.678 266.976H125.214ZM131.424 272.144C130.752 272.144 130.149 272.032 129.616 271.808C129.083 271.573 128.661 271.253 128.352 270.848C128.043 270.432 127.872 269.957 127.84 269.424H129.344C129.387 269.861 129.589 270.219 129.952 270.496C130.325 270.773 130.811 270.912 131.408 270.912C131.963 270.912 132.4 270.789 132.72 270.544C133.04 270.299 133.2 269.989 133.2 269.616C133.2 269.232 133.029 268.949 132.688 268.768C132.347 268.576 131.819 268.389 131.104 268.208C130.453 268.037 129.92 267.867 129.504 267.696C129.099 267.515 128.747 267.253 128.448 266.912C128.16 266.56 128.016 266.101 128.016 265.536C128.016 265.088 128.149 264.677 128.416 264.304C128.683 263.931 129.061 263.637 129.552 263.424C130.043 263.2 130.603 263.088 131.232 263.088C132.203 263.088 132.987 263.333 133.584 263.824C134.181 264.315 134.501 264.987 134.544 265.84H133.088C133.056 265.381 132.869 265.013 132.528 264.736C132.197 264.459 131.749 264.32 131.184 264.32C130.661 264.32 130.245 264.432 129.936 264.656C129.627 264.88 129.472 265.173 129.472 265.536C129.472 265.824 129.563 266.064 129.744 266.256C129.936 266.437 130.171 266.587 130.448 266.704C130.736 266.811 131.131 266.933 131.632 267.072C132.261 267.243 132.773 267.413 133.168 267.584C133.563 267.744 133.899 267.989 134.176 268.32C134.464 268.651 134.613 269.083 134.624 269.616C134.624 270.096 134.491 270.528 134.224 270.912C133.957 271.296 133.579 271.6 133.088 271.824C132.608 272.037 132.053 272.144 131.424 272.144ZM139.464 272.144C138.792 272.144 138.189 272.032 137.656 271.808C137.122 271.573 136.701 271.253 136.392 270.848C136.082 270.432 135.912 269.957 135.88 269.424H137.384C137.426 269.861 137.629 270.219 137.992 270.496C138.365 270.773 138.85 270.912 139.448 270.912C140.002 270.912 140.44 270.789 140.76 270.544C141.08 270.299 141.24 269.989 141.24 269.616C141.24 269.232 141.069 268.949 140.728 268.768C140.386 268.576 139.858 268.389 139.144 268.208C138.493 268.037 137.96 267.867 137.544 267.696C137.138 267.515 136.786 267.253 136.488 266.912C136.2 266.56 136.056 266.101 136.056 265.536C136.056 265.088 136.189 264.677 136.456 264.304C136.722 263.931 137.101 263.637 137.592 263.424C138.082 263.2 138.642 263.088 139.272 263.088C140.242 263.088 141.026 263.333 141.624 263.824C142.221 264.315 142.541 264.987 142.584 265.84H141.128C141.096 265.381 140.909 265.013 140.568 264.736C140.237 264.459 139.789 264.32 139.224 264.32C138.701 264.32 138.285 264.432 137.976 264.656C137.666 264.88 137.512 265.173 137.512 265.536C137.512 265.824 137.602 266.064 137.784 266.256C137.976 266.437 138.21 266.587 138.488 266.704C138.776 266.811 139.17 266.933 139.672 267.072C140.301 267.243 140.813 267.413 141.208 267.584C141.602 267.744 141.938 267.989 142.216 268.32C142.504 268.651 142.653 269.083 142.664 269.616C142.664 270.096 142.53 270.528 142.264 270.912C141.997 271.296 141.618 271.6 141.128 271.824C140.648 272.037 140.093 272.144 139.464 272.144ZM149.801 264.848C150.089 264.347 150.515 263.931 151.081 263.6C151.657 263.259 152.323 263.088 153.081 263.088C153.859 263.088 154.563 263.275 155.193 263.648C155.833 264.021 156.334 264.549 156.697 265.232C157.059 265.904 157.241 266.688 157.241 267.584C157.241 268.469 157.059 269.259 156.697 269.952C156.334 270.645 155.833 271.184 155.193 271.568C154.563 271.952 153.859 272.144 153.081 272.144C152.334 272.144 151.673 271.979 151.097 271.648C150.531 271.307 150.099 270.885 149.801 270.384V276.16H148.345V263.232H149.801V264.848ZM155.753 267.584C155.753 266.923 155.619 266.347 155.353 265.856C155.086 265.365 154.723 264.992 154.265 264.736C153.817 264.48 153.321 264.352 152.777 264.352C152.243 264.352 151.747 264.485 151.289 264.752C150.841 265.008 150.478 265.387 150.201 265.888C149.934 266.379 149.801 266.949 149.801 267.6C149.801 268.261 149.934 268.843 150.201 269.344C150.478 269.835 150.841 270.213 151.289 270.48C151.747 270.736 152.243 270.864 152.777 270.864C153.321 270.864 153.817 270.736 154.265 270.48C154.723 270.213 155.086 269.835 155.353 269.344C155.619 268.843 155.753 268.256 155.753 267.584ZM158.293 267.584C158.293 266.688 158.474 265.904 158.837 265.232C159.2 264.549 159.696 264.021 160.325 263.648C160.965 263.275 161.674 263.088 162.453 263.088C163.221 263.088 163.888 263.253 164.453 263.584C165.018 263.915 165.44 264.331 165.717 264.832V263.232H167.189V272H165.717V270.368C165.429 270.88 164.997 271.307 164.421 271.648C163.856 271.979 163.194 272.144 162.437 272.144C161.658 272.144 160.954 271.952 160.325 271.568C159.696 271.184 159.2 270.645 158.837 269.952C158.474 269.259 158.293 268.469 158.293 267.584ZM165.717 267.6C165.717 266.939 165.584 266.363 165.317 265.872C165.05 265.381 164.688 265.008 164.229 264.752C163.781 264.485 163.285 264.352 162.741 264.352C162.197 264.352 161.701 264.48 161.253 264.736C160.805 264.992 160.448 265.365 160.181 265.856C159.914 266.347 159.781 266.923 159.781 267.584C159.781 268.256 159.914 268.843 160.181 269.344C160.448 269.835 160.805 270.213 161.253 270.48C161.701 270.736 162.197 270.864 162.741 270.864C163.285 270.864 163.781 270.736 164.229 270.48C164.688 270.213 165.05 269.835 165.317 269.344C165.584 268.843 165.717 268.261 165.717 267.6ZM170.786 264.656C171.042 264.155 171.404 263.765 171.874 263.488C172.354 263.211 172.935 263.072 173.618 263.072V264.576H173.234C171.602 264.576 170.786 265.461 170.786 267.232V272H169.33V263.232H170.786V264.656ZM174.434 267.584C174.434 266.688 174.616 265.904 174.978 265.232C175.341 264.549 175.837 264.021 176.466 263.648C177.106 263.275 177.816 263.088 178.594 263.088C179.362 263.088 180.029 263.253 180.594 263.584C181.16 263.915 181.581 264.331 181.858 264.832V263.232H183.33V272H181.858V270.368C181.57 270.88 181.138 271.307 180.562 271.648C179.997 271.979 179.336 272.144 178.578 272.144C177.8 272.144 177.096 271.952 176.466 271.568C175.837 271.184 175.341 270.645 174.978 269.952C174.616 269.259 174.434 268.469 174.434 267.584ZM181.858 267.6C181.858 266.939 181.725 266.363 181.458 265.872C181.192 265.381 180.829 265.008 180.37 264.752C179.922 264.485 179.426 264.352 178.882 264.352C178.338 264.352 177.842 264.48 177.394 264.736C176.946 264.992 176.589 265.365 176.322 265.856C176.056 266.347 175.922 266.923 175.922 267.584C175.922 268.256 176.056 268.843 176.322 269.344C176.589 269.835 176.946 270.213 177.394 270.48C177.842 270.736 178.338 270.864 178.882 270.864C179.426 270.864 179.922 270.736 180.37 270.48C180.829 270.213 181.192 269.835 181.458 269.344C181.725 268.843 181.858 268.261 181.858 267.6ZM188.872 267.584C188.872 266.688 189.054 265.904 189.416 265.232C189.779 264.549 190.275 264.021 190.904 263.648C191.544 263.275 192.254 263.088 193.032 263.088C193.8 263.088 194.467 263.253 195.032 263.584C195.598 263.915 196.019 264.331 196.296 264.832V263.232H197.768V272H196.296V270.368C196.008 270.88 195.576 271.307 195 271.648C194.435 271.979 193.774 272.144 193.016 272.144C192.238 272.144 191.534 271.952 190.904 271.568C190.275 271.184 189.779 270.645 189.416 269.952C189.054 269.259 188.872 268.469 188.872 267.584ZM196.296 267.6C196.296 266.939 196.163 266.363 195.896 265.872C195.63 265.381 195.267 265.008 194.808 264.752C194.36 264.485 193.864 264.352 193.32 264.352C192.776 264.352 192.28 264.48 191.832 264.736C191.384 264.992 191.027 265.365 190.76 265.856C190.494 266.347 190.36 266.923 190.36 267.584C190.36 268.256 190.494 268.843 190.76 269.344C191.027 269.835 191.384 270.213 191.832 270.48C192.28 270.736 192.776 270.864 193.32 270.864C193.864 270.864 194.36 270.736 194.808 270.48C195.267 270.213 195.63 269.835 195.896 269.344C196.163 268.843 196.296 268.261 196.296 267.6ZM203.31 267.6C203.31 266.693 203.492 265.904 203.854 265.232C204.217 264.549 204.718 264.021 205.358 263.648C206.009 263.275 206.75 263.088 207.582 263.088C208.66 263.088 209.545 263.349 210.238 263.872C210.942 264.395 211.406 265.12 211.63 266.048H210.062C209.913 265.515 209.62 265.093 209.182 264.784C208.756 264.475 208.222 264.32 207.582 264.32C206.75 264.32 206.078 264.608 205.566 265.184C205.054 265.749 204.798 266.555 204.798 267.6C204.798 268.656 205.054 269.472 205.566 270.048C206.078 270.624 206.75 270.912 207.582 270.912C208.222 270.912 208.756 270.763 209.182 270.464C209.609 270.165 209.902 269.739 210.062 269.184H211.63C211.396 270.08 210.926 270.8 210.222 271.344C209.518 271.877 208.638 272.144 207.582 272.144C206.75 272.144 206.009 271.957 205.358 271.584C204.718 271.211 204.217 270.683 203.854 270C203.492 269.317 203.31 268.517 203.31 267.6ZM214.709 264.656C214.965 264.155 215.328 263.765 215.797 263.488C216.277 263.211 216.859 263.072 217.541 263.072V264.576H217.157C215.525 264.576 214.709 265.461 214.709 267.232V272H213.253V263.232H214.709V264.656ZM219.654 261.808C219.377 261.808 219.142 261.712 218.95 261.52C218.758 261.328 218.662 261.093 218.662 260.816C218.662 260.539 218.758 260.304 218.95 260.112C219.142 259.92 219.377 259.824 219.654 259.824C219.921 259.824 220.145 259.92 220.326 260.112C220.518 260.304 220.614 260.539 220.614 260.816C220.614 261.093 220.518 261.328 220.326 261.52C220.145 261.712 219.921 261.808 219.654 261.808ZM220.358 263.232V272H218.902V263.232H220.358ZM221.976 267.584C221.976 266.688 222.157 265.904 222.52 265.232C222.882 264.549 223.378 264.021 224.008 263.648C224.648 263.275 225.357 263.088 226.136 263.088C226.904 263.088 227.57 263.253 228.136 263.584C228.701 263.915 229.122 264.331 229.4 264.832V263.232H230.872V272H229.4V270.368C229.112 270.88 228.68 271.307 228.104 271.648C227.538 271.979 226.877 272.144 226.12 272.144C225.341 272.144 224.637 271.952 224.008 271.568C223.378 271.184 222.882 270.645 222.52 269.952C222.157 269.259 221.976 268.469 221.976 267.584ZM229.4 267.6C229.4 266.939 229.266 266.363 229 265.872C228.733 265.381 228.37 265.008 227.912 264.752C227.464 264.485 226.968 264.352 226.424 264.352C225.88 264.352 225.384 264.48 224.936 264.736C224.488 264.992 224.13 265.365 223.864 265.856C223.597 266.347 223.464 266.923 223.464 267.584C223.464 268.256 223.597 268.843 223.864 269.344C224.13 269.835 224.488 270.213 224.936 270.48C225.384 270.736 225.88 270.864 226.424 270.864C226.968 270.864 227.464 270.736 227.912 270.48C228.37 270.213 228.733 269.835 229 269.344C229.266 268.843 229.4 268.261 229.4 267.6ZM236.74 270.912C237.38 270.912 237.913 270.763 238.34 270.464C238.767 270.165 239.06 269.739 239.22 269.184H240.788C240.575 270.016 240.153 270.699 239.524 271.232C238.905 271.755 238.127 272.053 237.188 272.128V272.928C237.817 272.917 238.319 273.051 238.692 273.328C239.065 273.605 239.252 274 239.252 274.512C239.252 275.013 239.071 275.413 238.708 275.712C238.345 276.011 237.876 276.16 237.3 276.16H235.46V275.216H237.012C237.364 275.216 237.62 275.163 237.78 275.056C237.951 274.949 238.036 274.768 238.036 274.512C238.036 274.267 237.951 274.091 237.78 273.984C237.62 273.877 237.364 273.824 237.012 273.824H236.212V272.112C235.476 272.037 234.825 271.808 234.26 271.424C233.695 271.029 233.252 270.507 232.932 269.856C232.623 269.195 232.468 268.443 232.468 267.6C232.468 266.693 232.649 265.904 233.012 265.232C233.375 264.549 233.876 264.021 234.516 263.648C235.167 263.275 235.908 263.088 236.74 263.088C237.817 263.088 238.703 263.349 239.396 263.872C240.1 264.395 240.564 265.12 240.788 266.048H239.22C239.071 265.515 238.777 265.093 238.34 264.784C237.913 264.475 237.38 264.32 236.74 264.32C235.908 264.32 235.236 264.608 234.724 265.184C234.212 265.749 233.956 266.555 233.956 267.6C233.956 268.656 234.212 269.472 234.724 270.048C235.236 270.624 235.908 270.912 236.74 270.912ZM241.867 267.584C241.867 266.688 242.048 265.904 242.411 265.232C242.773 264.549 243.269 264.021 243.899 263.648C244.539 263.275 245.248 263.088 246.027 263.088C246.795 263.088 247.461 263.253 248.027 263.584C248.592 263.915 249.013 264.331 249.291 264.832V263.232H250.763V272H249.291V270.368C249.003 270.88 248.571 271.307 247.995 271.648C247.429 271.979 246.768 272.144 246.011 272.144C245.232 272.144 244.528 271.952 243.899 271.568C243.269 271.184 242.773 270.645 242.411 269.952C242.048 269.259 241.867 268.469 241.867 267.584ZM249.291 267.6C249.291 266.939 249.157 266.363 248.891 265.872C248.624 265.381 248.261 265.008 247.803 264.752C247.355 264.485 246.859 264.352 246.315 264.352C245.771 264.352 245.275 264.48 244.827 264.736C244.379 264.992 244.021 265.365 243.755 265.856C243.488 266.347 243.355 266.923 243.355 267.584C243.355 268.256 243.488 268.843 243.755 269.344C244.021 269.835 244.379 270.213 244.827 270.48C245.275 270.736 245.771 270.864 246.315 270.864C246.859 270.864 247.355 270.736 247.803 270.48C248.261 270.213 248.624 269.835 248.891 269.344C249.157 268.843 249.291 268.261 249.291 267.6ZM244.251 262.288C244.325 261.744 244.501 261.328 244.779 261.04C245.067 260.752 245.424 260.608 245.851 260.608C246.053 260.608 246.224 260.645 246.363 260.72C246.512 260.784 246.688 260.88 246.891 261.008C247.04 261.115 247.173 261.2 247.291 261.264C247.408 261.317 247.536 261.344 247.675 261.344C247.856 261.344 248.011 261.285 248.139 261.168C248.267 261.051 248.347 260.88 248.379 260.656H249.211C249.147 261.189 248.971 261.6 248.683 261.888C248.395 262.176 248.037 262.32 247.611 262.32C247.408 262.32 247.227 262.288 247.067 262.224C246.917 262.149 246.747 262.043 246.555 261.904C246.384 261.797 246.245 261.717 246.139 261.664C246.043 261.611 245.925 261.584 245.787 261.584C245.605 261.584 245.451 261.643 245.323 261.76C245.205 261.877 245.131 262.053 245.099 262.288H244.251ZM256.727 272.144C255.906 272.144 255.159 271.957 254.487 271.584C253.826 271.211 253.303 270.683 252.919 270C252.546 269.307 252.359 268.507 252.359 267.6C252.359 266.704 252.551 265.915 252.935 265.232C253.33 264.539 253.863 264.011 254.535 263.648C255.207 263.275 255.959 263.088 256.791 263.088C257.623 263.088 258.375 263.275 259.047 263.648C259.719 264.011 260.247 264.533 260.631 265.216C261.026 265.899 261.223 266.693 261.223 267.6C261.223 268.507 261.021 269.307 260.615 270C260.221 270.683 259.682 271.211 258.999 271.584C258.317 271.957 257.559 272.144 256.727 272.144ZM256.727 270.864C257.25 270.864 257.741 270.741 258.199 270.496C258.658 270.251 259.026 269.883 259.303 269.392C259.591 268.901 259.735 268.304 259.735 267.6C259.735 266.896 259.597 266.299 259.319 265.808C259.042 265.317 258.679 264.955 258.231 264.72C257.783 264.475 257.298 264.352 256.775 264.352C256.242 264.352 255.751 264.475 255.303 264.72C254.866 264.955 254.514 265.317 254.247 265.808C253.981 266.299 253.847 266.896 253.847 267.6C253.847 268.315 253.975 268.917 254.231 269.408C254.498 269.899 254.85 270.267 255.287 270.512C255.725 270.747 256.205 270.864 256.727 270.864ZM60.688 291.584C60.688 290.688 60.8693 289.904 61.232 289.232C61.5947 288.549 62.0907 288.021 62.72 287.648C63.36 287.275 64.0747 287.088 64.864 287.088C65.5467 287.088 66.1813 287.248 66.768 287.568C67.3547 287.877 67.8027 288.288 68.112 288.8V284.16H69.584V296H68.112V294.352C67.824 294.875 67.3973 295.307 66.832 295.648C66.2667 295.979 65.6053 296.144 64.848 296.144C64.0693 296.144 63.36 295.952 62.72 295.568C62.0907 295.184 61.5947 294.645 61.232 293.952C60.8693 293.259 60.688 292.469 60.688 291.584ZM68.112 291.6C68.112 290.939 67.9787 290.363 67.712 289.872C67.4453 289.381 67.0827 289.008 66.624 288.752C66.176 288.485 65.68 288.352 65.136 288.352C64.592 288.352 64.096 288.48 63.648 288.736C63.2 288.992 62.8427 289.365 62.576 289.856C62.3093 290.347 62.176 290.923 62.176 291.584C62.176 292.256 62.3093 292.843 62.576 293.344C62.8427 293.835 63.2 294.213 63.648 294.48C64.096 294.736 64.592 294.864 65.136 294.864C65.68 294.864 66.176 294.736 66.624 294.48C67.0827 294.213 67.4453 293.835 67.712 293.344C67.9787 292.843 68.112 292.261 68.112 291.6ZM79.7245 291.28C79.7245 291.557 79.7085 291.851 79.6765 292.16H72.6685C72.7218 293.024 73.0152 293.701 73.5485 294.192C74.0925 294.672 74.7485 294.912 75.5165 294.912C76.1458 294.912 76.6685 294.768 77.0845 294.48C77.5112 294.181 77.8098 293.787 77.9805 293.296H79.5485C79.3138 294.139 78.8445 294.827 78.1405 295.36C77.4365 295.883 76.5618 296.144 75.5165 296.144C74.6845 296.144 73.9378 295.957 73.2765 295.584C72.6258 295.211 72.1138 294.683 71.7405 294C71.3672 293.307 71.1805 292.507 71.1805 291.6C71.1805 290.693 71.3618 289.899 71.7245 289.216C72.0872 288.533 72.5938 288.011 73.2445 287.648C73.9058 287.275 74.6632 287.088 75.5165 287.088C76.3485 287.088 77.0845 287.269 77.7245 287.632C78.3645 287.995 78.8552 288.496 79.1965 289.136C79.5485 289.765 79.7245 290.48 79.7245 291.28ZM78.2205 290.976C78.2205 290.421 78.0978 289.947 77.8525 289.552C77.6072 289.147 77.2712 288.843 76.8445 288.64C76.4285 288.427 75.9645 288.32 75.4525 288.32C74.7165 288.32 74.0872 288.555 73.5645 289.024C73.0525 289.493 72.7592 290.144 72.6845 290.976H78.2205ZM88.376 296.144C87.704 296.144 87.1013 296.032 86.568 295.808C86.0347 295.573 85.6133 295.253 85.304 294.848C84.9947 294.432 84.824 293.957 84.792 293.424H86.296C86.3387 293.861 86.5413 294.219 86.904 294.496C87.2773 294.773 87.7627 294.912 88.36 294.912C88.9147 294.912 89.352 294.789 89.672 294.544C89.992 294.299 90.152 293.989 90.152 293.616C90.152 293.232 89.9813 292.949 89.64 292.768C89.2987 292.576 88.7707 292.389 88.056 292.208C87.4053 292.037 86.872 291.867 86.456 291.696C86.0507 291.515 85.6987 291.253 85.4 290.912C85.112 290.56 84.968 290.101 84.968 289.536C84.968 289.088 85.1013 288.677 85.368 288.304C85.6347 287.931 86.0133 287.637 86.504 287.424C86.9947 287.2 87.5547 287.088 88.184 287.088C89.1547 287.088 89.9387 287.333 90.536 287.824C91.1333 288.315 91.4533 288.987 91.496 289.84H90.04C90.008 289.381 89.8213 289.013 89.48 288.736C89.1493 288.459 88.7013 288.32 88.136 288.32C87.6133 288.32 87.1973 288.432 86.888 288.656C86.5787 288.88 86.424 289.173 86.424 289.536C86.424 289.824 86.5147 290.064 86.696 290.256C86.888 290.437 87.1227 290.587 87.4 290.704C87.688 290.811 88.0827 290.933 88.584 291.072C89.2133 291.243 89.7253 291.413 90.12 291.584C90.5147 291.744 90.8507 291.989 91.128 292.32C91.416 292.651 91.5653 293.083 91.576 293.616C91.576 294.096 91.4427 294.528 91.176 294.912C90.9093 295.296 90.5307 295.6 90.04 295.824C89.56 296.037 89.0053 296.144 88.376 296.144ZM94.0634 285.808C93.786 285.808 93.5514 285.712 93.3594 285.52C93.1674 285.328 93.0714 285.093 93.0714 284.816C93.0714 284.539 93.1674 284.304 93.3594 284.112C93.5514 283.92 93.786 283.824 94.0634 283.824C94.33 283.824 94.554 283.92 94.7354 284.112C94.9274 284.304 95.0234 284.539 95.0234 284.816C95.0234 285.093 94.9274 285.328 94.7354 285.52C94.554 285.712 94.33 285.808 94.0634 285.808ZM94.7674 287.232V296H93.3114V287.232H94.7674ZM98.7049 288.432V293.6C98.7049 294.027 98.7955 294.331 98.9769 294.512C99.1582 294.683 99.4729 294.768 99.9209 294.768H100.993V296H99.6809C98.8702 296 98.2622 295.813 97.8569 295.44C97.4515 295.067 97.2489 294.453 97.2489 293.6V288.432H96.1129V287.232H97.2489V285.024H98.7049V287.232H100.993V288.432H98.7049ZM110.437 291.28C110.437 291.557 110.421 291.851 110.389 292.16H103.381C103.434 293.024 103.728 293.701 104.261 294.192C104.805 294.672 105.461 294.912 106.229 294.912C106.858 294.912 107.381 294.768 107.797 294.48C108.224 294.181 108.522 293.787 108.693 293.296H110.261C110.026 294.139 109.557 294.827 108.853 295.36C108.149 295.883 107.274 296.144 106.229 296.144C105.397 296.144 104.65 295.957 103.989 295.584C103.338 295.211 102.826 294.683 102.453 294C102.08 293.307 101.893 292.507 101.893 291.6C101.893 290.693 102.074 289.899 102.437 289.216C102.8 288.533 103.306 288.011 103.957 287.648C104.618 287.275 105.376 287.088 106.229 287.088C107.061 287.088 107.797 287.269 108.437 287.632C109.077 287.995 109.568 288.496 109.909 289.136C110.261 289.765 110.437 290.48 110.437 291.28ZM108.933 290.976C108.933 290.421 108.81 289.947 108.565 289.552C108.32 289.147 107.984 288.843 107.557 288.64C107.141 288.427 106.677 288.32 106.165 288.32C105.429 288.32 104.8 288.555 104.277 289.024C103.765 289.493 103.472 290.144 103.397 290.976H108.933ZM115.143 296.144C114.471 296.144 113.868 296.032 113.335 295.808C112.802 295.573 112.38 295.253 112.071 294.848C111.762 294.432 111.591 293.957 111.559 293.424H113.063C113.106 293.861 113.308 294.219 113.671 294.496C114.044 294.773 114.53 294.912 115.127 294.912C115.682 294.912 116.119 294.789 116.439 294.544C116.759 294.299 116.919 293.989 116.919 293.616C116.919 293.232 116.748 292.949 116.407 292.768C116.066 292.576 115.538 292.389 114.823 292.208C114.172 292.037 113.639 291.867 113.223 291.696C112.818 291.515 112.466 291.253 112.167 290.912C111.879 290.56 111.735 290.101 111.735 289.536C111.735 289.088 111.868 288.677 112.135 288.304C112.402 287.931 112.78 287.637 113.271 287.424C113.762 287.2 114.322 287.088 114.951 287.088C115.922 287.088 116.706 287.333 117.303 287.824C117.9 288.315 118.22 288.987 118.263 289.84H116.807C116.775 289.381 116.588 289.013 116.247 288.736C115.916 288.459 115.468 288.32 114.903 288.32C114.38 288.32 113.964 288.432 113.655 288.656C113.346 288.88 113.191 289.173 113.191 289.536C113.191 289.824 113.282 290.064 113.463 290.256C113.655 290.437 113.89 290.587 114.167 290.704C114.455 290.811 114.85 290.933 115.351 291.072C115.98 291.243 116.492 291.413 116.887 291.584C117.282 291.744 117.618 291.989 117.895 292.32C118.183 292.651 118.332 293.083 118.343 293.616C118.343 294.096 118.21 294.528 117.943 294.912C117.676 295.296 117.298 295.6 116.807 295.824C116.327 296.037 115.772 296.144 115.143 296.144ZM120.542 296.096C120.265 296.096 120.03 296 119.838 295.808C119.646 295.616 119.55 295.381 119.55 295.104C119.55 294.827 119.646 294.592 119.838 294.4C120.03 294.208 120.265 294.112 120.542 294.112C120.809 294.112 121.033 294.208 121.214 294.4C121.406 294.592 121.502 294.827 121.502 295.104C121.502 295.381 121.406 295.616 121.214 295.808C121.033 296 120.809 296.096 120.542 296.096Z" fill="#363636"/>
<path d="M79 191V187.36H65.28V178.2H77.64V174.72H65.28V165.68H79V162.08H61.36V191H79ZM88.6803 191V161.56H84.9203V191H88.6803ZM103.455 191.48C108.295 191.48 111.575 189.12 112.535 184.92H109.015C108.375 187.16 106.455 188.36 103.535 188.36C99.8153 188.36 97.6553 186.08 97.3753 181.96L112.495 181.92V180.52C112.495 174.72 108.855 170.88 103.295 170.88C97.6153 170.88 93.7353 175.12 93.7353 181.24C93.7353 187.32 97.6953 191.48 103.455 191.48ZM103.295 174.04C106.615 174.04 108.735 176.2 108.735 179.44H97.4553C97.9353 176 100.015 174.04 103.295 174.04ZM121.255 191V179.4C121.255 176.28 123.135 174.32 125.975 174.32C128.615 174.32 130.295 176 130.295 179.08V191H134.015V179.4C134.015 176.28 135.895 174.28 138.735 174.28C141.375 174.28 143.095 176.04 143.095 179.12V191H146.775V178.2C146.775 173.68 144.055 170.88 139.575 170.88C136.535 170.88 134.175 172.4 133.255 174.84C132.255 172.4 130.095 170.88 127.055 170.88C124.295 170.88 122.215 172.16 121.215 174L120.855 171.44H117.495V191H121.255ZM161.227 191.48C166.067 191.48 169.347 189.12 170.307 184.92H166.787C166.147 187.16 164.227 188.36 161.307 188.36C157.587 188.36 155.427 186.08 155.147 181.96L170.267 181.92V180.52C170.267 174.72 166.627 170.88 161.067 170.88C155.387 170.88 151.507 175.12 151.507 181.24C151.507 187.32 155.467 191.48 161.227 191.48ZM161.067 174.04C164.387 174.04 166.507 176.2 166.507 179.44H155.227C155.707 176 157.787 174.04 161.067 174.04ZM179.027 191V180.64C179.027 176.84 181.067 174.32 184.587 174.32C187.467 174.32 189.307 175.92 189.307 179.88V191H193.067V179.04C193.067 174.04 190.707 170.88 185.547 170.88C182.787 170.88 180.307 172.2 179.067 174.44L178.667 171.44H175.267V191H179.027ZM204.595 191V174.6H208.435V171.44H204.595V165.32H200.835V171.44H196.995V174.6H200.835V191H204.595ZM211.134 181.2C211.134 187.24 215.454 191.48 221.334 191.48C227.174 191.48 231.494 187.24 231.494 181.2C231.494 175.16 227.174 170.92 221.334 170.92C215.454 170.92 211.134 175.16 211.134 181.2ZM214.934 181.2C214.934 177.12 217.534 174.28 221.334 174.28C225.094 174.28 227.734 177.12 227.734 181.2C227.734 185.28 225.094 188.12 221.334 188.12C217.534 188.12 214.934 185.28 214.934 181.2ZM247.656 171.28C246.896 171.12 246.336 171.04 245.656 171.04C242.976 171.04 241.016 172.4 240.216 174.44L239.976 171.48H236.456V191H240.216V180.64C240.216 176.88 242.416 174.72 245.976 174.72H247.656V171.28Z" fill="#3C2A56"/>
<g clip-path="url(#clip0_393_461)">
<rect x="105" width="131" height="131" rx="10" fill="white"/>
<g clip-path="url(#clip1_393_461)">
<path d="M236 124.45V6.55C236 2.92567 233.074 0 229.45 0H111.55C107.926 0 105 2.92567 105 6.55V124.45C105 128.074 107.926 131 111.55 131H229.45C233.074 131 236 128.074 236 124.45ZM153.044 94.5929H141.407V36.4071H153.05V94.5929H153.044ZM199.626 94.5929H164.681V82.9503H199.626V94.5929ZM199.626 71.3186H164.681V59.676H199.626V71.3186ZM199.626 48.017H164.681V36.3743H199.626V48.017Z" fill="url(#paint0_linear_393_461)"/>
<path d="M105.458 105.035V105.024L105.437 104.953L105.458 105.035Z" fill="black"/>
</g>
</g>
<defs>
<filter id="filter0_d_393_461" x="0.0748291" y="27.9167" width="341" height="360" filterUnits="userSpaceOnUse" color-interpolation-filters="sRGB">
<feFlood flood-opacity="0" result="BackgroundImageFix"/>
<feColorMatrix in="SourceAlpha" type="matrix" values="0 0 0 0 0 0 0 0 0 0 0 0 0 0 0 0 0 0 127 0" result="hardAlpha"/>
<feOffset dy="9"/>
<feGaussianBlur stdDeviation="13.5"/>
<feColorMatrix type="matrix" values="0 0 0 0 0 0 0 0 0 0 0 0 0 0 0 0 0 0 0.1 0"/>
<feBlend mode="normal" in2="BackgroundImageFix" result="effect1_dropShadow_393_461"/>
<feBlend mode="normal" in="SourceGraphic" in2="effect1_dropShadow_393_461" result="shape"/>
</filter>
<linearGradient id="paint0_linear_393_461" x1="111.823" y1="124.177" x2="225.596" y2="10.4036" gradientUnits="userSpaceOnUse">
<stop stop-color="#312878"/>
<stop offset="1" stop-color="#E02C5D"/>
</linearGradient>
<clipPath id="clip0_393_461">
<rect x="105" width="131" height="131" rx="10" fill="white"/>
</clipPath>
<clipPath id="clip1_393_461">
<rect width="131" height="131" fill="white" transform="translate(105)"/>
</clipPath>
</defs>
</svg>
