<svg width="342" height="388" viewBox="0 0 342 388" fill="none" xmlns="http://www.w3.org/2000/svg">
<g filter="url(#filter0_d_393_416)">
<rect x="27.0748" y="45.9167" width="287" height="306" rx="20" fill="white"/>
</g>
<path d="M60.688 242.416C60.688 241.328 60.9333 240.352 61.424 239.488C61.9147 238.613 62.5813 237.931 63.424 237.44C64.2773 236.949 65.2213 236.704 66.256 236.704C67.472 236.704 68.5333 236.997 69.44 237.584C70.3467 238.171 71.008 239.003 71.424 240.08H69.68C69.3707 239.408 68.9227 238.891 68.336 238.528C67.76 238.165 67.0667 237.984 66.256 237.984C65.4773 237.984 64.7787 238.165 64.16 238.528C63.5413 238.891 63.056 239.408 62.704 240.08C62.352 240.741 62.176 241.52 62.176 242.416C62.176 243.301 62.352 244.08 62.704 244.752C63.056 245.413 63.5413 245.925 64.16 246.288C64.7787 246.651 65.4773 246.832 66.256 246.832C67.0667 246.832 67.76 246.656 68.336 246.304C68.9227 245.941 69.3707 245.424 69.68 244.752H71.424C71.008 245.819 70.3467 246.645 69.44 247.232C68.5333 247.808 67.472 248.096 66.256 248.096C65.2213 248.096 64.2773 247.856 63.424 247.376C62.5813 246.885 61.9147 246.208 61.424 245.344C60.9333 244.48 60.688 243.504 60.688 242.416ZM74.7274 240.656C74.9834 240.155 75.346 239.765 75.8154 239.488C76.2954 239.211 76.8767 239.072 77.5594 239.072V240.576H77.1754C75.5434 240.576 74.7274 241.461 74.7274 243.232V248H73.2714V239.232H74.7274V240.656ZM79.6721 237.808C79.3948 237.808 79.1601 237.712 78.9681 237.52C78.7761 237.328 78.6801 237.093 78.6801 236.816C78.6801 236.539 78.7761 236.304 78.9681 236.112C79.1601 235.92 79.3948 235.824 79.6721 235.824C79.9388 235.824 80.1628 235.92 80.3441 236.112C80.5361 236.304 80.6321 236.539 80.6321 236.816C80.6321 237.093 80.5361 237.328 80.3441 237.52C80.1628 237.712 79.9388 237.808 79.6721 237.808ZM80.3761 239.232V248H78.9201V239.232H80.3761ZM81.9936 243.584C81.9936 242.688 82.175 241.904 82.5376 241.232C82.9003 240.549 83.3963 240.021 84.0256 239.648C84.6656 239.275 85.375 239.088 86.1536 239.088C86.9216 239.088 87.5883 239.253 88.1536 239.584C88.719 239.915 89.1403 240.331 89.4176 240.832V239.232H90.8896V248H89.4176V246.368C89.1296 246.88 88.6976 247.307 88.1216 247.648C87.5563 247.979 86.895 248.144 86.1376 248.144C85.359 248.144 84.655 247.952 84.0256 247.568C83.3963 247.184 82.9003 246.645 82.5376 245.952C82.175 245.259 81.9936 244.469 81.9936 243.584ZM89.4176 243.6C89.4176 242.939 89.2843 242.363 89.0176 241.872C88.751 241.381 88.3883 241.008 87.9296 240.752C87.4816 240.485 86.9856 240.352 86.4416 240.352C85.8976 240.352 85.4016 240.48 84.9536 240.736C84.5056 240.992 84.1483 241.365 83.8816 241.856C83.615 242.347 83.4816 242.923 83.4816 243.584C83.4816 244.256 83.615 244.843 83.8816 245.344C84.1483 245.835 84.5056 246.213 84.9536 246.48C85.4016 246.736 85.8976 246.864 86.4416 246.864C86.9856 246.864 87.4816 246.736 87.9296 246.48C88.3883 246.213 88.751 245.835 89.0176 245.344C89.2843 244.843 89.4176 244.261 89.4176 243.6ZM96.7581 246.912C97.3981 246.912 97.9315 246.763 98.3581 246.464C98.7848 246.165 99.0781 245.739 99.2381 245.184H100.806C100.593 246.016 100.171 246.699 99.5421 247.232C98.9235 247.755 98.1448 248.053 97.2061 248.128V248.928C97.8355 248.917 98.3368 249.051 98.7101 249.328C99.0835 249.605 99.2701 250 99.2701 250.512C99.2701 251.013 99.0888 251.413 98.7261 251.712C98.3635 252.011 97.8941 252.16 97.3181 252.16H95.4781V251.216H97.0301C97.3821 251.216 97.6381 251.163 97.7981 251.056C97.9688 250.949 98.0541 250.768 98.0541 250.512C98.0541 250.267 97.9688 250.091 97.7981 249.984C97.6381 249.877 97.3821 249.824 97.0301 249.824H96.2301V248.112C95.4941 248.037 94.8435 247.808 94.2781 247.424C93.7128 247.029 93.2701 246.507 92.9501 245.856C92.6408 245.195 92.4861 244.443 92.4861 243.6C92.4861 242.693 92.6675 241.904 93.0301 241.232C93.3928 240.549 93.8941 240.021 94.5341 239.648C95.1848 239.275 95.9261 239.088 96.7581 239.088C97.8355 239.088 98.7208 239.349 99.4141 239.872C100.118 240.395 100.582 241.12 100.806 242.048H99.2381C99.0888 241.515 98.7955 241.093 98.3581 240.784C97.9315 240.475 97.3981 240.32 96.7581 240.32C95.9261 240.32 95.2541 240.608 94.7421 241.184C94.2301 241.749 93.9741 242.555 93.9741 243.6C93.9741 244.656 94.2301 245.472 94.7421 246.048C95.2541 246.624 95.9261 246.912 96.7581 246.912ZM101.885 243.584C101.885 242.688 102.066 241.904 102.429 241.232C102.792 240.549 103.288 240.021 103.917 239.648C104.557 239.275 105.266 239.088 106.045 239.088C106.813 239.088 107.48 239.253 108.045 239.584C108.61 239.915 109.032 240.331 109.309 240.832V239.232H110.781V248H109.309V246.368C109.021 246.88 108.589 247.307 108.013 247.648C107.448 247.979 106.786 248.144 106.029 248.144C105.25 248.144 104.546 247.952 103.917 247.568C103.288 247.184 102.792 246.645 102.429 245.952C102.066 245.259 101.885 244.469 101.885 243.584ZM109.309 243.6C109.309 242.939 109.176 242.363 108.909 241.872C108.642 241.381 108.28 241.008 107.821 240.752C107.373 240.485 106.877 240.352 106.333 240.352C105.789 240.352 105.293 240.48 104.845 240.736C104.397 240.992 104.04 241.365 103.773 241.856C103.506 242.347 103.373 242.923 103.373 243.584C103.373 244.256 103.506 244.843 103.773 245.344C104.04 245.835 104.397 246.213 104.845 246.48C105.293 246.736 105.789 246.864 106.333 246.864C106.877 246.864 107.373 246.736 107.821 246.48C108.28 246.213 108.642 245.835 108.909 245.344C109.176 244.843 109.309 244.261 109.309 243.6ZM104.269 238.288C104.344 237.744 104.52 237.328 104.797 237.04C105.085 236.752 105.442 236.608 105.869 236.608C106.072 236.608 106.242 236.645 106.381 236.72C106.53 236.784 106.706 236.88 106.909 237.008C107.058 237.115 107.192 237.2 107.309 237.264C107.426 237.317 107.554 237.344 107.693 237.344C107.874 237.344 108.029 237.285 108.157 237.168C108.285 237.051 108.365 236.88 108.397 236.656H109.229C109.165 237.189 108.989 237.6 108.701 237.888C108.413 238.176 108.056 238.32 107.629 238.32C107.426 238.32 107.245 238.288 107.085 238.224C106.936 238.149 106.765 238.043 106.573 237.904C106.402 237.797 106.264 237.717 106.157 237.664C106.061 237.611 105.944 237.584 105.805 237.584C105.624 237.584 105.469 237.643 105.341 237.76C105.224 237.877 105.149 238.053 105.117 238.288H104.269ZM116.745 248.144C115.924 248.144 115.177 247.957 114.505 247.584C113.844 247.211 113.321 246.683 112.937 246C112.564 245.307 112.377 244.507 112.377 243.6C112.377 242.704 112.569 241.915 112.953 241.232C113.348 240.539 113.881 240.011 114.553 239.648C115.225 239.275 115.977 239.088 116.809 239.088C117.641 239.088 118.393 239.275 119.065 239.648C119.737 240.011 120.265 240.533 120.649 241.216C121.044 241.899 121.241 242.693 121.241 243.6C121.241 244.507 121.039 245.307 120.633 246C120.239 246.683 119.7 247.211 119.017 247.584C118.335 247.957 117.577 248.144 116.745 248.144ZM116.745 246.864C117.268 246.864 117.759 246.741 118.217 246.496C118.676 246.251 119.044 245.883 119.321 245.392C119.609 244.901 119.753 244.304 119.753 243.6C119.753 242.896 119.615 242.299 119.337 241.808C119.06 241.317 118.697 240.955 118.249 240.72C117.801 240.475 117.316 240.352 116.793 240.352C116.26 240.352 115.769 240.475 115.321 240.72C114.884 240.955 114.532 241.317 114.265 241.808C113.999 242.299 113.865 242.896 113.865 243.6C113.865 244.315 113.993 244.917 114.249 245.408C114.516 245.899 114.868 246.267 115.305 246.512C115.743 246.747 116.223 246.864 116.745 246.864ZM126.237 243.584C126.237 242.688 126.419 241.904 126.781 241.232C127.144 240.549 127.64 240.021 128.269 239.648C128.909 239.275 129.624 239.088 130.413 239.088C131.096 239.088 131.731 239.248 132.317 239.568C132.904 239.877 133.352 240.288 133.661 240.8V236.16H135.133V248H133.661V246.352C133.373 246.875 132.947 247.307 132.381 247.648C131.816 247.979 131.155 248.144 130.397 248.144C129.619 248.144 128.909 247.952 128.269 247.568C127.64 247.184 127.144 246.645 126.781 245.952C126.419 245.259 126.237 244.469 126.237 243.584ZM133.661 243.6C133.661 242.939 133.528 242.363 133.261 241.872C132.995 241.381 132.632 241.008 132.173 240.752C131.725 240.485 131.229 240.352 130.685 240.352C130.141 240.352 129.645 240.48 129.197 240.736C128.749 240.992 128.392 241.365 128.125 241.856C127.859 242.347 127.725 242.923 127.725 243.584C127.725 244.256 127.859 244.843 128.125 245.344C128.392 245.835 128.749 246.213 129.197 246.48C129.645 246.736 130.141 246.864 130.685 246.864C131.229 246.864 131.725 246.736 132.173 246.48C132.632 246.213 132.995 245.835 133.261 245.344C133.528 244.843 133.661 244.261 133.661 243.6ZM145.274 243.28C145.274 243.557 145.258 243.851 145.226 244.16H138.218C138.271 245.024 138.565 245.701 139.098 246.192C139.642 246.672 140.298 246.912 141.066 246.912C141.695 246.912 142.218 246.768 142.634 246.48C143.061 246.181 143.359 245.787 143.53 245.296H145.098C144.863 246.139 144.394 246.827 143.69 247.36C142.986 247.883 142.111 248.144 141.066 248.144C140.234 248.144 139.487 247.957 138.826 247.584C138.175 247.211 137.663 246.683 137.29 246C136.917 245.307 136.73 244.507 136.73 243.6C136.73 242.693 136.911 241.899 137.274 241.216C137.637 240.533 138.143 240.011 138.794 239.648C139.455 239.275 140.213 239.088 141.066 239.088C141.898 239.088 142.634 239.269 143.274 239.632C143.914 239.995 144.405 240.496 144.746 241.136C145.098 241.765 145.274 242.48 145.274 243.28ZM143.77 242.976C143.77 242.421 143.647 241.947 143.402 241.552C143.157 241.147 142.821 240.843 142.394 240.64C141.978 240.427 141.514 240.32 141.002 240.32C140.266 240.32 139.637 240.555 139.114 241.024C138.602 241.493 138.309 242.144 138.234 242.976H143.77ZM152.277 240.848C152.565 240.347 152.992 239.931 153.557 239.6C154.133 239.259 154.8 239.088 155.557 239.088C156.336 239.088 157.04 239.275 157.669 239.648C158.309 240.021 158.811 240.549 159.173 241.232C159.536 241.904 159.717 242.688 159.717 243.584C159.717 244.469 159.536 245.259 159.173 245.952C158.811 246.645 158.309 247.184 157.669 247.568C157.04 247.952 156.336 248.144 155.557 248.144C154.811 248.144 154.149 247.979 153.573 247.648C153.008 247.307 152.576 246.885 152.277 246.384V252.16H150.821V239.232H152.277V240.848ZM158.229 243.584C158.229 242.923 158.096 242.347 157.829 241.856C157.563 241.365 157.2 240.992 156.741 240.736C156.293 240.48 155.797 240.352 155.253 240.352C154.72 240.352 154.224 240.485 153.765 240.752C153.317 241.008 152.955 241.387 152.677 241.888C152.411 242.379 152.277 242.949 152.277 243.6C152.277 244.261 152.411 244.843 152.677 245.344C152.955 245.835 153.317 246.213 153.765 246.48C154.224 246.736 154.72 246.864 155.253 246.864C155.797 246.864 156.293 246.736 156.741 246.48C157.2 246.213 157.563 245.835 157.829 245.344C158.096 244.843 158.229 244.256 158.229 243.584ZM160.77 243.584C160.77 242.688 160.951 241.904 161.314 241.232C161.677 240.549 162.173 240.021 162.802 239.648C163.442 239.275 164.151 239.088 164.93 239.088C165.698 239.088 166.365 239.253 166.93 239.584C167.495 239.915 167.917 240.331 168.194 240.832V239.232H169.666V248H168.194V246.368C167.906 246.88 167.474 247.307 166.898 247.648C166.333 247.979 165.671 248.144 164.914 248.144C164.135 248.144 163.431 247.952 162.802 247.568C162.173 247.184 161.677 246.645 161.314 245.952C160.951 245.259 160.77 244.469 160.77 243.584ZM168.194 243.6C168.194 242.939 168.061 242.363 167.794 241.872C167.527 241.381 167.165 241.008 166.706 240.752C166.258 240.485 165.762 240.352 165.218 240.352C164.674 240.352 164.178 240.48 163.73 240.736C163.282 240.992 162.925 241.365 162.658 241.856C162.391 242.347 162.258 242.923 162.258 243.584C162.258 244.256 162.391 244.843 162.658 245.344C162.925 245.835 163.282 246.213 163.73 246.48C164.178 246.736 164.674 246.864 165.218 246.864C165.762 246.864 166.258 246.736 166.706 246.48C167.165 246.213 167.527 245.835 167.794 245.344C168.061 244.843 168.194 244.261 168.194 243.6ZM167.058 236.752L163.65 238.576V237.488L167.058 235.488V236.752ZM175.422 239.088C176.18 239.088 176.841 239.253 177.406 239.584C177.982 239.915 178.409 240.331 178.686 240.832V239.232H180.158V248.192C180.158 248.992 179.988 249.701 179.646 250.32C179.305 250.949 178.814 251.44 178.174 251.792C177.545 252.144 176.809 252.32 175.966 252.32C174.814 252.32 173.854 252.048 173.086 251.504C172.318 250.96 171.865 250.219 171.726 249.28H173.166C173.326 249.813 173.657 250.24 174.158 250.56C174.66 250.891 175.262 251.056 175.966 251.056C176.766 251.056 177.417 250.805 177.918 250.304C178.43 249.803 178.686 249.099 178.686 248.192V246.352C178.398 246.864 177.972 247.291 177.406 247.632C176.841 247.973 176.18 248.144 175.422 248.144C174.644 248.144 173.934 247.952 173.294 247.568C172.665 247.184 172.169 246.645 171.806 245.952C171.444 245.259 171.262 244.469 171.262 243.584C171.262 242.688 171.444 241.904 171.806 241.232C172.169 240.549 172.665 240.021 173.294 239.648C173.934 239.275 174.644 239.088 175.422 239.088ZM178.686 243.6C178.686 242.939 178.553 242.363 178.286 241.872C178.02 241.381 177.657 241.008 177.198 240.752C176.75 240.485 176.254 240.352 175.71 240.352C175.166 240.352 174.67 240.48 174.222 240.736C173.774 240.992 173.417 241.365 173.15 241.856C172.884 242.347 172.75 242.923 172.75 243.584C172.75 244.256 172.884 244.843 173.15 245.344C173.417 245.835 173.774 246.213 174.222 246.48C174.67 246.736 175.166 246.864 175.71 246.864C176.254 246.864 176.75 246.736 177.198 246.48C177.657 246.213 178.02 245.835 178.286 245.344C178.553 244.843 178.686 244.261 178.686 243.6ZM183.051 237.808C182.774 237.808 182.539 237.712 182.347 237.52C182.155 237.328 182.059 237.093 182.059 236.816C182.059 236.539 182.155 236.304 182.347 236.112C182.539 235.92 182.774 235.824 183.051 235.824C183.318 235.824 183.542 235.92 183.723 236.112C183.915 236.304 184.011 236.539 184.011 236.816C184.011 237.093 183.915 237.328 183.723 237.52C183.542 237.712 183.318 237.808 183.051 237.808ZM183.755 239.232V248H182.299V239.232H183.755ZM190.188 239.072C191.255 239.072 192.119 239.397 192.78 240.048C193.442 240.688 193.772 241.616 193.772 242.832V248H192.332V243.04C192.332 242.165 192.114 241.499 191.676 241.04C191.239 240.571 190.642 240.336 189.884 240.336C189.116 240.336 188.503 240.576 188.044 241.056C187.596 241.536 187.372 242.235 187.372 243.152V248H185.916V239.232H187.372V240.48C187.66 240.032 188.05 239.685 188.54 239.44C189.042 239.195 189.591 239.072 190.188 239.072ZM195.287 243.584C195.287 242.688 195.468 241.904 195.831 241.232C196.193 240.549 196.689 240.021 197.319 239.648C197.959 239.275 198.668 239.088 199.447 239.088C200.215 239.088 200.881 239.253 201.447 239.584C202.012 239.915 202.433 240.331 202.711 240.832V239.232H204.183V248H202.711V246.368C202.423 246.88 201.991 247.307 201.415 247.648C200.849 247.979 200.188 248.144 199.431 248.144C198.652 248.144 197.948 247.952 197.319 247.568C196.689 247.184 196.193 246.645 195.831 245.952C195.468 245.259 195.287 244.469 195.287 243.584ZM202.711 243.6C202.711 242.939 202.577 242.363 202.311 241.872C202.044 241.381 201.681 241.008 201.223 240.752C200.775 240.485 200.279 240.352 199.735 240.352C199.191 240.352 198.695 240.48 198.247 240.736C197.799 240.992 197.441 241.365 197.175 241.856C196.908 242.347 196.775 242.923 196.775 243.584C196.775 244.256 196.908 244.843 197.175 245.344C197.441 245.835 197.799 246.213 198.247 246.48C198.695 246.736 199.191 246.864 199.735 246.864C200.279 246.864 200.775 246.736 201.223 246.48C201.681 246.213 202.044 245.835 202.311 245.344C202.577 244.843 202.711 244.261 202.711 243.6ZM209.427 248.144C208.755 248.144 208.153 248.032 207.619 247.808C207.086 247.573 206.665 247.253 206.355 246.848C206.046 246.432 205.875 245.957 205.843 245.424H207.347C207.39 245.861 207.593 246.219 207.955 246.496C208.329 246.773 208.814 246.912 209.411 246.912C209.966 246.912 210.403 246.789 210.723 246.544C211.043 246.299 211.203 245.989 211.203 245.616C211.203 245.232 211.033 244.949 210.691 244.768C210.35 244.576 209.822 244.389 209.107 244.208C208.457 244.037 207.923 243.867 207.507 243.696C207.102 243.515 206.75 243.253 206.451 242.912C206.163 242.56 206.019 242.101 206.019 241.536C206.019 241.088 206.153 240.677 206.419 240.304C206.686 239.931 207.065 239.637 207.555 239.424C208.046 239.2 208.606 239.088 209.235 239.088C210.206 239.088 210.99 239.333 211.587 239.824C212.185 240.315 212.505 240.987 212.547 241.84H211.091C211.059 241.381 210.873 241.013 210.531 240.736C210.201 240.459 209.753 240.32 209.187 240.32C208.665 240.32 208.249 240.432 207.939 240.656C207.63 240.88 207.475 241.173 207.475 241.536C207.475 241.824 207.566 242.064 207.747 242.256C207.939 242.437 208.174 242.587 208.451 242.704C208.739 242.811 209.134 242.933 209.635 243.072C210.265 243.243 210.777 243.413 211.171 243.584C211.566 243.744 211.902 243.989 212.179 244.32C212.467 244.651 212.617 245.083 212.627 245.616C212.627 246.096 212.494 246.528 212.227 246.912C211.961 247.296 211.582 247.6 211.091 247.824C210.611 248.037 210.057 248.144 209.427 248.144ZM215.867 245.984L214.075 250.288H213.099L214.267 245.984H215.867ZM222.616 240.864C222.915 240.341 223.352 239.915 223.928 239.584C224.504 239.253 225.16 239.088 225.896 239.088C226.685 239.088 227.395 239.275 228.024 239.648C228.653 240.021 229.149 240.549 229.512 241.232C229.875 241.904 230.056 242.688 230.056 243.584C230.056 244.469 229.875 245.259 229.512 245.952C229.149 246.645 228.648 247.184 228.008 247.568C227.379 247.952 226.675 248.144 225.896 248.144C225.139 248.144 224.472 247.979 223.896 247.648C223.331 247.317 222.904 246.896 222.616 246.384V248H221.16V236.16H222.616V240.864ZM228.568 243.584C228.568 242.923 228.435 242.347 228.168 241.856C227.901 241.365 227.539 240.992 227.08 240.736C226.632 240.48 226.136 240.352 225.592 240.352C225.059 240.352 224.563 240.485 224.104 240.752C223.656 241.008 223.293 241.387 223.016 241.888C222.749 242.379 222.616 242.949 222.616 243.6C222.616 244.261 222.749 244.843 223.016 245.344C223.293 245.835 223.656 246.213 224.104 246.48C224.563 246.736 225.059 246.864 225.592 246.864C226.136 246.864 226.632 246.736 227.08 246.48C227.539 246.213 227.901 245.835 228.168 245.344C228.435 244.843 228.568 244.256 228.568 243.584ZM233.109 236.16V248H231.653V236.16H233.109ZM239.094 248.144C238.273 248.144 237.526 247.957 236.854 247.584C236.193 247.211 235.67 246.683 235.286 246C234.913 245.307 234.726 244.507 234.726 243.6C234.726 242.704 234.918 241.915 235.302 241.232C235.697 240.539 236.23 240.011 236.902 239.648C237.574 239.275 238.326 239.088 239.158 239.088C239.99 239.088 240.742 239.275 241.414 239.648C242.086 240.011 242.614 240.533 242.998 241.216C243.393 241.899 243.59 242.693 243.59 243.6C243.59 244.507 243.387 245.307 242.982 246C242.587 246.683 242.049 247.211 241.366 247.584C240.683 247.957 239.926 248.144 239.094 248.144ZM239.094 246.864C239.617 246.864 240.107 246.741 240.566 246.496C241.025 246.251 241.393 245.883 241.67 245.392C241.958 244.901 242.102 244.304 242.102 243.6C242.102 242.896 241.963 242.299 241.686 241.808C241.409 241.317 241.046 240.955 240.598 240.72C240.15 240.475 239.665 240.352 239.142 240.352C238.609 240.352 238.118 240.475 237.67 240.72C237.233 240.955 236.881 241.317 236.614 241.808C236.347 242.299 236.214 242.896 236.214 243.6C236.214 244.315 236.342 244.917 236.598 245.408C236.865 245.899 237.217 246.267 237.654 246.512C238.091 246.747 238.571 246.864 239.094 246.864ZM248.8 239.088C249.558 239.088 250.219 239.253 250.784 239.584C251.36 239.915 251.787 240.331 252.064 240.832V239.232H253.536V248.192C253.536 248.992 253.366 249.701 253.024 250.32C252.683 250.949 252.192 251.44 251.552 251.792C250.923 252.144 250.187 252.32 249.344 252.32C248.192 252.32 247.232 252.048 246.464 251.504C245.696 250.96 245.243 250.219 245.104 249.28H246.544C246.704 249.813 247.035 250.24 247.536 250.56C248.038 250.891 248.64 251.056 249.344 251.056C250.144 251.056 250.795 250.805 251.296 250.304C251.808 249.803 252.064 249.099 252.064 248.192V246.352C251.776 246.864 251.35 247.291 250.784 247.632C250.219 247.973 249.558 248.144 248.8 248.144C248.022 248.144 247.312 247.952 246.672 247.568C246.043 247.184 245.547 246.645 245.184 245.952C244.822 245.259 244.64 244.469 244.64 243.584C244.64 242.688 244.822 241.904 245.184 241.232C245.547 240.549 246.043 240.021 246.672 239.648C247.312 239.275 248.022 239.088 248.8 239.088ZM252.064 243.6C252.064 242.939 251.931 242.363 251.664 241.872C251.398 241.381 251.035 241.008 250.576 240.752C250.128 240.485 249.632 240.352 249.088 240.352C248.544 240.352 248.048 240.48 247.6 240.736C247.152 240.992 246.795 241.365 246.528 241.856C246.262 242.347 246.128 242.923 246.128 243.584C246.128 244.256 246.262 244.843 246.528 245.344C246.795 245.835 247.152 246.213 247.6 246.48C248.048 246.736 248.544 246.864 249.088 246.864C249.632 246.864 250.128 246.736 250.576 246.48C251.035 246.213 251.398 245.835 251.664 245.344C251.931 244.843 252.064 244.261 252.064 243.6ZM258.781 248.144C258.109 248.144 257.506 248.032 256.973 247.808C256.44 247.573 256.018 247.253 255.709 246.848C255.4 246.432 255.229 245.957 255.197 245.424H256.701C256.744 245.861 256.946 246.219 257.309 246.496C257.682 246.773 258.168 246.912 258.765 246.912C259.32 246.912 259.757 246.789 260.077 246.544C260.397 246.299 260.557 245.989 260.557 245.616C260.557 245.232 260.386 244.949 260.045 244.768C259.704 244.576 259.176 244.389 258.461 244.208C257.81 244.037 257.277 243.867 256.861 243.696C256.456 243.515 256.104 243.253 255.805 242.912C255.517 242.56 255.373 242.101 255.373 241.536C255.373 241.088 255.506 240.677 255.773 240.304C256.04 239.931 256.418 239.637 256.909 239.424C257.4 239.2 257.96 239.088 258.589 239.088C259.56 239.088 260.344 239.333 260.941 239.824C261.538 240.315 261.858 240.987 261.901 241.84H260.445C260.413 241.381 260.226 241.013 259.885 240.736C259.554 240.459 259.106 240.32 258.541 240.32C258.018 240.32 257.602 240.432 257.293 240.656C256.984 240.88 256.829 241.173 256.829 241.536C256.829 241.824 256.92 242.064 257.101 242.256C257.293 242.437 257.528 242.587 257.805 242.704C258.093 242.811 258.488 242.933 258.989 243.072C259.618 243.243 260.13 243.413 260.525 243.584C260.92 243.744 261.256 243.989 261.533 244.32C261.821 244.651 261.97 245.083 261.981 245.616C261.981 246.096 261.848 246.528 261.581 246.912C261.314 247.296 260.936 247.6 260.445 247.824C259.965 248.037 259.41 248.144 258.781 248.144ZM275.662 243.28C275.662 243.557 275.646 243.851 275.614 244.16H268.606C268.659 245.024 268.953 245.701 269.486 246.192C270.03 246.672 270.686 246.912 271.454 246.912C272.083 246.912 272.606 246.768 273.022 246.48C273.449 246.181 273.747 245.787 273.918 245.296H275.486C275.251 246.139 274.782 246.827 274.078 247.36C273.374 247.883 272.499 248.144 271.454 248.144C270.622 248.144 269.875 247.957 269.214 247.584C268.563 247.211 268.051 246.683 267.678 246C267.305 245.307 267.118 244.507 267.118 243.6C267.118 242.693 267.299 241.899 267.662 241.216C268.025 240.533 268.531 240.011 269.182 239.648C269.843 239.275 270.601 239.088 271.454 239.088C272.286 239.088 273.022 239.269 273.662 239.632C274.302 239.995 274.793 240.496 275.134 241.136C275.486 241.765 275.662 242.48 275.662 243.28ZM274.158 242.976C274.158 242.421 274.035 241.947 273.79 241.552C273.545 241.147 273.209 240.843 272.782 240.64C272.366 240.427 271.902 240.32 271.39 240.32C270.654 240.32 270.025 240.555 269.502 241.024C268.99 241.493 268.697 242.144 268.622 242.976H274.158ZM62.688 260.16V272H61.232V260.16H62.688ZM68.6735 272.144C67.8522 272.144 67.1055 271.957 66.4335 271.584C65.7722 271.211 65.2495 270.683 64.8655 270C64.4922 269.307 64.3055 268.507 64.3055 267.6C64.3055 266.704 64.4975 265.915 64.8815 265.232C65.2762 264.539 65.8095 264.011 66.4815 263.648C67.1535 263.275 67.9055 263.088 68.7375 263.088C69.5695 263.088 70.3215 263.275 70.9935 263.648C71.6655 264.011 72.1935 264.533 72.5775 265.216C72.9722 265.899 73.1695 266.693 73.1695 267.6C73.1695 268.507 72.9668 269.307 72.5615 270C72.1668 270.683 71.6282 271.211 70.9455 271.584C70.2628 271.957 69.5055 272.144 68.6735 272.144ZM68.6735 270.864C69.1962 270.864 69.6868 270.741 70.1455 270.496C70.6042 270.251 70.9722 269.883 71.2495 269.392C71.5375 268.901 71.6815 268.304 71.6815 267.6C71.6815 266.896 71.5428 266.299 71.2655 265.808C70.9882 265.317 70.6255 264.955 70.1775 264.72C69.7295 264.475 69.2442 264.352 68.7215 264.352C68.1882 264.352 67.6975 264.475 67.2495 264.72C66.8122 264.955 66.4602 265.317 66.1935 265.808C65.9268 266.299 65.7935 266.896 65.7935 267.6C65.7935 268.315 65.9215 268.917 66.1775 269.408C66.4442 269.899 66.7962 270.267 67.2335 270.512C67.6708 270.747 68.1508 270.864 68.6735 270.864ZM75.5479 261.808C75.2705 261.808 75.0359 261.712 74.8439 261.52C74.6625 261.328 74.5719 261.093 74.5719 260.816C74.5719 260.539 74.6625 260.304 74.8439 260.112C75.0359 259.92 75.2705 259.824 75.5479 259.824C75.8252 259.824 76.0545 259.92 76.2359 260.112C76.4279 260.304 76.5239 260.539 76.5239 260.816C76.5239 261.093 76.4279 261.328 76.2359 261.52C76.0545 261.712 75.8252 261.808 75.5479 261.808ZM76.2679 273.904C76.2679 274.683 76.0705 275.253 75.6759 275.616C75.2812 275.979 74.7052 276.16 73.9479 276.16H73.0999V274.928H73.7079C74.1132 274.928 74.3959 274.848 74.5559 274.688C74.7265 274.528 74.8119 274.256 74.8119 273.872V263.232H76.2679V273.904ZM77.8686 267.584C77.8686 266.688 78.05 265.904 78.4126 265.232C78.7753 264.549 79.2713 264.021 79.9006 263.648C80.5406 263.275 81.25 263.088 82.0286 263.088C82.7966 263.088 83.4633 263.253 84.0286 263.584C84.594 263.915 85.0153 264.331 85.2926 264.832V263.232H86.7646V272H85.2926V270.368C85.0046 270.88 84.5726 271.307 83.9966 271.648C83.4313 271.979 82.77 272.144 82.0126 272.144C81.234 272.144 80.53 271.952 79.9006 271.568C79.2713 271.184 78.7753 270.645 78.4126 269.952C78.05 269.259 77.8686 268.469 77.8686 267.584ZM85.2926 267.6C85.2926 266.939 85.1593 266.363 84.8926 265.872C84.626 265.381 84.2633 265.008 83.8046 264.752C83.3566 264.485 82.8606 264.352 82.3166 264.352C81.7726 264.352 81.2766 264.48 80.8286 264.736C80.3806 264.992 80.0233 265.365 79.7566 265.856C79.49 266.347 79.3566 266.923 79.3566 267.584C79.3566 268.256 79.49 268.843 79.7566 269.344C80.0233 269.835 80.3806 270.213 80.8286 270.48C81.2766 270.736 81.7726 270.864 82.3166 270.864C82.8606 270.864 83.3566 270.736 83.8046 270.48C84.2633 270.213 84.626 269.835 84.8926 269.344C85.1593 268.843 85.2926 268.261 85.2926 267.6ZM92.0091 272.144C91.3371 272.144 90.7345 272.032 90.2011 271.808C89.6678 271.573 89.2465 271.253 88.9371 270.848C88.6278 270.432 88.4571 269.957 88.4251 269.424H89.9291C89.9718 269.861 90.1745 270.219 90.5371 270.496C90.9105 270.773 91.3958 270.912 91.9931 270.912C92.5478 270.912 92.9851 270.789 93.3051 270.544C93.6251 270.299 93.7851 269.989 93.7851 269.616C93.7851 269.232 93.6145 268.949 93.2731 268.768C92.9318 268.576 92.4038 268.389 91.6891 268.208C91.0385 268.037 90.5051 267.867 90.0891 267.696C89.6838 267.515 89.3318 267.253 89.0331 266.912C88.7451 266.56 88.6011 266.101 88.6011 265.536C88.6011 265.088 88.7345 264.677 89.0011 264.304C89.2678 263.931 89.6465 263.637 90.1371 263.424C90.6278 263.2 91.1878 263.088 91.8171 263.088C92.7878 263.088 93.5718 263.333 94.1691 263.824C94.7665 264.315 95.0865 264.987 95.1291 265.84H93.6731C93.6411 265.381 93.4545 265.013 93.1131 264.736C92.7825 264.459 92.3345 264.32 91.7691 264.32C91.2465 264.32 90.8305 264.432 90.5211 264.656C90.2118 264.88 90.0571 265.173 90.0571 265.536C90.0571 265.824 90.1478 266.064 90.3291 266.256C90.5211 266.437 90.7558 266.587 91.0331 266.704C91.3211 266.811 91.7158 266.933 92.2171 267.072C92.8465 267.243 93.3585 267.413 93.7531 267.584C94.1478 267.744 94.4838 267.989 94.7611 268.32C95.0491 268.651 95.1985 269.083 95.2091 269.616C95.2091 270.096 95.0758 270.528 94.8091 270.912C94.5425 271.296 94.1638 271.6 93.6731 271.824C93.1931 272.037 92.6385 272.144 92.0091 272.144ZM97.4085 272.096C97.1312 272.096 96.8965 272 96.7045 271.808C96.5125 271.616 96.4165 271.381 96.4165 271.104C96.4165 270.827 96.5125 270.592 96.7045 270.4C96.8965 270.208 97.1312 270.112 97.4085 270.112C97.6752 270.112 97.8992 270.208 98.0805 270.4C98.2725 270.592 98.3685 270.827 98.3685 271.104C98.3685 271.381 98.2725 271.616 98.0805 271.808C97.8992 272 97.6752 272.096 97.4085 272.096Z" fill="#363636"/>
<path d="M67.2 191H71.04L78.12 168.12L85.12 191H88.88L97.6 162.08H93.6L88.28 179.8C87.88 181.08 87.48 182.56 87 185C86.56 182.84 86.16 181.32 85.68 179.76L80.24 162.08H76L70.52 179.76C70.08 181.28 69.64 182.68 69.16 185C68.76 182.8 68.36 181.28 67.96 179.76L62.68 162.08H58.6L67.2 191ZM97.8962 181.2C97.8962 187.24 102.216 191.48 108.096 191.48C113.936 191.48 118.256 187.24 118.256 181.2C118.256 175.16 113.936 170.92 108.096 170.92C102.216 170.92 97.8962 175.16 97.8962 181.2ZM101.696 181.2C101.696 177.12 104.296 174.28 108.096 174.28C111.856 174.28 114.496 177.12 114.496 181.2C114.496 185.28 111.856 188.12 108.096 188.12C104.296 188.12 101.696 185.28 101.696 181.2ZM134.418 171.28C133.658 171.12 133.098 171.04 132.418 171.04C129.738 171.04 127.778 172.4 126.978 174.44L126.738 171.48H123.218V191H126.978V180.64C126.978 176.88 129.178 174.72 132.738 174.72H134.418V171.28ZM145.882 191.48C149.002 191.48 151.642 190.12 152.922 187.44L153.242 191H156.602V161.56H152.882V174.6C151.562 172.2 149.042 170.88 146.042 170.88C140.242 170.88 136.762 175.28 136.762 181.28C136.762 187.24 140.202 191.48 145.882 191.48ZM146.642 188.08C142.802 188.08 140.562 185.2 140.562 181.16C140.562 177.16 142.802 174.28 146.642 174.28C150.482 174.28 152.842 177.16 152.842 181.16C152.842 185.24 150.482 188.08 146.642 188.08ZM162.826 199.76H166.586V187.8C167.866 190.2 170.466 191.52 173.586 191.52C179.386 191.52 182.666 187.04 182.666 181.08C182.666 175.08 179.186 170.88 173.586 170.88C170.466 170.88 167.826 172.28 166.506 174.96L166.226 171.44H162.826V199.76ZM166.626 181.24C166.626 177.16 168.946 174.32 172.786 174.32C176.626 174.32 178.906 177.2 178.906 181.24C178.906 185.24 176.626 188.12 172.786 188.12C168.946 188.12 166.626 185.24 166.626 181.24ZM198.811 171.28C198.051 171.12 197.491 171.04 196.811 171.04C194.131 171.04 192.171 172.4 191.371 174.44L191.131 171.48H187.611V191H191.371V180.64C191.371 176.88 193.571 174.72 197.131 174.72H198.811V171.28ZM210.874 191.48C215.714 191.48 218.994 189.12 219.954 184.92H216.434C215.794 187.16 213.874 188.36 210.954 188.36C207.234 188.36 205.074 186.08 204.794 181.96L219.914 181.92V180.52C219.914 174.72 216.274 170.88 210.714 170.88C205.034 170.88 201.154 175.12 201.154 181.24C201.154 187.32 205.114 191.48 210.874 191.48ZM210.714 174.04C214.034 174.04 216.154 176.2 216.154 179.44H204.874C205.354 176 207.434 174.04 210.714 174.04ZM223.314 185.32C223.314 189.04 226.234 191.48 230.834 191.48C235.474 191.48 238.674 189.12 238.674 185.4C238.674 182.48 237.034 180.96 233.714 180.16L230.274 179.32C228.354 178.84 227.394 177.96 227.394 176.64C227.394 174.84 228.714 173.8 231.074 173.8C233.354 173.8 234.674 175.04 234.754 177H238.354C238.274 173.28 235.474 170.88 231.194 170.88C226.874 170.88 223.834 173.16 223.834 176.76C223.834 179.64 225.474 181.36 228.954 182.2L232.394 183C234.434 183.52 235.074 184.32 235.074 185.64C235.074 187.44 233.554 188.52 230.914 188.52C228.434 188.52 226.914 187.32 226.914 185.32H223.314ZM242.043 185.32C242.043 189.04 244.963 191.48 249.563 191.48C254.203 191.48 257.403 189.12 257.403 185.4C257.403 182.48 255.763 180.96 252.443 180.16L249.003 179.32C247.083 178.84 246.123 177.96 246.123 176.64C246.123 174.84 247.443 173.8 249.803 173.8C252.083 173.8 253.403 175.04 253.483 177H257.083C257.003 173.28 254.203 170.88 249.923 170.88C245.603 170.88 242.563 173.16 242.563 176.76C242.563 179.64 244.203 181.36 247.683 182.2L251.123 183C253.163 183.52 253.803 184.32 253.803 185.64C253.803 187.44 252.283 188.52 249.643 188.52C247.163 188.52 245.643 187.32 245.643 185.32H242.043Z" fill="#3C2A56"/>
<g clip-path="url(#clip0_393_416)">
<g clip-path="url(#clip1_393_416)">
<path d="M228.722 0H112.278C108.258 0 105 3.25837 105 7.27778V123.722C105 127.742 108.258 131 112.278 131H228.722C232.742 131 236 127.742 236 123.722V7.27778C236 3.25837 232.742 0 228.722 0Z" fill="#21759B"/>
<path fill-rule="evenodd" clip-rule="evenodd" d="M133.261 65.5473C133.261 80.3048 141.838 93.0609 154.276 99.1033L136.489 50.3713C134.357 55.1458 133.257 60.3184 133.261 65.5473ZM195.718 63.666C195.718 59.0573 194.062 55.866 192.644 53.3825C190.756 50.3094 188.982 47.7113 188.982 44.6382C188.982 41.2104 191.582 38.0209 195.244 38.0209C195.408 38.0209 195.567 38.0391 195.727 38.05C188.859 31.7428 179.871 28.2486 170.547 28.2614C157.52 28.2614 146.061 34.9442 139.395 45.0658C140.268 45.0949 141.094 45.1113 141.793 45.1113C145.694 45.1113 151.731 44.6382 151.731 44.6382C153.741 44.52 153.978 47.4729 151.971 47.7113C151.971 47.7113 149.949 47.9478 147.702 48.0643L161.279 88.4541L169.441 63.9826L163.632 48.0643C161.623 47.946 159.72 47.7113 159.72 47.7113C157.711 47.5912 157.948 44.52 159.956 44.6364C159.956 44.6364 166.115 45.1113 169.778 45.1113C173.677 45.1113 179.716 44.6382 179.716 44.6382C181.726 44.52 181.963 47.4729 179.954 47.7113C179.954 47.7113 177.931 47.9478 175.687 48.0643L189.162 88.1466L192.881 75.7198C194.491 70.5599 195.718 66.8573 195.718 63.666Z" fill="white"/>
<path fill-rule="evenodd" clip-rule="evenodd" d="M171.202 68.8078L160.013 101.318C167.525 103.532 175.543 103.323 182.93 100.723C182.827 100.559 182.738 100.388 182.663 100.21L171.202 68.8078ZM203.268 47.6585C203.426 48.8466 203.517 50.1202 203.517 51.4939C203.517 55.2747 202.808 59.5286 200.683 64.8486L189.293 97.7751C200.379 91.3125 207.833 79.3023 207.833 65.5473C207.833 59.0646 206.179 52.9695 203.268 47.6585Z" fill="white"/>
<path fill-rule="evenodd" clip-rule="evenodd" d="M170.547 107.02C147.681 107.02 129.077 88.4141 129.077 65.5473C129.077 42.6805 147.681 24.0767 170.547 24.0767C193.416 24.0767 212.02 42.6805 212.02 65.5473C212.02 88.4141 193.416 107.02 170.547 107.02ZM170.547 22.0808C146.582 22.0826 127.083 41.5798 127.083 65.5473C127.083 89.5149 146.582 109.014 170.549 109.014C194.515 109.014 214.014 89.5149 214.014 65.5473C214.014 41.5798 194.515 22.0826 170.547 22.0826" fill="white"/>
</g>
</g>
<defs>
<filter id="filter0_d_393_416" x="0.0748291" y="27.9167" width="341" height="360" filterUnits="userSpaceOnUse" color-interpolation-filters="sRGB">
<feFlood flood-opacity="0" result="BackgroundImageFix"/>
<feColorMatrix in="SourceAlpha" type="matrix" values="0 0 0 0 0 0 0 0 0 0 0 0 0 0 0 0 0 0 127 0" result="hardAlpha"/>
<feOffset dy="9"/>
<feGaussianBlur stdDeviation="13.5"/>
<feColorMatrix type="matrix" values="0 0 0 0 0 0 0 0 0 0 0 0 0 0 0 0 0 0 0.1 0"/>
<feBlend mode="normal" in2="BackgroundImageFix" result="effect1_dropShadow_393_416"/>
<feBlend mode="normal" in="SourceGraphic" in2="effect1_dropShadow_393_416" result="shape"/>
</filter>
<clipPath id="clip0_393_416">
<rect width="131" height="131" fill="white" transform="translate(105)"/>
</clipPath>
<clipPath id="clip1_393_416">
<rect width="131" height="131" fill="white" transform="translate(105)"/>
</clipPath>
</defs>
</svg>
