<svg width="118" height="167" viewBox="0 0 118 167" fill="none" xmlns="http://www.w3.org/2000/svg">
<g clip-path="url(#clip0_35_233)">
<path d="M58.9281 166.578L10.9067 153.199L0.205078 32.7368H117.795L107.082 153.18L58.9281 166.578Z" fill="#264DE4"/>
<path d="M97.911 145.511L107.065 42.5859H59V156.337L97.911 145.511Z" fill="#2965F1"/>
<path d="M24.7382 87.2635L26.0574 102.038H59.0002V87.2635H24.7382ZM22.0869 57.3604L23.425 72.1345H59.0002V57.3604H22.0869ZM59.0002 125.634L58.9356 125.651L42.541 121.208L41.4928 109.425H26.7152L28.7774 132.623L58.9324 141.024L59.0002 141.005V125.634Z" fill="#EBEBEB"/>
<path d="M27.8794 0H45.7085V7.48308H35.3355V14.9662H45.7094V22.4488H27.8794V0ZM49.2747 0H67.1043V6.50699H56.7309V7.80829H67.1043V22.7745H49.2752V15.9413H59.6486V14.64H49.2743L49.2747 0ZM70.6705 0H88.5V6.50699H78.1266V7.80829H88.5V22.7745H70.6705V15.9413H81.0439V14.64H70.671V0H70.6705Z" fill="black"/>
<path d="M93.1678 87.2635L95.8251 57.3604H58.9492V72.1345H79.6923L78.3528 87.2635H58.9492V102.038H77.0765L75.3673 121.199L58.9487 125.646V141.017L89.1277 132.623L89.3489 130.127L92.8087 91.2308L93.1678 87.2635Z" fill="white"/>
</g>
<defs>
<clipPath id="clip0_35_233">
<rect width="118" height="167" fill="white"/>
</clipPath>
</defs>
</svg>
