<svg width="118" height="167" viewBox="0 0 118 167" fill="none" xmlns="http://www.w3.org/2000/svg">
<g clip-path="url(#clip0_36_97)">
<path d="M58.9281 166.578L10.9067 153.199L0.205116 32.7366H117.795L107.082 153.18L58.9281 166.578Z" fill="#264DE4"/>
<path d="M97.911 145.511L107.065 42.5859H59V156.337L97.911 145.511Z" fill="#2965F1"/>
<path d="M24.7381 87.2637L26.0573 102.038H59V87.2637H24.7381ZM22.0867 57.3606L23.4248 72.1347H59V57.3606H22.0867ZM59 125.634L58.9355 125.651L42.5408 121.208L41.4927 109.425H26.715L28.7772 132.623L58.9322 141.024L59 141.005V125.634Z" fill="#EBEBEB"/>
<path d="M27.8793 0H45.7084V7.48308H35.3355V14.9662H45.7093V22.4488H27.8793V0ZM49.2747 0H67.1042V6.50699H56.7308V7.80829H67.1042V22.7745H49.2751V15.9413H59.6485V14.64H49.2742L49.2747 0ZM70.6705 0H88.5V6.50699H78.1266V7.80829H88.5V22.7745H70.6705V15.9413H81.0439V14.64H70.6709V0H70.6705Z" fill="#FCFCFC"/>
<path d="M93.1679 87.2637L95.8252 57.3606H58.9493V72.1347H79.6924L78.3529 87.2637H58.9493V102.038H77.0766L75.3674 121.199L58.9488 125.646V141.017L89.1278 132.623L89.349 130.127L92.8088 91.231L93.1679 87.2637Z" fill="white"/>
</g>
<defs>
<clipPath id="clip0_36_97">
<rect width="118" height="167" fill="white"/>
</clipPath>
</defs>
</svg>
