<svg width="52" height="50" viewBox="0 0 52 50" fill="none" xmlns="http://www.w3.org/2000/svg">
<path d="M40.2812 0H13.7188C7.24666 0 2 5.24666 2 11.7188V38.2812C2 44.7533 7.24666 50 13.7188 50H40.2812C46.7533 50 52 44.7533 52 38.2812V11.7188C52 5.24666 46.7533 0 40.2812 0Z" fill="#5865F2"/>
<mask id="mask0_78_56" style="mask-type:luminance" maskUnits="userSpaceOnUse" x="7" y="9" width="40" height="32">
<path d="M7.46875 9.96094H46.5312V40.2207H7.46875V9.96094Z" fill="white"/>
</mask>
<g mask="url(#mask0_78_56)">
<path d="M40.5369 12.6557C38.0044 11.4932 35.3318 10.6642 32.5859 10.1895C32.561 10.1849 32.5352 10.1883 32.5123 10.1991C32.4893 10.21 32.4704 10.2278 32.4582 10.2501C32.1148 10.8606 31.7344 11.6575 31.4682 12.2837C28.4656 11.834 25.4787 11.834 22.5379 12.2837C22.2715 11.6434 21.8773 10.8606 21.5324 10.2501C21.5196 10.2283 21.5006 10.2109 21.4778 10.2C21.455 10.1892 21.4294 10.1856 21.4045 10.1895C18.6584 10.6632 15.9856 11.4923 13.4535 12.6557C13.4318 12.6649 13.4135 12.6806 13.4012 12.7006C8.3371 20.2663 6.94999 27.646 7.63046 34.9342C7.63235 34.9521 7.63783 34.9694 7.64655 34.9851C7.65528 35.0008 7.66707 35.0146 7.68124 35.0256C11.0223 37.4794 14.2588 38.969 17.4351 39.9563C17.4599 39.9637 17.4862 39.9633 17.5107 39.9553C17.5352 39.9473 17.5567 39.932 17.5723 39.9114C18.3236 38.8852 18.9933 37.8034 19.5678 36.6657C19.5757 36.6501 19.5802 36.633 19.581 36.6156C19.5818 36.5981 19.579 36.5807 19.5726 36.5644C19.5661 36.5482 19.5564 36.5334 19.5439 36.5212C19.5314 36.509 19.5164 36.4996 19.5 36.4936C18.4375 36.0905 17.426 35.5993 16.4529 35.0413C16.4352 35.0308 16.4203 35.0162 16.4096 34.9986C16.3989 34.9811 16.3926 34.9612 16.3914 34.9406C16.3902 34.9201 16.394 34.8996 16.4026 34.8809C16.4112 34.8622 16.4242 34.8459 16.4406 34.8335C16.6459 34.68 16.8476 34.5219 17.0457 34.3592C17.063 34.3449 17.084 34.3357 17.1063 34.3327C17.1286 34.3296 17.1513 34.3329 17.1719 34.3421C23.5648 37.2608 30.4857 37.2608 36.8031 34.3421C36.8237 34.3323 36.8467 34.3286 36.8693 34.3313C36.892 34.3341 36.9134 34.3432 36.931 34.3577C37.1293 34.5213 37.3316 34.6799 37.5377 34.8335C37.5541 34.8458 37.5673 34.862 37.576 34.8806C37.5847 34.8992 37.5887 34.9197 37.5876 34.9402C37.5866 34.9608 37.5805 34.9807 37.5699 34.9983C37.5593 35.0159 37.5446 35.0307 37.5269 35.0413C36.5533 35.6097 35.5335 36.0951 34.4783 36.4921C34.4619 36.4983 34.447 36.508 34.4346 36.5204C34.4222 36.5328 34.4126 36.5477 34.4064 36.5641C34.4001 36.5804 34.3974 36.598 34.3984 36.6155C34.3994 36.633 34.404 36.6501 34.4121 36.6657C34.9965 37.7944 35.6628 38.8786 36.4058 39.9098C36.421 39.9309 36.4423 39.9468 36.4669 39.9551C36.4915 39.9634 36.5181 39.9639 36.543 39.9563C39.7348 38.969 42.9713 37.4794 46.3125 35.0256C46.3268 35.0151 46.3387 35.0016 46.3475 34.9862C46.3562 34.9707 46.3616 34.9535 46.3633 34.9358C47.1777 26.5098 44.999 19.1905 40.5877 12.7022C40.5769 12.6811 40.5589 12.6646 40.5369 12.6557ZM20.5225 30.4965C18.5976 30.4965 17.0117 28.7296 17.0117 26.5594C17.0117 24.3893 18.567 22.6223 20.5225 22.6223C22.4932 22.6223 24.0637 24.4049 24.0328 26.5594C24.0328 28.7296 22.4779 30.4965 20.5225 30.4965ZM33.5021 30.4965C31.5773 30.4965 29.9916 28.7296 29.9916 26.5594C29.9916 24.3893 31.5467 22.6223 33.5021 22.6223C35.4728 22.6223 37.0433 24.4049 37.0127 26.5594C37.0127 28.7296 35.4728 30.4965 33.5021 30.4965Z" fill="white"/>
</g>
</svg>
