<svg width="131" height="131" viewBox="0 0 131 131" fill="none" xmlns="http://www.w3.org/2000/svg">
<g clip-path="url(#clip0_36_70)">
<path d="M100.297 0H30.7031C13.7463 0 0 13.7463 0 30.7031V100.297C0 117.254 13.7463 131 30.7031 131H100.297C117.254 131 131 117.254 131 100.297V30.7031C131 13.7463 117.254 0 100.297 0Z" fill="#242938"/>
<mask id="mask0_36_70" style="mask-type:luminance" maskUnits="userSpaceOnUse" x="31" y="14" width="69" height="103">
<path d="M31.2148 14.3281H99.4577V116.672H31.2148V14.3281Z" fill="white"/>
</mask>
<g mask="url(#mask0_36_70)">
<path d="M48.2791 116.672C57.6948 116.672 65.3363 109.03 65.3363 99.6148V82.5571H48.2791C38.8635 82.5571 31.2215 90.1991 31.2215 99.6148C31.2215 109.03 38.8635 116.672 48.2791 116.672Z" fill="#0ACF83"/>
<path d="M31.2215 65.5C31.2215 56.0844 38.8635 48.4429 48.2791 48.4429H65.3363V82.5571H48.2791C38.8635 82.5571 31.2215 74.9156 31.2215 65.5Z" fill="#A259FF"/>
<path d="M31.2215 31.3852C31.2215 21.9696 38.8635 14.3281 48.2791 14.3281H65.3363V48.4429H48.2791C38.8635 48.4429 31.2215 40.8009 31.2215 31.3852Z" fill="#F24E1E"/>
<path d="M65.3362 14.3281H82.3934C91.809 14.3281 99.451 21.9696 99.451 31.3852C99.451 40.8009 91.809 48.4429 82.3934 48.4429H65.3362V14.3281Z" fill="#FF7262"/>
<path d="M99.451 65.5C99.451 74.9156 91.809 82.5571 82.3934 82.5571C72.9777 82.5571 65.3362 74.9156 65.3362 65.5C65.3362 56.0844 72.9777 48.4429 82.3934 48.4429C91.809 48.4429 99.451 56.0844 99.451 65.5Z" fill="#1ABCFE"/>
</g>
</g>
<defs>
<clipPath id="clip0_36_70">
<rect width="131" height="131" fill="white"/>
</clipPath>
</defs>
</svg>
