<svg width="118" height="167" viewBox="0 0 118 167" fill="none" xmlns="http://www.w3.org/2000/svg">
<g clip-path="url(#clip0_35_225)">
<path d="M117.795 32.7368L107.082 153.18L58.9281 166.578L10.9067 153.199L0.205078 32.7368H117.795Z" fill="#E44D26"/>
<path d="M59 156.337L97.911 145.511L107.065 42.5859H59V156.337Z" fill="#F16529"/>
<path d="M38.175 72.1345H59.0002V57.3604H22.0869L22.4391 61.3239L26.0574 102.038H59.0002V87.2635H39.5205L38.175 72.1345ZM41.4928 109.425H26.7152L28.7774 132.623L58.9324 141.024L59.0002 141.005V125.634L58.9356 125.651L42.541 121.208L41.4928 109.425Z" fill="#EBEBEB"/>
<path d="M11.1455 0H18.6265V7.41785H25.4701V0H32.9515V22.4631H25.4705V14.9412H18.627V22.4631H11.146L11.1455 0ZM42.7889 7.44931H36.2039V0H56.8604V7.44931H50.2713V22.4631H42.7903V7.44931H42.7889ZM60.1386 0H67.939L72.7374 7.89295L77.5311 0H85.3348V22.4631H77.8842V11.3292L72.7374 19.316H72.6083L67.4582 11.3292V22.4631H60.1386V0ZM89.0578 0H96.5411V15.0383H107.062V22.4631H89.0573V0H89.0578Z" fill="black"/>
<path d="M58.9492 102.038H77.0765L75.3673 121.199L58.9487 125.646V141.017L89.1277 132.623L89.3489 130.127L92.8087 91.2308L93.1678 87.2635H58.9492V102.038ZM58.9492 72.0984V72.1345H94.5073L94.8023 68.814L95.4734 61.3239L95.8251 57.3604H58.9492V72.0984Z" fill="white"/>
</g>
<defs>
<clipPath id="clip0_35_225">
<rect width="118" height="167" fill="white"/>
</clipPath>
</defs>
</svg>
