<svg width="118" height="167" viewBox="0 0 118 167" fill="none" xmlns="http://www.w3.org/2000/svg">
<g clip-path="url(#clip0_36_45)">
<path d="M117.795 32.7366L107.082 153.18L58.9281 166.578L10.9067 153.199L0.205109 32.7366H117.795Z" fill="#E44D26"/>
<path d="M59 156.337L97.911 145.511L107.065 42.5859H59V156.337Z" fill="#F16529"/>
<path d="M38.1748 72.1347H59V57.3606H22.0867L22.4389 61.3242L26.0572 102.038H59V87.2637H39.5203L38.1748 72.1347ZM41.4927 109.425H26.715L28.7772 132.623L58.9322 141.024L59 141.005V125.634L58.9355 125.651L42.5408 121.208L41.4927 109.425Z" fill="#EBEBEB"/>
<path d="M11.1455 0H18.6265V7.41785H25.47V0H32.9515V22.4631H25.4705V14.9412H18.627V22.4631H11.1459L11.1455 0ZM42.7888 7.44931H36.2039V0H56.8603V7.44931H50.2712V22.4631H42.7902V7.44931H42.7888ZM60.1385 0H67.939L72.7373 7.89295L77.5311 0H85.3348V22.4631H77.8842V11.3292L72.7373 19.316H72.6083L67.4582 11.3292V22.4631H60.1385V0ZM89.0577 0H96.5411V15.0383H107.061V22.4631H89.0573V0H89.0577Z" fill="#FCFCFC"/>
<path d="M58.9493 102.038H77.0766L75.3674 121.199L58.9488 125.646V141.017L89.1278 132.623L89.349 130.127L92.8088 91.231L93.1679 87.2637H58.9493V102.038ZM58.9493 72.0987V72.1347H94.5074L94.8024 68.8142L95.4735 61.3242L95.8252 57.3606H58.9493V72.0987Z" fill="white"/>
</g>
<defs>
<clipPath id="clip0_36_45">
<rect width="118" height="167" fill="white"/>
</clipPath>
</defs>
</svg>
