<svg width="131" height="131" viewBox="0 0 131 131" fill="none" xmlns="http://www.w3.org/2000/svg">
<g clip-path="url(#clip0_36_122)">
<path d="M100.297 0H30.7031C13.7463 0 0 13.7463 0 30.7031V100.297C0 117.254 13.7463 131 30.7031 131H100.297C117.254 131 131 117.254 131 100.297V30.7031C131 13.7463 117.254 0 100.297 0Z" fill="#242938"/>
<path d="M17.2531 51.2783C17.2531 51.2783 14.8301 49.5318 17.7377 47.1999L24.5108 41.1432C24.5108 41.1432 26.4492 39.104 28.4981 40.8807L91.0041 88.2039V110.897C91.0041 110.897 90.9739 114.46 86.4006 114.066L17.2531 51.2783Z" fill="#2489CA"/>
<path d="M33.3641 65.9053L17.2531 80.5522C17.2531 80.5522 15.5972 81.7839 17.2531 83.9848L24.7329 90.7881C24.7329 90.7881 26.5096 92.6963 29.1342 90.5256L46.2143 77.5745L33.3641 65.9053Z" fill="#1070B3"/>
<path d="M61.6488 66.0266L91.196 43.4649L91.0041 20.8935C91.0041 20.8935 89.7422 15.9672 85.5328 18.5314L46.2143 54.3164L61.6488 66.0266Z" fill="#0877B9"/>
<path d="M86.4006 114.097C88.1169 115.853 90.1966 115.278 90.1966 115.278L113.222 103.932C116.17 101.923 115.756 99.4295 115.756 99.4295V31.6744C115.756 28.6962 112.707 27.6671 112.707 27.6671L92.7506 18.0468C88.3897 15.3515 85.5328 18.5314 85.5328 18.5314C85.5328 18.5314 89.2069 15.8868 91.0041 20.8935V110.483C91.0068 111.094 90.8724 111.697 90.6105 112.25C90.0855 113.309 88.9449 114.299 86.2093 113.885L86.4006 114.097Z" fill="#3C99D4"/>
</g>
<defs>
<clipPath id="clip0_36_122">
<rect width="131" height="131" fill="white"/>
</clipPath>
</defs>
</svg>
